<?xml version="1.0" encoding="UTF-8" standalone="no"?>
<!-- Created with Inkscape (http://www.inkscape.org/) -->

<svg
   xmlns:dc="http://purl.org/dc/elements/1.1/"
   xmlns:cc="http://creativecommons.org/ns#"
   xmlns:rdf="http://www.w3.org/1999/02/22-rdf-syntax-ns#"
   xmlns:svg="http://www.w3.org/2000/svg"
   xmlns="http://www.w3.org/2000/svg"
   xmlns:sodipodi="http://sodipodi.sourceforge.net/DTD/sodipodi-0.dtd"
   xmlns:inkscape="http://www.inkscape.org/namespaces/inkscape"
   version="1.1"
   id="svg10"
   xml:space="preserve"
   width="1280"
   height="746.66669"
   viewBox="0 0 1280 746.66669"
   sodipodi:docname="hatate.svg"
   inkscape:version="0.92.4 (5da689c313, 2019-01-14)"><metadata
     id="metadata16"><rdf:RDF><cc:Work
         rdf:about=""><dc:format>image/svg+xml</dc:format><dc:type
           rdf:resource="http://purl.org/dc/dcmitype/StillImage" /><dc:title></dc:title></cc:Work></rdf:RDF></metadata><defs
     id="defs14"><clipPath
       clipPathUnits="userSpaceOnUse"
       id="clipPath26"><path
         d="M 0,560 H 960 V 0 H 0 Z"
         id="path24"
         inkscape:connector-curvature="0" /></clipPath><clipPath
       clipPathUnits="userSpaceOnUse"
       id="clipPath38"><path
         d="M 0,560 H 960 V 0 H 0 Z"
         id="path36"
         inkscape:connector-curvature="0" /></clipPath><clipPath
       clipPathUnits="userSpaceOnUse"
       id="clipPath50"><path
         d="M 0,560 H 960 V 0 H 0 Z"
         id="path48"
         inkscape:connector-curvature="0" /></clipPath><clipPath
       clipPathUnits="userSpaceOnUse"
       id="clipPath62"><path
         d="M 0,560 H 960 V 0 H 0 Z"
         id="path60"
         inkscape:connector-curvature="0" /></clipPath><clipPath
       clipPathUnits="userSpaceOnUse"
       id="clipPath74"><path
         d="M 0,560 H 960 V 0 H 0 Z"
         id="path72"
         inkscape:connector-curvature="0" /></clipPath><clipPath
       clipPathUnits="userSpaceOnUse"
       id="clipPath106"><path
         d="M 0,560 H 960 V 0 H 0 Z"
         id="path104"
         inkscape:connector-curvature="0" /></clipPath><clipPath
       clipPathUnits="userSpaceOnUse"
       id="clipPath122"><path
         d="M 0,560 H 960 V 0 H 0 Z"
         id="path120"
         inkscape:connector-curvature="0" /></clipPath><clipPath
       clipPathUnits="userSpaceOnUse"
       id="clipPath162"><path
         d="m 141.585,157.55 h 100.8 V 97.1504 h -100.8 z"
         id="path160"
         inkscape:connector-curvature="0" /></clipPath><clipPath
       clipPathUnits="userSpaceOnUse"
       id="clipPath202"><path
         d="M 0,560 H 960 V 0 H 0 Z"
         id="path200"
         inkscape:connector-curvature="0" /></clipPath><clipPath
       clipPathUnits="userSpaceOnUse"
       id="clipPath222"><path
         d="M 0,560 H 960 V 0 H 0 Z"
         id="path220"
         inkscape:connector-curvature="0" /></clipPath><clipPath
       clipPathUnits="userSpaceOnUse"
       id="clipPath234"><path
         d="M 0,560 H 960 V 0 H 0 Z"
         id="path232"
         inkscape:connector-curvature="0" /></clipPath></defs><sodipodi:namedview
     pagecolor="#ffffff"
     bordercolor="#666666"
     borderopacity="1"
     objecttolerance="10"
     gridtolerance="10"
     guidetolerance="10"
     inkscape:pageopacity="0"
     inkscape:pageshadow="2"
     inkscape:window-width="1920"
     inkscape:window-height="1001"
     id="namedview12"
     showgrid="false"
     inkscape:zoom="1.0821428"
     inkscape:cx="640"
     inkscape:cy="373.33334"
     inkscape:window-x="-9"
     inkscape:window-y="-9"
     inkscape:window-maximized="1"
     inkscape:current-layer="g18" /><g
     id="g18"
     inkscape:groupmode="layer"
     inkscape:label="hatate"
     transform="matrix(1.3333333,0,0,-1.3333333,0,746.66667)"><g
       id="g20"><g
         id="g22"
         clip-path="url(#clipPath26)"><g
           id="g28"
           transform="translate(268.1787,373.4976)"><path
             d="M 0,0 C 5,-17.4 7.385,-30.25 7.15,-38.55 6.885,-47.183 7.5,-55.016 9,-62.049 c 1.5,-7 3.484,-12.217 5.951,-15.651 2.467,-3.433 3.401,-7.299 2.799,-11.599 -0.633,-4.299 -3.648,-8.618 -9.049,-12.95 -5.4,-4.334 -15.15,-9.933 -29.25,-16.8 -9.533,-4.666 -19.334,-8.467 -29.4,-11.401 -10.301,-3.033 -19.067,-4.549 -26.301,-4.549 -24.899,0 -41.366,4.75 -49.399,14.25 l -3.25,2.7 -2.851,2.201 c -3.366,2.699 -7.083,6.898 -11.149,12.599 -4.167,5.866 -6.934,12.133 -8.301,18.799 -1.4,6.668 -2.333,11.5 -2.8,14.5 -0.399,2.434 -0.6,6.817 -0.6,13.151 0,15.132 1.467,27.882 4.4,38.249 0.567,2.033 1.367,6.633 2.4,13.8 1.034,7.167 16.45,14.5 46.25,22 29.767,7.534 53.818,5.967 72.152,-4.7 7.732,-1.9 14.25,-4.366 19.548,-7.4 C -4.949,2.35 -1.666,0.634 0,0"
             style="fill:#fff1dd;fill-opacity:1;fill-rule:nonzero;stroke:none"
             id="path30"
             inkscape:connector-curvature="0" /></g></g></g><g
       id="g32"><g
         id="g34"
         clip-path="url(#clipPath38)"><g
           id="g40"
           transform="translate(269.3389,338.6494)"><path
             d="M 0,0 C 0.134,1.601 1.967,2.3 5.5,2.101 7.333,-0.166 8.267,-2.45 8.3,-4.75 l -0.15,-9.8 c -0.067,-3.8 0.05,-6.533 0.35,-8.2 0.233,-1.233 2.167,-6.133 5.8,-14.7 l 3.9,-9.75 c 0.866,-2.333 1.3,-3.8 1.3,-4.4 0,-5.633 -3.417,-11.716 -10.25,-18.25 -2.233,-2.133 -6.684,-5.566 -13.35,-10.299 -3.834,-2.434 -8.049,-4.801 -12.65,-7.101 -10.934,-5.5 -22.55,-9.866 -34.85,-13.1 -13.033,-3.433 -25.25,-5.15 -36.65,-5.15 -12.133,0 -23.667,3.5 -34.6,10.5 -2.9,1.867 -8.35,6.384 -16.35,13.55 -0.067,2 0.051,3.4 0.35,4.2 -0.667,2.033 -1,4.117 -1,6.25 0,1.233 0.416,2.233 1.25,3 0.734,0.667 1.567,1 2.5,1 5.767,-8.5 9.383,-13.633 10.85,-15.399 8.634,-10.234 24.55,-15.351 47.75,-15.351 7.167,0 15.934,1.517 26.3,4.55 10.033,2.933 19.834,6.733 29.4,11.4 9.967,4.866 17.95,9.85 23.95,14.95 6.567,5.6 9.85,10.633 9.85,15.1 0,0.8 -0.616,2.617 -1.85,5.45 L 6,-36.8 C 2,-26.733 0,-17.333 0,-8.6 V 0"
             style="fill:#000000;fill-opacity:1;fill-rule:nonzero;stroke:none"
             id="path42"
             inkscape:connector-curvature="0" /></g></g></g><g
       id="g44"><g
         id="g46"
         clip-path="url(#clipPath50)"><g
           id="g52"
           transform="translate(133.3979,412.3335)"><path
             d="M 0,0 0.351,-0.5 V -1.101 L -0.05,-1.601 -5.149,-5.5 c -16.234,-13.3 -26.05,-27.967 -29.451,-44 -3.4,-16.033 -4.549,-27.584 -3.45,-34.65 v -0.201 c -0.366,-10.899 -2.233,-21.699 -5.599,-32.399 -2,-6.267 -3.034,-12.601 -3.101,-19 l -0.1,-0.451 -0.25,-0.349 c -2.333,-1.934 -5.083,-3.7 -8.25,-5.301 -10.733,-5.365 -16.65,-14.766 -17.75,-28.199 -0.566,-6.533 1.1,-11.567 5,-15.1 4,-3.566 10.284,-5.617 18.85,-6.15 l 0.551,-0.25 0.349,-0.5 -0.049,-0.6 c -0.067,-0.201 -0.184,-0.367 -0.351,-0.5 -8.199,-5.6 -18.366,-5.117 -30.5,1.449 -12.133,6.534 -17.05,18.883 -14.75,37.051 2.301,18.1 7.351,29.383 15.15,33.85 7.267,4.267 11.868,7.9 13.8,10.9 0.134,0.2 0.318,0.333 0.55,0.4 l 0.7,-0.05 0.5,-0.5 0.05,-0.7 c -1.1,-3.2 -2.616,-6.167 -4.55,-8.9 13.068,7.033 17.651,17.25 13.75,30.65 -4.5,15.366 -6.533,30.899 -6.099,46.6 0.433,16.066 8.799,27.584 25.099,34.549 13.334,5.734 24.818,8.417 34.45,8.051 L 0,0 m 152.351,-142.701 -0.5,-0.5 h -0.701 l -0.95,0.35 h -0.05 c -0.866,0.434 -1.566,0.951 -2.099,1.551 l -0.25,0.699 0.25,0.65 1.8,2.051 c 0.166,0.199 0.382,0.317 0.649,0.35 l 0.7,-0.2 0.401,-0.601 0.649,-2.85 0.2,-0.799 -0.099,-0.701 m 5.399,7.1 c 1.601,-2.732 3.417,-4.932 5.45,-6.6 l 9.3,-7.549 c 3.434,-2.667 6.817,-9.951 10.15,-21.851 3.367,-12.133 -0.4,-20.699 -11.299,-25.699 l -0.651,-0.1 c -0.2,0.067 -0.366,0.166 -0.5,0.299 l -0.3,0.551 0.151,0.599 c 5.966,10.768 5.3,19.668 -2,26.701 -7.367,7 -16.184,13.549 -26.45,19.649 0.366,-2.399 4.049,-6.516 11.049,-12.35 l 0.35,-0.599 -0.149,-0.651 -0.5,-0.449 h -0.701 c -8.599,3.4 -15.033,6.5 -19.299,9.299 l -0.401,0.5 v 0.65 l 0.401,0.5 c 3.066,2.201 5.666,4.1 7.799,5.701 l 3.3,2.649 0.5,0.25 0.5,-0.1 0.45,-0.299 0.3,-0.451 h 0.05 l 0.45,-0.5 1.151,-1.099 c 4.599,-3.901 9.382,-5.6 14.349,-5.1 l -0.05,0.1 c -2.433,4.933 -4.167,10.017 -5.2,15.25 -0.066,0.232 -0.033,0.449 0.101,0.65 l 0.5,0.449 0.699,0.051 0.5,-0.451 m 4.65,3.051 -0.349,-0.6 -0.651,-0.201 h -5.15 l -0.649,0.25 c -0.201,0.168 -0.317,0.367 -0.351,0.601 l -0.35,3.25 0.05,0.35 0.5,2.6 0.05,1.35 -0.75,2.75 c -0.066,0.133 -0.083,0.25 -0.05,0.349 l 0.05,1.25 0.25,0.651 c 0.167,0.167 0.367,0.266 0.601,0.3 l 0.649,-0.15 0.45,-0.5 0.351,-1 1.899,-4.4 c 0.934,-1.934 2.05,-3.984 3.351,-6.151 l 0.099,-0.699 m -25.299,122 c -0.034,0.234 0.033,0.449 0.2,0.65 0.133,0.233 0.316,0.367 0.55,0.4 l 0.7,-0.05 c 16.766,-7.801 27.566,-22.784 32.399,-44.95 l 0.05,-0.25 -0.25,-3.7 -0.35,-0.6 -0.65,-0.301 -0.649,0.25 -5.101,3.75 c -2.833,1.901 -4.433,3.967 -4.8,6.201 -2.399,12.334 -8.149,23.45 -17.25,33.35 l -4.55,4.6 -0.299,0.65 M 63.95,12 c 26.3,-1.867 45.934,-7.617 58.901,-17.25 13.033,-9.7 20.75,-17.8 23.149,-24.3 2.334,-6.367 5.034,-12.933 8.101,-19.7 2.966,-6.601 7.516,-12.084 13.649,-16.45 l 1,-0.75 c 2.034,-1.667 3.567,-3.617 4.601,-5.85 1.799,-4.1 1.816,-9.167 0.049,-15.2 l -0.4,-0.55 -0.649,-0.2 c -0.234,0.033 -0.434,0.133 -0.601,0.3 l -0.3,0.55 -0.849,3.5 -1.951,4.799 c -0.966,1.901 -2.083,3.667 -3.349,5.301 l -2.651,3 c 0.034,-3.9 -0.216,-8.017 -0.75,-12.35 l -0.7,-4.6 c -1.033,-6.033 -2.25,-11.067 -3.649,-15.101 l -0.401,-0.549 -0.7,-0.15 c -0.233,0.067 -0.433,0.183 -0.599,0.35 -0.167,0.167 -0.25,0.366 -0.25,0.599 -0.134,2.734 -0.401,5.401 -0.8,8 v 0.051 c -0.801,4.699 -2.068,9.183 -3.801,13.449 l -0.05,-0.299 c 0.167,-8.467 0.033,-16.9 -0.399,-25.3 l -0.25,-0.6 -0.551,-0.301 -0.649,0.101 -0.451,0.5 c -2.566,6.1 -3.933,9.666 -4.099,10.7 -0.334,1.733 -0.467,4.533 -0.401,8.4 l 0.05,3.45 0.151,0.5 0.399,0.349 0.5,0.151 1.801,0.2 c 0.3,2.533 -0.318,5.017 -1.851,7.45 -1.8,2.9 -3.75,5.449 -5.849,7.65 -9.967,10.367 -23.3,14.9 -40,13.6 l -0.451,0.05 -0.349,0.25 c -2.7,2.733 -5.717,5.416 -9.051,8.05 l 2.45,-4.5 c 3.334,-6.2 5.567,-14.134 6.7,-23.8 l -0.099,-0.601 -0.45,-0.399 -0.651,-0.101 c -0.2,0.068 -0.383,0.167 -0.55,0.301 -6.033,6.633 -10.833,12.116 -14.4,16.449 l -5.449,6.25 C 76.284,-56.2 76.7,-58.834 78.301,-60.5 v -0.05 c 2.432,-2.367 3,-5.217 1.699,-8.551 -1.066,-2.766 -0.933,-6.682 0.4,-11.75 l -0.099,-0.75 C 80.134,-81.834 79.917,-82 79.65,-82.101 L 78.9,-82 c -5.632,3.2 -9.583,6.333 -11.849,9.399 -2.334,3.134 -3.734,5.801 -4.2,8 -0.534,2.167 -0.567,5.467 -0.101,9.901 0.334,3.533 -0.482,7.099 -2.449,10.7 C 56.233,-55.233 48.983,-63.65 38.551,-69.25 27.817,-75.017 18.351,-82.867 10.15,-92.8 l -0.5,-0.301 H 9.051 l -0.5,0.351 -0.2,0.55 c -0.167,4.4 0.766,9.333 2.799,14.8 1.8,4.833 2.75,12.316 2.85,22.45 l -0.55,-0.85 c -1.2,-1.834 -3,-6.917 -5.399,-15.25 -2.467,-8.534 -5.384,-16.084 -8.75,-22.65 -3.267,-6.267 -4.334,-12.151 -3.2,-17.651 L -4,-112 c -0.1,-0.2 -0.25,-0.351 -0.449,-0.45 l -0.651,-0.1 c -1.799,0.366 -4.049,1.767 -6.75,4.199 -2.066,1.801 -3.683,5.051 -4.849,9.75 L -17.25,-101 c -0.966,-4.334 -0.283,-8.417 2.051,-12.25 2.266,-3.733 4.649,-5.783 7.149,-6.15 l 0.601,-0.3 0.25,-0.651 c 0.199,-2.766 0.649,-5.966 1.349,-9.599 0.868,-4.667 2.384,-10.934 4.55,-18.8 0.033,-0.201 0.017,-0.4 -0.05,-0.601 l -0.4,-0.5 -0.6,-0.149 c -2.866,0.2 -5.883,1.467 -9.049,3.799 3.132,-6.132 7.049,-9.4 11.75,-9.799 0.233,0 0.433,-0.083 0.599,-0.25 l 6.8,-5.9 0.351,-0.65 -0.25,-0.75 c -0.167,-0.2 -0.384,-0.317 -0.651,-0.35 -6.666,-0.834 -13.783,-0.1 -21.349,2.199 -7.434,2.301 -13.184,7.317 -17.25,15.051 -0.534,-0.234 -0.851,-0.701 -0.951,-1.4 l -0.75,-6.051 -0.049,-0.899 -0.3,-0.65 c -0.2,-0.168 -0.434,-0.267 -0.7,-0.301 l -0.701,0.301 c -5.466,5.1 -8.382,11.317 -8.75,18.65 -0.132,2.467 0.034,5.033 0.5,7.7 0.5,3.3 1.451,6.767 2.85,10.4 l 0.9,2.5 c 1.467,4.167 2.717,8.15 3.75,11.95 2.368,9.066 3.384,17.2 3.05,24.4 -0.566,11.067 1.25,22.933 5.45,35.6 4.134,12.733 14.151,24.917 30.05,36.55 C 18.784,3.7 39.067,10.333 63.801,12 h 0.149"
             style="fill:#40351e;fill-opacity:1;fill-rule:nonzero;stroke:none"
             id="path54"
             inkscape:connector-curvature="0" /></g></g></g><g
       id="g56"><g
         id="g58"
         clip-path="url(#clipPath62)"><g
           id="g64"
           transform="translate(131.9839,411.1162)"><path
             d="m 0,0 c -9.533,0.366 -20.884,-2.284 -34.05,-7.95 -15.9,-6.8 -24.067,-18.017 -24.5,-33.65 -0.433,-15.633 1.583,-31.084 6.05,-46.35 4.467,-15.233 -1.65,-26.5 -18.351,-33.799 3.301,3.533 5.717,7.566 7.25,12.1 -1.965,-3.1 -6.682,-6.85 -14.149,-11.25 -7.533,-4.368 -12.417,-15.385 -14.65,-33.051 -2.234,-17.666 2.516,-29.684 14.25,-36.049 11.733,-6.367 21.533,-6.867 29.4,-1.5 -17.667,1.1 -25.917,8.549 -24.75,22.35 1.133,13.798 7.233,23.466 18.3,29 3.099,1.533 5.783,3.265 8.05,5.199 0.066,6.5 1.117,12.933 3.15,19.301 3.333,10.599 5.184,21.316 5.55,32.149 -1.134,7.133 0.033,18.8 3.5,35 3.433,16.233 13.366,31.1 29.8,44.6 L 0,0 m 160.85,-195.55 0.049,0.051 h -0.049 v -0.051 m -15.8,50.75 -0.35,0.5 -3.35,-2.699 -7.85,-5.701 c 4.2,-2.799 10.566,-5.867 19.1,-9.199 -8.767,7.298 -12.484,12.216 -11.15,14.75 10.9,-6.401 20.199,-13.268 27.9,-20.6 7.7,-7.334 8.417,-16.617 2.15,-27.852 10.399,4.768 13.983,12.952 10.75,24.551 -3.233,11.6 -6.5,18.699 -9.8,21.301 l -9.301,7.6 c -2.099,1.732 -3.983,4.015 -5.649,6.849 1.066,-5.166 2.783,-10.166 5.149,-15 0.201,-0.4 0.201,-0.883 0,-1.449 -5.5,-0.801 -10.783,0.949 -15.849,5.25 l -1.2,1.148 -0.55,0.551 m 6.15,3.651 0.85,-0.301 -0.2,0.849 -0.6,2.852 -1.851,-2.102 c 0.467,-0.5 1.068,-0.933 1.801,-1.298 m 5.1,20.099 c 0.533,-1.599 0.8,-2.633 0.8,-3.099 l -0.05,-1.452 -0.55,-2.75 0.35,-3.199 H 162 c -1.3,2.199 -2.417,4.266 -3.351,6.199 -0.766,1.602 -1.416,3.102 -1.949,4.5 l -0.35,1 -0.05,-1.199 m 14.05,63.5 0.25,3.65 c -4.767,21.8 -15.4,36.55 -31.9,44.25 l 4.55,-4.65 c 9.267,-10.067 15.1,-21.35 17.5,-33.85 0.366,-2 1.833,-3.85 4.399,-5.55 1.901,-1.234 3.634,-2.517 5.201,-3.85 m -32.6,-14.4 -0.05,0.1 0.05,-0.1 m -76.101,0.7 c -2.766,3.933 -3.682,7.8 -2.75,11.6 -3.099,-3.3 -7.215,-6.367 -12.349,-9.2 -13.967,-7.7 -25.417,-18.233 -34.35,-31.6 -0.567,-0.834 -0.801,-1.766 -0.7,-2.799 l 1.5,-3.301 c -7.9,3.633 -11.4,7.551 -10.5,11.75 -3.7,-10.334 -2.75,-17.199 2.85,-20.599 5.567,-3.368 7.733,-4.717 6.5,-4.051 -5.767,-1.666 -10.034,-2.133 -12.8,-1.401 1.134,-3.832 2.167,-7.865 3.099,-12.099 1.768,-8.067 5.984,-14.533 12.651,-19.401 0.167,-0.099 0.25,-0.298 0.25,-0.599 -1.1,-0.5 -2.184,-0.949 -3.25,-1.35 l 0.55,-0.65 c 8.633,-10.233 24.549,-15.35 47.75,-15.35 7.167,0 15.933,1.516 26.299,4.551 10.035,2.932 19.834,6.732 29.401,11.398 4.134,2 7.933,4.034 11.4,6.102 l 0.9,0.549 c 4.466,2.734 8.35,5.5 11.65,8.301 6.566,5.599 9.85,10.632 9.85,15.099 0,0.801 -0.617,2.617 -1.85,5.449 l -4.15,9.5 c -4,10.067 -6,19.467 -6,28.201 v 8.6 l 0.15,0.6 c -11.667,9.633 -23.65,14.1 -35.95,13.4 0.866,-1.5 1.833,-4.767 2.9,-9.8 1.033,-5.034 0.85,-9.483 -0.551,-13.35 -1.399,-3.867 -4.25,-5.95 -8.549,-6.25 2.966,5.166 0.016,11.083 -8.85,17.75 l -0.55,-4.25 c -1.067,-4.667 -0.5,-9.4 1.699,-14.2 -10.099,1.133 -18.849,6.933 -26.25,17.4 M 64.45,11.8 C 39.95,10.167 19.85,3.6 4.149,-7.9 -11.55,-19.4 -21.45,-31.417 -25.55,-43.95 c -4.134,-12.533 -5.933,-24.283 -5.4,-35.25 0.366,-7.3 -0.667,-15.533 -3.1,-24.699 -1,-3.834 -2.25,-7.85 -3.75,-12.051 l -0.95,-2.5 c -1.334,-3.567 -2.267,-6.967 -2.8,-10.199 -0.433,-2.6 -0.584,-5.1 -0.45,-7.5 0.366,-7.067 3.184,-13.067 8.45,-18 l 0.05,0.949 0.75,6.099 c 0.233,1.5 1.066,2.301 2.5,2.401 3.934,-7.867 9.6,-12.949 17,-15.25 7.399,-2.266 14.383,-2.983 20.95,-2.151 l -6.801,5.901 c -6,0.4 -10.783,5.15 -14.349,14.25 4.2,-3.867 8.116,-5.949 11.75,-6.25 -2.134,7.9 -3.651,14.201 -4.55,18.9 -0.667,3.666 -1.117,6.901 -1.351,9.699 -2.766,0.334 -5.382,2.534 -7.849,6.602 -2.467,4.1 -3.184,8.432 -2.151,13 l 1.5,7.049 c 1.167,-6.967 3,-11.584 5.5,-13.85 2.535,-2.301 4.634,-3.617 6.301,-3.949 -1.167,5.699 -0.067,11.799 3.3,18.299 3.333,6.5 6.233,13.983 8.7,22.45 2.433,8.5 4.267,13.683 5.5,15.55 1.234,1.867 2.033,2.85 2.4,2.95 0.033,-11.667 -0.933,-20.15 -2.9,-25.45 -2,-5.3 -2.917,-10.1 -2.75,-14.4 8.3,10.033 17.866,17.95 28.699,23.75 10.834,5.833 18.167,14.75 22,26.75 2.901,-4.434 4.134,-8.817 3.701,-13.15 -0.433,-4.3 -0.416,-7.5 0.049,-9.6 0.467,-2.067 1.818,-4.6 4.051,-7.6 2.234,-2.967 6.083,-6 11.55,-9.1 -1.367,5.333 -1.483,9.45 -0.351,12.35 1.134,2.933 0.651,5.433 -1.449,7.5 -2.134,2.1 -2.516,5.6 -1.15,10.5 0.933,-0.633 3.2,-3.117 6.8,-7.45 3.6,-4.333 8.4,-9.8 14.4,-16.4 -1.134,9.533 -3.334,17.333 -6.601,23.4 L 87,-41.75 c 4.899,-3.6 9.184,-7.267 12.85,-11 17.066,1.3 30.667,-3.333 40.799,-13.9 2.167,-2.267 4.167,-4.867 6,-7.8 1.801,-2.867 2.417,-5.783 1.851,-8.75 -0.967,-0.334 -1.867,-0.484 -2.7,-0.45 l -0.05,-3.45 c -0.066,-3.8 0.05,-6.534 0.35,-8.2 0.2,-1 1.549,-4.517 4.049,-10.551 0.434,8.368 0.568,16.784 0.401,25.251 0,1.033 0.5,1.633 1.5,1.8 2.033,-4.7 3.467,-9.634 4.3,-14.801 0.433,-2.632 0.716,-5.349 0.85,-8.148 1.4,4.033 2.6,9.033 3.6,14.999 l 0.7,4.55 c 0.533,4.3 0.783,8.367 0.75,12.2 v 2.3 l 4.45,-4.65 c 1.3,-1.7 2.449,-3.534 3.449,-5.5 l 2,-4.95 0.901,-3.65 c 1.7,5.8 1.683,10.65 -0.05,14.55 -0.934,2.1 -2.367,3.933 -4.3,5.5 l -0.9,0.7 c -6.3,4.433 -10.967,10.05 -14,16.85 -3.067,6.8 -5.783,13.383 -8.151,19.75 -2.366,6.367 -9.965,14.316 -22.799,23.85 C 109.983,4.283 90.517,9.966 64.45,11.8 m 65.5,-8.3 c 6.234,-2.333 12.567,-5.367 19,-9.1 6.4,-3.7 12.3,-10.184 17.699,-19.45 5.368,-9.234 8.901,-17.717 10.601,-25.45 0.767,-3.534 0.383,-7.884 -1.15,-13.05 7.633,-10.267 5.9,-22.267 -5.201,-36 l -1.149,-1.9 c -0.2,-0.367 -1.15,-1.033 -2.851,-2 2.334,1.834 2.467,7.633 0.401,17.4 -0.967,-9 -2.384,-14.801 -4.25,-17.4 -1.167,-1.6 -2.366,-2.617 -3.6,-3.049 -0.167,-9 2.866,-18.184 9.1,-27.551 0.5,-0.767 0.483,-1.599 -0.05,-2.5 -0.4,-0.301 -0.816,-0.533 -1.25,-0.699 2.866,-4 7.166,-8.701 12.899,-14.102 5.701,-5.365 9.167,-13.716 10.401,-25.048 0.766,-7.202 -0.467,-12.885 -3.7,-17.051 -6.234,-7.033 -14.201,-10.151 -23.9,-9.35 l 8.8,3.25 c -9.434,-1.433 -13.816,1.367 -13.15,8.401 l 0.049,0.298 c 3.334,-4.199 6.384,-5.199 9.151,-3 1.467,1.334 2.349,3.418 2.65,6.25 0.267,2.868 -0.016,6.352 -0.85,10.452 -0.833,3.933 -2.534,7.265 -5.1,10 l -0.351,0.4 v -0.352 l -0.049,-0.349 c -3.3,-2.233 -10.583,-1.016 -21.85,3.65 -6.533,2.733 -11.017,5.483 -13.45,8.25 l -7.95,-4.25 c -10.934,-5.5 -22.55,-9.867 -34.85,-13.099 -13.033,-3.434 -25.25,-5.151 -36.65,-5.151 -12.133,0 -23.666,3.5 -34.6,10.5 l -0.2,0.151 c -13.6,-3.834 -26.651,-1.618 -39.151,6.65 l -1.5,1.1 -0.099,0.099 0.05,-0.15 c -12.467,-2.5 -19.367,3.367 -20.701,17.599 l -0.149,1.75 c -1.167,-0.865 -2.417,-1.716 -3.75,-2.548 -10.3,-6.467 -15.434,-14.918 -15.4,-25.35 0,-3.467 0.667,-6.617 2,-9.451 0.7,-1.699 1.617,-3.184 2.75,-4.449 1.1,-1.235 2.4,-2.268 3.9,-3.1 1.467,-0.834 3.666,-1.334 6.6,-1.5 3.7,-0.035 6.033,1.148 7,3.549 0.933,2.4 1.566,4.25 1.9,5.551 4.8,-6.534 3.267,-12.684 -4.601,-18.452 -7.899,-5.765 -17.465,-6.732 -28.699,-2.898 -12.433,4.266 -19.967,12.365 -22.6,24.299 -1.833,8.467 -2.75,14.75 -2.75,18.849 0,5.434 1.299,11.784 3.9,19.051 3.7,10.434 10,18.733 18.899,24.901 9.101,6.4 14.084,10.365 14.951,11.9 0.867,1.533 1.433,2.783 1.7,3.75 0.266,0.965 -0.283,5.382 -1.651,13.249 -1.366,7.866 -2.916,18.066 -4.649,30.6 -1.733,12.567 1.816,24.983 10.649,37.25 8.801,12.3 21.984,19.317 39.551,21.05 4.767,0.666 9.517,0.65 14.25,-0.05 4.067,-0.634 6.616,-1.567 7.65,-2.8 14.799,9.1 32.783,14.183 53.95,15.25 22,1.333 41.467,-2.617 58.4,-11.85 3.933,-0.2 8.267,-1.183 13,-2.95"
             style="fill:#000000;fill-opacity:1;fill-rule:nonzero;stroke:none"
             id="path66"
             inkscape:connector-curvature="0" /></g></g></g><g
       id="g68"><g
         id="g70"
         clip-path="url(#clipPath74)"><g
           id="g76"
           transform="translate(159.7134,235.8545)"><path
             d="m 0,0 3.2,4.5 c 4.199,1.067 3.283,-16.833 -2.75,-53.7 -1.433,-7.967 -3.967,-18.333 -7.6,-31.1 -1.767,-6.099 -4.917,-9.283 -9.451,-9.55 -2.833,-0.133 -5.716,0.734 -8.649,2.6 -3.067,1.934 -4.101,6.684 -3.101,14.25 l 5.051,16.5 1.15,3.4 C -19.783,-46.167 -12.4,-28.466 0,0 M 1.399,-10.2 1.6,-8.45 c -3.067,-5.833 -8.701,-19.783 -16.9,-41.85 -8.233,-22 -10.634,-33.283 -7.2,-33.849 0.666,-0.901 2.283,-1.118 4.85,-0.651 2.833,0.533 4.966,2.467 6.4,5.8 1.399,3.333 2.533,6.934 3.399,10.8 0.868,3.9 2.634,13.7 5.301,29.4 2.666,15.7 3.983,24.334 3.949,25.901 V -10.2 M 55.85,-25.8 c -3,4.934 -5.717,9.75 -8.15,14.45 1.366,-8.366 2.933,-16.567 4.699,-24.6 1.767,-8.033 4.534,-16.567 8.301,-25.6 1.533,-3.633 3.183,-6.95 4.949,-9.95 2.534,-4.366 5.318,-8 8.351,-10.899 1.833,-1.768 3.616,-1.301 5.35,1.399 0.966,1.5 0.533,4.667 -1.3,9.5 -0.901,2.333 -2.134,5.067 -3.7,8.2 -4.833,9.6 -8.367,17.017 -10.6,22.25 -2.267,5.234 -4.9,10.317 -7.9,15.25 m 6.549,-4.75 0.151,0.55 -0.151,0.2 v -0.4 -0.35 M 60.2,-27 l 0.1,-0.2 h 0.05 L 60.2,-27 M 42.5,-1.649 h 0.05 l -0.1,0.25 c 1.633,3.666 3.267,3.666 4.9,0 C 63.616,-30.167 74,-50.116 78.5,-61.25 l 3.649,-10.25 c 0.634,-2.2 1.068,-4.1 1.301,-5.7 0.733,-5.166 -0.35,-8.366 -3.25,-9.6 -3.6,-1.533 -6.483,-1.516 -8.65,0.05 -4.333,3.233 -8.217,8.317 -11.651,15.25 -2.833,5.7 -5.349,12.667 -7.549,20.9 -4.9,18.234 -8.284,33.683 -10.15,46.35 0,1.366 0.1,2.233 0.3,2.601"
             style="fill:#000000;fill-opacity:1;fill-rule:nonzero;stroke:none"
             id="path78"
             inkscape:connector-curvature="0" /></g><g
           id="g80"
           transform="translate(161.1128,225.6543)"><path
             d="M 0,0 V -2.699 C 0.033,-4.266 -1.283,-12.899 -3.949,-28.6 -6.616,-44.3 -8.383,-54.1 -9.25,-58 c -0.866,-3.866 -2,-7.467 -3.399,-10.8 -1.434,-3.333 -3.568,-5.266 -6.401,-5.8 -2.566,-0.466 -4.183,-0.25 -4.849,0.651 -3.434,0.566 -1.034,11.849 7.2,33.849 C -8.5,-18.033 -2.866,-4.083 0.2,1.75 L 0,0 m 54.45,-15.6 c 3,-4.933 5.634,-10.016 7.901,-15.25 2.233,-5.233 5.766,-12.65 10.599,-22.25 1.567,-3.132 2.8,-5.867 3.7,-8.2 1.833,-4.833 2.267,-8 1.3,-9.5 -1.733,-2.7 -3.516,-3.167 -5.349,-1.399 -3.034,2.899 -5.818,6.533 -8.351,10.899 -1.767,3 -3.416,6.318 -4.949,9.95 -3.768,9.034 -6.534,17.567 -8.301,25.6 -1.767,8.033 -3.333,16.234 -4.699,24.601 2.432,-4.701 5.149,-9.517 8.149,-14.451"
             style="fill:#fff1dd;fill-opacity:1;fill-rule:nonzero;stroke:none"
             id="path82"
             inkscape:connector-curvature="0" /></g><g
           id="g84"
           transform="translate(140.4634,202.1045)"><path
             d="m 0,0 c 2.066,8.8 8.066,19.634 18,32.5 l 4.45,5.75 C 27.883,27.817 27.35,12.366 20.85,-8.1 12.683,-7.667 6.833,-6.134 3.3,-3.5 L 0.85,-0.899 0.649,-0.649 0,0 0.649,-0.649 0,0 m 87,4.15 c 3.166,-7.2 3.2,-12 0.1,-14.4 -2.667,-2.066 -6.35,-3.634 -11.05,-4.7 C 70.217,-16.25 66.866,-14.1 66,-8.5 59.5,10.634 58.967,25.067 64.399,34.8 77.1,20.067 84.633,9.851 87,4.15"
             style="fill:#ffeeee;fill-opacity:1;fill-rule:nonzero;stroke:none"
             id="path86"
             inkscape:connector-curvature="0" /></g><g
           id="g88"
           transform="translate(143.7632,198.6045)"><path
             d="M 0,0 -15.55,1.351 0,0 C -2.8,-0.533 -3.25,-3.033 -1.35,-7.5 -3.25,-3.033 -2.8,-0.533 0,0 M -2.65,2.851 -2.45,2.601 0,0 c 3.533,-2.634 9.383,-4.167 17.55,-4.6 1.3,-6.633 -1.167,-9.183 -7.4,-7.65 -4.367,1.101 -8.2,2.684 -11.5,4.75 l -16.8,-0.149 v 9.25 l 2.6,-0.25 2.1,9.649 10.15,-7.5 0.65,-0.649"
             style="fill:#333333;fill-opacity:1;fill-rule:nonzero;stroke:none"
             id="path90"
             inkscape:connector-curvature="0" /></g><g
           id="g92"
           transform="translate(128.2134,199.9551)"><path
             d="m 0,0 15.55,-1.351 m 0,0 c -2.8,-0.533 -3.25,-3.033 -1.35,-7.5 m 18.9,2.901 c 6.5,20.466 7.033,35.917 1.6,46.349 l -4.45,-5.75 c -9.934,-12.866 -15.934,-23.7 -18,-32.5 L 12.899,1.5 13.1,1.25 15.55,-1.351 c 3.533,-2.633 9.383,-4.167 17.55,-4.599 1.299,-6.634 -1.167,-9.184 -7.4,-7.651 -4.367,1.101 -8.2,2.684 -11.5,4.75 L -2.601,-9 V 0.25 L 0,0 2.1,9.649 12.25,2.149 m 87,4.151 c 3.166,-7.2 3.2,-12 0.1,-14.401 -2.667,-2.066 -6.35,-3.633 -11.05,-4.7 -5.833,-1.3 -9.184,0.851 -10.05,6.45 -6.5,19.134 -7.033,33.568 -1.601,43.3 C 89.35,22.217 96.883,12 99.25,6.3"
             style="fill:none;stroke:#000000;stroke-width:4;stroke-linecap:round;stroke-linejoin:round;stroke-miterlimit:4;stroke-dasharray:none;stroke-opacity:1"
             id="path94"
             inkscape:connector-curvature="0" /></g></g></g><g
       id="g96"
       transform="translate(154.332,93.8178)"><path
         d="M 0,0 V 0.149 Z"
         style="fill:#389c56;fill-opacity:1;fill-rule:nonzero;stroke:none"
         id="path98"
         inkscape:connector-curvature="0" /></g><g
       id="g100"><g
         id="g102"
         clip-path="url(#clipPath106)"><g
           id="g108"
           transform="translate(154.332,93.9668)"><path
             d="M 0,0 2.15,-0.05 0.55,2 c 0,1.2 0.783,1.801 2.35,1.801 1.167,0 2.083,-0.434 2.75,-1.301 0.767,-0.966 1.4,-1.517 1.9,-1.649 l 3.65,0.25 C 12.067,1.167 12.667,0.934 13,0.4 c 0.2,-0.299 0.3,-0.7 0.3,-1.2 0,-0.833 -0.167,-1.366 -0.5,-1.599 l -0.05,-0.05 C 12.55,-3.216 12.3,-3.833 12,-4.3 11.067,-5.699 9.333,-6.399 6.8,-6.399 c -4.033,0 -6.3,2.083 -6.8,6.25 V 0 M 76.15,2.601 C 76.184,0.334 76.1,-1.199 75.9,-2 75.534,-3.6 74.567,-4.399 73,-4.399 c -3.267,0 -5.25,1.5 -5.95,4.5 -0.4,0.266 -0.6,0.649 -0.6,1.149 l 1.95,2.051 c 1.567,1.333 3.067,2 4.5,2 1.534,0 2.3,-0.651 2.3,-1.95 l -0.45,-1.05 1.4,0.3"
             style="fill:#a00101;fill-opacity:1;fill-rule:nonzero;stroke:none"
             id="path110"
             inkscape:connector-curvature="0" /></g><g
           id="g112"
           transform="translate(167.2817,94.3672)"><path
             d="m 0,0 c 0.066,2.434 0.217,3.967 0.45,4.6 0.5,1.433 1.667,2.15 3.5,2.15 1.7,0 2.866,-0.65 3.5,-1.95 0.601,-1.267 0.7,-3.166 0.3,-5.7 0,-2.133 -1.083,-4.784 -3.25,-7.95 -2.766,-4 -6.116,-6 -10.05,-6 -7.099,0 -11.783,2.5 -14.05,7.5 -1.133,2.534 -1.549,5.05 -1.25,7.55 0,3.7 1.267,5.55 3.8,5.55 1.7,0 2.834,-0.667 3.401,-2 l 0.5,-2.25 0.5,-1.2 c 0.266,-0.267 0.783,-1.283 1.549,-3.05 0.734,-1.767 2.367,-2.883 4.901,-3.35 2.533,-0.433 4.265,0.034 5.199,1.4 0.301,0.5 0.551,1.117 0.75,1.85 L 0,-1.6 0.15,0.35 0,0 m 70.75,0.85 c 0,-3.933 -0.232,-6.583 -0.699,-7.95 -1.367,-3.834 -4.567,-5.75 -9.601,-5.75 -6,0 -10.333,2.284 -13,6.85 -0.866,1.5 -1.5,3.117 -1.899,4.85 L 45.15,1.2 c 0,0.833 0.35,1.583 1.05,2.25 0.8,0.866 1.884,1.3 3.25,1.3 1.734,0 2.95,-0.517 3.651,-1.55 l 0.7,-2.1 0.3,-1.1 0.049,-0.3 c 0.701,-2.967 2.666,-4.45 5.901,-4.45 1.533,0 2.482,0.783 2.849,2.35 0.201,0.8 0.284,2.334 0.25,4.6 v 0.05 l -0.049,0.7 c -0.068,2.533 0.049,4.317 0.349,5.35 0.534,1.634 1.7,2.45 3.5,2.45 1.7,0 2.866,-0.833 3.5,-2.5 0.601,-1.633 0.7,-4.1 0.3,-7.4"
             style="fill:#000000;fill-opacity:1;fill-rule:nonzero;stroke:none"
             id="path114"
             inkscape:connector-curvature="0" /></g></g></g><g
       id="g116"><g
         id="g118"
         clip-path="url(#clipPath122)"><g
           id="g124"
           transform="translate(186.6851,162.3496)"><path
             d="M 0,0 C 0,-0.366 0.117,-0.666 0.351,-0.899 0.584,-1.133 0.867,-1.25 1.2,-1.25 c 0.367,0 0.667,0.117 0.901,0.351 C 2.367,-0.666 2.5,-0.383 2.5,-0.05 2.5,0.316 2.367,0.617 2.101,0.851 1.867,1.084 1.567,1.2 1.2,1.2 0.867,1.2 0.584,1.084 0.351,0.851 L 0,0 M 5.4,6.25 V -8.449 6.25 M -6.699,49.601 -9.25,46.95 -6.699,49.601 M 7.65,70.15 l 5.5,0.701 v -0.05 c 0.034,-0.867 0.368,-2.518 1,-4.95 0.567,-2.367 1.417,-5.451 2.55,-9.25 -1.399,-4 -3.55,-7.017 -6.45,-9.05 l -3.25,2.3 3.25,-2.3 1.601,-3.25 c 1.966,0.599 2.95,1.883 2.95,3.849 2.366,-0.599 3.5,0.6 3.399,3.6 l 2.5,-8 0.3,-0.949 1,-3.051 2.4,-7.5 0.201,-0.5 1.649,-5.05 6.601,-19.25 1.2,-3.399 1.3,-3.651 0.25,-0.75 L 36.65,-3.3 26.101,-5.8 C 21.034,-6.8 15.967,-7.55 10.9,-8.05 l -5.5,-0.399 -8.7,-0.25 v 14.3 -14.3 c -5.5,0.066 -10.932,0.515 -16.3,1.349 -4.366,0.701 -8.683,1.633 -12.95,2.8 l 0.3,1.95 0.101,0.55 0.95,6.101 0.199,1.199 0.2,1.051 2.351,12.899 1.399,7.5 1.45,6.851 2.1,9.649 v 0.05 l 1.65,8.45 0.151,0.851 0.099,0.5 c 0.467,-0.634 1.5,-0.735 3.1,-0.301 -0.066,-3.399 1.2,-4.684 3.801,-3.85 0.366,-3.2 1.883,-4.533 4.55,-4 l 0.899,2.05 C -14.716,50.316 -18.3,55.167 -20,61.5 l 0.9,5.051 0.85,4.5 6.5,-1.101 0.45,-0.05 c 2.134,-5.132 5.584,-9.933 10.351,-14.4 l -5.75,-5.899 2.3,-8.201 -5.3,-30.9 C -8.1,7.667 -5.966,6.033 -3.3,5.601 c 1.767,-0.3 3.75,-0.068 5.95,0.7 L 5.4,6.25 C 7.5,6.584 9.434,7.783 11.2,9.851 9.9,14.25 7.733,24.634 4.7,41 L 5.301,41.4 7,49.851 -0.949,55.5 c 4.333,4.467 7.199,9.351 8.599,14.65"
             style="fill:#ffeeee;fill-opacity:1;fill-rule:nonzero;stroke:none"
             id="path126"
             inkscape:connector-curvature="0" /></g><g
           id="g128"
           transform="translate(180.2358,98.4502)"><path
             d="M 0,0 0.149,2.45 0,0 m -20.051,-0.05 0.351,2.699 -0.351,-2.699 m -12.3,44.6 3.951,-0.8 -3.951,0.8 m 18.75,80.95 c -1.666,-4.833 -2.182,-7.684 -1.549,-8.55 -0.633,0.866 -0.117,3.717 1.549,8.55 m 8.101,9.95 0.649,-1.65 -0.649,1.65 M 23.8,-0.3 23.5,2.55 23.8,-0.3 M 45.899,1.75 45.3,4.399 45.899,1.75 m 15.25,17.1 -2.399,-0.65 2.399,0.65 m -5.299,12.1 -2,-0.25 2,0.25 m -4.1,15.35 -3.301,-0.8 3.301,0.8 M 33.699,107.649 35.5,101.55 v -0.1 l 1.649,-5.301 0.151,-0.5 1.55,-5.049 c 1.733,-5.567 3.133,-9.8 4.2,-12.701 l 3.649,-9.949 9.151,-25.051 4.299,-11.75 2.201,-6.049 2.049,-5.55 1.651,-4.6 c 0.667,-2.4 0.866,-4.45 0.599,-6.15 -0.166,-1.067 -0.5,-1.984 -1,-2.75 -1.333,-2 -3.682,-3.8 -7.049,-5.401 -8,-3.833 -25.767,-5.75 -53.3,-5.75 L -6.801,-5.05 -36.2,-3.9 c -1,0.167 -2.3,1.067 -3.901,2.7 l -2.049,2.2 -0.35,1.05 -0.051,0.3 c -0.366,3.266 0.617,11.9 2.95,25.9 l 0.201,1.25 1.2,6.95 0.099,0.6 0.5,2.75 5.101,28.15 4.149,22.65 1,5.049 1.601,8 c 3.566,17.701 6.283,29.334 8.149,34.901 v 6.7 c 8.101,-2.7 18.118,-4.05 30.05,-4.05 3.5,0 7.367,0.35 11.601,1.05 2.967,-11.333 5.316,-19.934 7.05,-25.8 l 2.599,-8.801 M 45.35,61.25 43.1,60.6 45.35,61.25 M 23.149,120.5 c -1.132,3.8 -1.983,6.884 -2.549,9.25 -0.633,2.433 -0.967,4.083 -1,4.95 v 0.05 l -5.5,-0.7 0.299,1.4 -0.299,-1.4 -0.6,-0.05 -8.801,-0.5 -3,-0.05 -6.55,0.35 -0.45,0.05 -6.5,1.1 -0.849,-4.5 -0.901,-5.051 -0.05,0.101 0.05,-0.101 -1.599,-8.449 -0.1,-0.5 -0.15,-0.85 -1.651,-8.451 V 107.1 L -19.15,97.45 -20.601,90.6 -22,83.1 l -2.351,-12.9 -0.2,-1.051 -0.199,-1.199 -0.95,-6.1 -0.101,-0.55 -0.3,-1.95 -2.5,0.75 2.5,-0.75 -0.95,-6.201 -1.3,-8.699 V 44.399 L -28.4,43.75 -29.2,38.1 -29.25,38.149 V 38.1 l -0.15,-1.05 -0.5,-3.6 -0.8,-5.45 -4.3,0.3 4.3,-0.3 -0.101,-0.4 -1.949,-13.65 -0.101,-0.75 -4.799,0.65 4.799,-0.65 -0.75,-4.2 -1.049,-4.65 c 0.266,0.1 2.033,-0.267 5.299,-1.1 L -19.7,2.649 -6.801,2.45 h 6.95 L 23.5,2.55 34.75,2.649 45.3,4.399 c 11.733,2.434 16.8,5.601 15.2,9.5 l -1.75,4.301 -0.15,0.3 -4.75,12.2 -0.75,2 -0.401,1.05 -4.25,11.75 -3.649,10.25 v 0.05 l -1.7,4.8 -1.05,2.95 -0.25,0.75 -1.3,3.65 -1.2,3.4 -6.601,19.25 -1.649,5.049 -0.2,0.5 -2.401,7.5 -1,3.051 -0.3,0.949 -2.5,8 c 1.234,1.801 1,4.334 -0.7,7.601 1.7,-3.267 1.934,-5.8 0.7,-7.601 l -0.099,0.301 -0.05,0.15 -0.351,1.1 -1,3.3 0.8,2.75 -0.8,-2.75"
             style="fill:#000000;fill-opacity:1;fill-rule:nonzero;stroke:none"
             id="path130"
             inkscape:connector-curvature="0" /></g><g
           id="g132"
           transform="translate(160.5356,101.0996)"><path
             d="M 0,0 1.1,9.101 20.35,8.4 19.85,-0.199 H 12.899 L 0,0 m -8.7,41.101 0.05,0.649 v 0.051 L -7.351,50.5 -6.4,56.7 C -2.134,55.533 2.184,54.601 6.55,53.9 L 4.75,39.051 -8.7,41.101 M 6.149,122.75 c 1.701,-6.333 5.285,-11.184 10.75,-14.55 L 16,106.15 c -2.667,-0.533 -4.184,0.8 -4.55,4 -2.6,-0.834 -3.867,0.451 -3.801,3.85 -1.599,-0.434 -2.632,-0.333 -3.099,0.301 l 1.599,8.449 M 42.1,9.4 c 6.867,0.633 13.667,1.55 20.4,2.75 L 59.1,26.5 40.3,25.2 42.1,9.4 m -5.05,43.8 1.7,-14.75 17.05,2 3.3,-13.95 14.45,1.551 4.75,-12.2 0.15,-0.3 C 73.184,14.25 67.866,13.117 62.5,12.15 L 65,1.75 54.45,0 43.2,-0.1 42.1,9.4 20.35,8.4 21.25,24.601 40.3,25.2 38.75,38.45 22.05,37.95 21.25,24.601 3,24.75 1.1,9.101 l -14.25,1.45 0.1,0.75 1.949,13.649 0.101,0.401 14,-0.601 1.75,14.301 17.3,-1.101 0.8,14.601 8.7,0.25 5.5,0.399 m 15.2,2.25 10.55,2.5 1.7,-4.8 V 53.101 L 68.149,42.851 55.8,40.45 l -3.55,15 m -15.851,53.351 c 2.901,2.033 5.051,5.05 6.451,9.05 l 1,-3.3 0.35,-1.101 0.05,-0.149 0.1,-0.301 c 0.1,-3 -1.034,-4.199 -3.4,-3.6 0,-1.966 -0.983,-3.25 -2.95,-3.849 l -1.601,3.25"
             style="fill:#9a1568;fill-opacity:1;fill-rule:nonzero;stroke:none"
             id="path134"
             inkscape:connector-curvature="0" /></g><g
           id="g136"
           transform="translate(151.8354,142.2002)"><path
             d="m 0,0 13.45,-2.05 1.8,14.85 c 5.367,-0.834 10.8,-1.283 16.3,-1.35 l -0.8,-14.6 -17.3,1.1 -1.75,-14.301 -14,0.601 0.8,5.45 0.5,3.6 0.15,1.05 H -0.8 L 0,0 m 39.55,61.149 c -2.7,-1.566 -5.734,-1.433 -9.1,0.401 3.366,-1.834 6.4,-1.967 9.1,-0.401 m 34.15,-100.5 -2.5,10.401 c 5.366,0.967 10.684,2.099 15.95,3.4 l 1.75,-4.301 c 1.6,-3.899 -3.466,-7.066 -15.2,-9.5 m -22.9,7.651 -1.8,15.8 18.8,1.299 3.4,-14.349 c -6.733,-1.2 -13.533,-2.117 -20.4,-2.75 l 1.1,-9.5 -23.35,-0.1 0.5,8.6 L 9.8,-32 8.7,-41.101 -0.95,-40.5 c -3.267,0.833 -5.033,1.2 -5.3,1.1 l 1.05,4.65 0.75,4.2 14.25,-1.45 1.9,15.649 18.25,-0.149 0.8,13.35 16.7,0.5 1.55,-13.25 -19.05,-0.6 -0.9,-16.2 21.75,1 m 10.15,46.05 3.55,-15 12.35,2.4 4.25,-11.75 0.4,-1.05 0.75,-2 -14.45,-1.551 -3.3,13.951 -17.05,-2 -1.7,14.75 c 5.066,0.5 10.134,1.25 15.2,2.25 M 33.9,75.649 41.85,70 l -1.7,-8.45 -0.6,-0.401 c 3.033,-16.366 5.2,-26.75 6.5,-31.149 -1.767,-2.067 -3.7,-3.267 -5.8,-3.601 L 37.5,26.45 39.55,61.149 37.5,26.45 c -2.2,-0.767 -4.184,-1 -5.95,-0.7 -2.666,0.433 -4.8,2.066 -6.4,4.899 l 5.3,30.901 -2.3,8.2 5.75,5.899"
             style="fill:#262626;fill-opacity:1;fill-rule:nonzero;stroke:none"
             id="path138"
             inkscape:connector-curvature="0" /></g><g
           id="g140"
           transform="translate(194.3354,232.5)"><path
             d="m 0,0 c -1.4,-5.3 -4.267,-10.184 -8.6,-14.65 -4.766,4.466 -8.216,9.267 -10.35,14.4 l 6.55,-0.35 3,0.05 8.8,0.5 L 0,0"
             style="fill:#fff1dd;fill-opacity:1;fill-rule:nonzero;stroke:none"
             id="path142"
             inkscape:connector-curvature="0" /></g><g
           id="g144"
           transform="translate(189.3354,168.6504)"><path
             d="M 0,0 2.75,-0.051 C 4.85,0.283 6.783,1.482 8.55,3.55 7.25,7.949 5.083,18.333 2.05,34.699 M -22.7,55.3 l 0.05,-0.101 m 0,0 c 1.7,-6.333 5.284,-11.183 10.75,-14.55 l 2.55,2.651 m -4.6,20.3 c 2.134,-5.133 5.584,-9.934 10.35,-14.401 L -9.35,43.3 M 5,63.85 5.3,65.25 M -13.95,63.6 -14.6,65.25 M 5,63.85 C 3.6,58.55 0.733,53.666 -3.6,49.199 L 4.35,43.55 7.6,41.25 c 2.9,2.033 5.05,5.05 6.45,9.05 l 0.8,2.75"
             style="fill:none;stroke:#000000;stroke-width:3;stroke-linecap:round;stroke-linejoin:round;stroke-miterlimit:4;stroke-dasharray:none;stroke-opacity:1"
             id="path146"
             inkscape:connector-curvature="0" /></g><g
           id="g148"
           transform="translate(186.6851,162.3496)"><path
             d="M 0,0 0.351,0.851 C 0.584,1.084 0.867,1.2 1.2,1.2 1.567,1.2 1.867,1.084 2.101,0.851 2.367,0.617 2.5,0.316 2.5,-0.05 2.5,-0.383 2.367,-0.666 2.101,-0.899 1.867,-1.133 1.567,-1.25 1.2,-1.25 0.867,-1.25 0.584,-1.133 0.351,-0.899 0.117,-0.666 0,-0.366 0,0 M 5.4,-8.449 V 6.25 M -3.3,5.601 v -14.3 m -18.3,61.75 c -0.632,0.866 -0.116,3.717 1.55,8.55 m -1.55,-8.55 c 0.467,-0.634 1.5,-0.735 3.1,-0.301 -0.066,-3.399 1.2,-4.684 3.801,-3.85 0.366,-3.2 1.883,-4.533 4.55,-4 l 0.899,2.05 M 17.5,59.351 c 1.7,-3.267 1.934,-5.8 0.7,-7.601 0.101,-3 -1.033,-4.199 -3.399,-3.6 0,-1.966 -0.984,-3.25 -2.95,-3.849 l -1.601,3.25"
             style="fill:none;stroke:#000000;stroke-width:2;stroke-linecap:round;stroke-linejoin:round;stroke-miterlimit:4;stroke-dasharray:none;stroke-opacity:1"
             id="path150"
             inkscape:connector-curvature="0" /></g><g
           id="g152"
           transform="translate(183.3853,153.6504)"><path
             d="m 0,0 c -5.5,0.066 -10.933,0.516 -16.3,1.35 m 0,0 c -4.366,0.7 -8.683,1.632 -12.95,2.799 m 0,0 -2.5,0.75 M -1.1,50.1 -6.399,19.199 C -4.8,16.366 -2.666,14.732 0,14.3 M 0,0 8.7,0.25 14.2,0.649 M 8,49.699 5.95,15 C 3.75,14.232 1.767,14 0,14.3 m -3.399,44 2.299,-8.2 C 2.267,48.266 5.3,48.133 8,49.699 L 8.601,50.1 10.3,58.55 M 14.2,0.649 c 5.067,0.5 10.134,1.25 15.2,2.25 m 0,0 10.55,2.5 m 0,0 2.25,0.651"
             style="fill:none;stroke:#000000;stroke-width:3;stroke-linecap:round;stroke-linejoin:round;stroke-miterlimit:4;stroke-dasharray:none;stroke-opacity:1"
             id="path154"
             inkscape:connector-curvature="0" /></g><g
           id="g156"><g
             id="g158" /><g
             id="g170"><g
               clip-path="url(#clipPath162)"
               id="g168"
               style="opacity:0"><g
                 transform="translate(160.5356,101.0996)"
                 id="g166"><path
                   d="m 0,0 -0.351,-2.699 m 20.201,2.5 -0.15,-2.45 m 0.15,2.45 L 20.35,8.4 1.1,9.101 m 0,0 1.9,15.649 18.25,-0.149 0.8,13.349 16.7,0.5 M -11,25.351 3,24.75 4.75,39.051 22.05,37.95 22.85,52.551 M 0,0 l 1.1,9.101 -14.25,1.45 m 0,0 -4.8,0.649 m 6.95,14.151 -4.3,0.299 m 6.6,15.451 -3.95,0.799 M -8.7,41.101 4.75,39.051 6.55,53.9 M 38.75,38.45 40.3,25.2 21.25,24.601 20.35,8.4 42.1,9.4 M 65,1.75 65.6,-0.899 M 65,1.75 62.5,12.15 c 5.366,0.967 10.684,2.1 15.95,3.401 M 42.1,9.4 c 6.867,0.633 13.667,1.55 20.4,2.75 L 59.1,26.5 40.3,25.2 42.1,9.4 l 1.1,-9.5 0.3,-2.849 m 34.95,18.5 2.4,0.649 m -43.8,37 1.7,-14.75 17.05,2 3.3,-13.95 14.45,1.551 m 0,0 2,0.25 m -23.3,27.149 3.55,-15 12.349,2.401 m 0,0 3.301,0.799"
                   style="fill:none;stroke:#ff0000;stroke-width:2;stroke-linecap:round;stroke-linejoin:round;stroke-miterlimit:4;stroke-dasharray:none;stroke-opacity:1"
                   id="path164"
                   inkscape:connector-curvature="0" /></g></g></g></g><g
           id="g172"
           transform="translate(161.1353,146.7998)"><path
             d="M 0,0 V 4.601 C -1.5,3.5 -2.983,3.5 -4.45,4.601 V 0.3 -3.95 c 1.134,-0.9 2.617,-0.9 4.45,0 V 0 L 2.7,-0.2 5.601,-0.3 C 6.567,-0.066 7.283,0.517 7.75,1.45 7.283,0.517 6.567,-0.066 5.601,-0.3 L 2.7,-0.2 0,0 M -11.649,1.15 C -11.017,0.517 -10.066,0.3 -8.8,0.5 L -4.45,0.3 -8.8,0.5 c -1.266,-0.2 -2.217,0.017 -2.849,0.65 M 10.7,16.351 C 9.334,16.15 8.584,14.917 8.45,12.65 L 8.351,7.5 8.3,4.601 C 8.3,3.3 8.117,2.25 7.75,1.45 c 0.233,-5.8 0.101,-11.2 -0.399,-16.2 -6.767,-0.566 -13.234,-0.167 -19.401,1.2 -0.167,2.567 -0.183,5.334 -0.05,8.3 l 0.451,6.4 C -12.383,1.884 -12.7,3.167 -12.6,5 l 0.6,8.5 c 0.167,1.967 2.283,3.366 6.351,4.2 4.033,0.8 9.483,0.383 16.349,-1.25 v -0.099"
             style="fill:#b48250;fill-opacity:1;fill-rule:nonzero;stroke:none"
             id="path174"
             inkscape:connector-curvature="0" /></g><g
           id="g176"
           transform="translate(171.8354,163.1504)"><path
             d="m 0,0 0.45,0.05 c 0.333,-0.034 0.667,-0.184 1,-0.45 0.4,-0.368 0.6,-0.883 0.6,-1.55 l -0.2,-5.901 c -1.433,-1.432 -2.833,-1.766 -4.2,-1 1.367,-0.766 2.767,-0.432 4.2,1 l -0.5,-19.95 c -0.333,-1.732 -1.9,-2.833 -4.7,-3.3 0.5,5 0.633,10.401 0.4,16.201 0.367,0.799 0.55,1.849 0.55,3.15 l 0.05,2.899 0.1,5.151 C -2.116,-1.434 -1.366,-0.2 0,0"
             style="fill:#825a3c;fill-opacity:1;fill-rule:nonzero;stroke:none"
             id="path178"
             inkscape:connector-curvature="0" /></g><g
           id="g180"
           transform="translate(161.1353,146.7998)"><path
             d="m 0,0 v -3.95 c -1.833,-0.9 -3.316,-0.9 -4.45,0 V 0.3 4.601 C -2.983,3.5 -1.5,3.5 0,4.601 V 0"
             style="fill:#cccccc;fill-opacity:1;fill-rule:nonzero;stroke:#000000;stroke-width:2;stroke-linecap:round;stroke-linejoin:round;stroke-miterlimit:4;stroke-dasharray:none;stroke-opacity:1"
             id="path182"
             inkscape:connector-curvature="0" /></g><g
           id="g184"
           transform="translate(161.1353,146.7998)"><path
             d="M 0,0 2.7,-0.2 5.601,-0.3 C 6.567,-0.066 7.283,0.517 7.75,1.45 M 8.351,7.5 8.3,4.601 C 8.3,3.3 8.117,2.25 7.75,1.45 7.983,-4.35 7.851,-9.75 7.351,-14.75 M -4.45,0.3 -8.8,0.5 c -1.266,-0.2 -2.217,0.017 -2.849,0.65 m 24.199,7.35 0.2,5.9 c 0,0.667 -0.2,1.183 -0.6,1.55 -0.333,0.267 -0.667,0.416 -1,0.45 L 10.7,16.351 C 9.334,16.15 8.584,14.917 8.45,12.65 L 8.351,7.5 c 1.366,-0.767 2.766,-0.433 4.199,1 l -0.5,-19.95 c -0.333,-1.733 -1.9,-2.833 -4.699,-3.3 -6.767,-0.566 -13.234,-0.167 -19.401,1.2 -0.167,2.567 -0.183,5.334 -0.05,8.3 l 0.451,6.4 C -12.383,1.884 -12.7,3.167 -12.6,5 l 0.6,8.5 c 0.167,1.967 2.283,3.366 6.351,4.2 4.033,0.8 9.483,0.383 16.349,-1.25 l 0.45,-0.05"
             style="fill:none;stroke:#000000;stroke-width:2;stroke-linecap:round;stroke-linejoin:round;stroke-miterlimit:4;stroke-dasharray:none;stroke-opacity:1"
             id="path186"
             inkscape:connector-curvature="0" /></g></g></g><g
       id="g188"
       transform="translate(230.6602,426.2334)"><path
         d="M 0,0 V -15.45 L -22.05,-24.8 V -3.4 L 0,0 -22.05,-3.4 -39.699,29.35 Z"
         style="fill:#a2327f;fill-opacity:1;fill-rule:nonzero;stroke:none"
         id="path190"
         inkscape:connector-curvature="0" /></g><g
       id="g192"
       transform="translate(208.6104,422.8335)"><path
         d="M 0,0 V -21.4 H -28.25 V -0.85 L -17.649,32.75 0,0 -28.25,-0.85 Z"
         style="fill:#8d2e72;fill-opacity:1;fill-rule:nonzero;stroke:none"
         id="path194"
         inkscape:connector-curvature="0" /></g><g
       id="g196"><g
         id="g198"
         clip-path="url(#clipPath202)"><g
           id="g204"
           transform="translate(155.8604,428.5835)"><path
             d="M 0,0 C 7.367,-0.8 15.534,-3 24.5,-6.6 15.534,-3 7.367,-0.8 0,0 M 24.5,-27.15 0,-18 V 0 L 35.101,27 24.5,-6.6 v -20.55"
             style="fill:#7a2762;fill-opacity:1;fill-rule:nonzero;stroke:none"
             id="path206"
             inkscape:connector-curvature="0" /></g><g
           id="g208"
           transform="translate(112.8604,406.7334)"><path
             d="M 0,0 9.1,-10.65 0,0 M 16.55,-2.2 9.1,-10.65 -32.15,-7.1 -29.5,3 0,0 l -11.55,11.2 5.2,11.15 2.8,-3.05 15.2,9.9 8.55,-27.5 -3.65,-3.9 -20.1,21.5 20.1,-21.5 m 149.551,16.5 2.75,3.05 L 174.101,6.2 162.55,-5 158.8,-9.35 162.55,-5 182,2.5 l 1.25,-11.45 -20.75,-4.7 -3.7,4.3 c -2.333,2.534 -4.949,5.017 -7.85,7.45 l -6,4.65 7.449,17.45 13.702,-5.9 -15.151,-16.2 15.151,16.2"
             style="fill:#7c4181;fill-opacity:1;fill-rule:nonzero;stroke:none"
             id="path210"
             inkscape:connector-curvature="0" /></g><g
           id="g212"
           transform="translate(180.3604,421.9834)"><path
             d="m 0,0 v -20.55 m -58.4,-5.35 -9.1,10.65 M 10.601,33.6 0,0 28.25,0.85 10.601,33.6 M 0,0 c -8.966,3.6 -17.133,5.8 -24.5,6.6 m -26.45,-24.05 -7.45,-8.45 -41.25,3.55 2.65,10.1 29.5,-3 -11.55,11.2 5.2,11.15 2.8,-3.05 15.2,9.9 8.55,-27.5 -3.65,-3.9 -20.1,21.5 m 169.651,-5 -13.702,5.9 -7.449,-17.45 6,-4.65 m -55.2,-3.4 22.05,9.35 V 4.25 L 28.25,0.85 v -21.4 H 0 l -24.5,9.15 v 18 L 10.601,33.6 50.3,4.25 m 44.75,-24.5 11.551,11.2 -5.25,11.15 -2.75,-3.05 -15.151,-16.2 c 2.901,-2.433 5.517,-4.916 7.85,-7.45 l 3.75,4.35 19.45,7.5 1.25,-11.45 -20.75,-4.7 -3.7,4.3"
             style="fill:none;stroke:#000000;stroke-width:4;stroke-linecap:round;stroke-linejoin:round;stroke-miterlimit:4;stroke-dasharray:none;stroke-opacity:1"
             id="path214"
             inkscape:connector-curvature="0" /></g></g></g><g
       id="g216"><g
         id="g218"
         clip-path="url(#clipPath222)"><g
           id="g224"
           transform="translate(122.4307,324.7329)"><path
             d="M 0,0 C 0,1.367 5.9,2.85 17.7,4.45 29.933,6.15 41.783,7 53.25,7 60.083,7 64.483,6.25 66.45,4.75 67.15,4.217 67.5,3.333 67.5,2.1 c 0,-0.733 -4.317,-1.717 -12.95,-2.95 0.9,-5.433 1.55,-14.067 1.95,-25.9 0.667,-4.5 0.683,-8.25 0.05,-11.25 -1.234,-5.667 -5.167,-8.5 -11.8,-8.5 -8.767,0 -14.017,4.35 -15.75,13.05 -0.867,4.367 -0.867,8.8 0,13.3 -0.434,7.7 -0.3,13.383 0.4,17.05 -6,-0.267 -12.383,-0.4 -19.15,-0.4 -5.467,0 -8.8,0.534 -10,1.6 -0.4,0.334 -0.567,0.733 -0.5,1.2 L 0,0 m 110,4.5 c 0,0.934 0.167,1.55 0.5,1.85 0.366,0.4 1.233,0.684 2.601,0.85 l 18.5,1.3 15,0.5 c 9.965,0 16.066,-0.6 18.298,-1.8 0.702,-0.4 0.985,-0.833 0.851,-1.3 l -0.399,-0.8 c 0.265,-0.767 0.298,-1.35 0.099,-1.75 -0.334,-0.733 -1.617,-1.35 -3.849,-1.85 -3,-0.633 -8,-1.117 -15,-1.45 l -0.25,-5.2 -1,-31.85 c 0,-2.4 -0.485,-4.15 -1.452,-5.25 -1.932,-2.167 -5.866,-3.25 -11.798,-3.25 -6.168,0 -9.868,1.933 -11.101,5.8 -0.434,1.367 -0.55,2.767 -0.351,4.2 l -0.399,0.25 c -0.167,1.5 -0.25,4 -0.25,7.5 l 1,26.25 v 1 h -4.25 c -3.2,0 -5.283,0.784 -6.25,2.35 C 110.167,2.417 110,3.3 110,4.5"
             style="fill:#000000;fill-opacity:1;fill-rule:nonzero;stroke:none"
             id="path226"
             inkscape:connector-curvature="0" /></g></g></g><g
       id="g228"><g
         id="g230"
         clip-path="url(#clipPath234)"><g
           id="g236"
           transform="translate(199.9248,241.6484)"><path
             d="m 0,0 -0.6,1.55 c -1.133,3.134 -4.067,4.7 -8.8,4.7 -3.6,0 -6.233,-1.433 -7.9,-4.3 l -1.1,-2 -0.55,-0.9 c -0.633,-0.9 -1.4,-1.35 -2.3,-1.35 -2.733,0 -3.75,1.35 -3.05,4.05 -0.033,1.733 1.067,3.8 3.3,6.2 2.966,3.234 6.833,4.85 11.6,4.85 6.667,0 11.433,-2.116 14.3,-6.35 C 5.767,5.15 6.4,3.7 6.8,2.101 L 7.1,0 c 0,-2.066 -1.15,-3.116 -3.45,-3.149 -1.434,0.033 -2.434,0.533 -3,1.5 L 0,0"
             style="fill:#000000;fill-opacity:1;fill-rule:nonzero;stroke:none"
             id="path238"
             inkscape:connector-curvature="0" /></g><g
           id="g240"
           transform="translate(181.5244,241.5986)"><path
             d="m 0,0 1.1,2 c 1.667,2.867 4.3,4.3 7.9,4.3 4.733,0 7.667,-1.567 8.8,-4.7 L 18.4,0.05 0,0"
             style="fill:#ffe6e6;fill-opacity:1;fill-rule:nonzero;stroke:none"
             id="path242"
             inkscape:connector-curvature="0" /></g></g></g></g></svg>