<?xml version="1.0" encoding="UTF-8" standalone="no"?>
<!-- Created with Inkscape (http://www.inkscape.org/) -->

<svg
   xmlns:dc="http://purl.org/dc/elements/1.1/"
   xmlns:cc="http://creativecommons.org/ns#"
   xmlns:rdf="http://www.w3.org/1999/02/22-rdf-syntax-ns#"
   xmlns:svg="http://www.w3.org/2000/svg"
   xmlns="http://www.w3.org/2000/svg"
   xmlns:sodipodi="http://sodipodi.sourceforge.net/DTD/sodipodi-0.dtd"
   xmlns:inkscape="http://www.inkscape.org/namespaces/inkscape"
   version="1.1"
   id="svg10"
   xml:space="preserve"
   width="1280"
   height="746.66669"
   viewBox="0 0 1280 746.66669"
   sodipodi:docname="Marisa - old.svg"
   inkscape:version="0.92.4 (5da689c313, 2019-01-14)"><metadata
     id="metadata16"><rdf:RDF><cc:Work
         rdf:about=""><dc:format>image/svg+xml</dc:format><dc:type
           rdf:resource="http://purl.org/dc/dcmitype/StillImage" /><dc:title></dc:title></cc:Work></rdf:RDF></metadata><defs
     id="defs14"><clipPath
       clipPathUnits="userSpaceOnUse"
       id="clipPath26"><path
         d="M 0,560 H 960 V 0 H 0 Z"
         id="path24"
         inkscape:connector-curvature="0" /></clipPath><clipPath
       clipPathUnits="userSpaceOnUse"
       id="clipPath38"><path
         d="M 0,560 H 960 V 0 H 0 Z"
         id="path36"
         inkscape:connector-curvature="0" /></clipPath><clipPath
       clipPathUnits="userSpaceOnUse"
       id="clipPath50"><path
         d="M 0,560 H 960 V 0 H 0 Z"
         id="path48"
         inkscape:connector-curvature="0" /></clipPath><clipPath
       clipPathUnits="userSpaceOnUse"
       id="clipPath62"><path
         d="M 0,560 H 960 V 0 H 0 Z"
         id="path60"
         inkscape:connector-curvature="0" /></clipPath><clipPath
       clipPathUnits="userSpaceOnUse"
       id="clipPath86"><path
         d="M 0,560 H 960 V 0 H 0 Z"
         id="path84"
         inkscape:connector-curvature="0" /></clipPath><clipPath
       clipPathUnits="userSpaceOnUse"
       id="clipPath106"><path
         d="M 0,560 H 960 V 0 H 0 Z"
         id="path104"
         inkscape:connector-curvature="0" /></clipPath><clipPath
       clipPathUnits="userSpaceOnUse"
       id="clipPath122"><path
         d="M 0,560 H 960 V 0 H 0 Z"
         id="path120"
         inkscape:connector-curvature="0" /></clipPath><clipPath
       clipPathUnits="userSpaceOnUse"
       id="clipPath146"><path
         d="M 0,560 H 960 V 0 H 0 Z"
         id="path144"
         inkscape:connector-curvature="0" /></clipPath><clipPath
       clipPathUnits="userSpaceOnUse"
       id="clipPath162"><path
         d="M 0,560 H 960 V 0 H 0 Z"
         id="path160"
         inkscape:connector-curvature="0" /></clipPath></defs><sodipodi:namedview
     pagecolor="#ffffff"
     bordercolor="#666666"
     borderopacity="1"
     objecttolerance="10"
     gridtolerance="10"
     guidetolerance="10"
     inkscape:pageopacity="0"
     inkscape:pageshadow="2"
     inkscape:window-width="1920"
     inkscape:window-height="1001"
     id="namedview12"
     showgrid="false"
     inkscape:zoom="1.0821428"
     inkscape:cx="640"
     inkscape:cy="373.33334"
     inkscape:window-x="-9"
     inkscape:window-y="-9"
     inkscape:window-maximized="1"
     inkscape:current-layer="g18" /><g
     id="g18"
     inkscape:groupmode="layer"
     inkscape:label="Marisa - old"
     transform="matrix(1.3333333,0,0,-1.3333333,0,746.66667)"><g
       id="g20"><g
         id="g22"
         clip-path="url(#clipPath26)"><g
           id="g28"
           transform="translate(268.1787,373.4976)"><path
             d="M 0,0 C 5,-17.4 7.385,-30.25 7.15,-38.55 6.885,-47.183 7.5,-55.016 9,-62.049 c 1.5,-7 3.484,-12.217 5.951,-15.651 2.467,-3.433 3.401,-7.299 2.799,-11.599 -0.633,-4.299 -3.648,-8.618 -9.049,-12.95 -5.4,-4.334 -15.15,-9.933 -29.25,-16.8 -9.533,-4.666 -19.334,-8.467 -29.4,-11.401 -10.301,-3.033 -19.067,-4.549 -26.301,-4.549 -24.899,0 -41.366,4.75 -49.399,14.25 l -3.25,2.7 -2.851,2.201 c -3.366,2.699 -7.083,6.898 -11.149,12.599 -4.167,5.866 -6.934,12.133 -8.301,18.799 -1.4,6.668 -2.333,11.5 -2.8,14.5 -0.399,2.434 -0.6,6.817 -0.6,13.151 0,15.132 1.467,27.882 4.4,38.249 0.567,2.033 1.367,6.633 2.4,13.8 1.034,7.167 16.45,14.5 46.25,22 29.767,7.534 53.818,5.967 72.152,-4.7 7.732,-1.9 14.25,-4.366 19.548,-7.4 C -4.949,2.35 -1.666,0.634 0,0"
             style="fill:#fff1dd;fill-opacity:1;fill-rule:nonzero;stroke:none"
             id="path30"
             inkscape:connector-curvature="0" /></g></g></g><g
       id="g32"><g
         id="g34"
         clip-path="url(#clipPath38)"><g
           id="g40"
           transform="translate(269.3389,338.6494)"><path
             d="M 0,0 C 0.134,1.601 1.967,2.3 5.5,2.101 7.333,-0.166 8.267,-2.45 8.3,-4.75 l -0.15,-9.8 c -0.067,-3.8 0.05,-6.533 0.35,-8.2 0.233,-1.233 2.167,-6.133 5.8,-14.7 l 3.9,-9.75 c 0.866,-2.333 1.3,-3.8 1.3,-4.4 0,-5.633 -3.417,-11.716 -10.25,-18.25 -2.233,-2.133 -6.684,-5.566 -13.35,-10.299 -3.834,-2.434 -8.049,-4.801 -12.65,-7.101 -10.934,-5.5 -22.55,-9.866 -34.85,-13.1 -13.033,-3.433 -25.25,-5.15 -36.65,-5.15 -12.133,0 -23.667,3.5 -34.6,10.5 -2.9,1.867 -8.35,6.384 -16.35,13.55 -0.067,2 0.051,3.4 0.35,4.2 -0.667,2.033 -1,4.117 -1,6.25 0,1.233 0.416,2.233 1.25,3 0.734,0.667 1.567,1 2.5,1 5.767,-8.5 9.383,-13.633 10.85,-15.399 8.634,-10.234 24.55,-15.351 47.75,-15.351 7.167,0 15.934,1.517 26.3,4.55 10.033,2.933 19.834,6.733 29.4,11.4 9.967,4.866 17.95,9.85 23.95,14.95 6.567,5.6 9.85,10.633 9.85,15.1 0,0.8 -0.616,2.617 -1.85,5.45 L 6,-36.8 C 2,-26.733 0,-17.333 0,-8.6 V 0"
             style="fill:#000000;fill-opacity:1;fill-rule:nonzero;stroke:none"
             id="path42"
             inkscape:connector-curvature="0" /></g></g></g><g
       id="g44"><g
         id="g46"
         clip-path="url(#clipPath50)"><g
           id="g52"
           transform="translate(133.3887,174.7998)"><path
             d="M 0,0 C 0.334,0 0.65,-0.117 0.95,-0.351 1.217,-0.584 1.384,-0.884 1.45,-1.25 L 1.5,-1.5 C 1.567,-1.9 1.483,-2.283 1.25,-2.65 L 0.301,-3.25 0.2,-3.3 l -1,0.15 -0.7,0.75 -0.05,1 0.05,0.2 0.551,0.849 C -0.683,-0.117 -0.366,0 0,0 m -0.199,25.5 0.05,1.1 0.799,0.75 1.1,0.049 0.5,-0.199 C 2.517,27.1 2.733,26.933 2.9,26.7 L 3.25,25.95 3.101,25.149 3.051,25.05 C 2.851,24.683 2.551,24.433 2.15,24.3 l -1.099,0.099 -0.5,0.25 c -0.367,0.201 -0.617,0.484 -0.75,0.851 m 37.8,-28.601 -0.351,1.051 v 0.449 l 0.301,0.851 0.75,0.5 0.849,0.05 c 0.3,-0.1 0.55,-0.267 0.75,-0.5 l 0.25,-0.2 c 0.3,-0.201 0.5,-0.467 0.6,-0.8 0.101,-0.3 0.101,-0.617 0,-0.95 -0.1,-0.3 -0.3,-0.55 -0.6,-0.75 -0.299,-0.201 -0.617,-0.284 -0.95,-0.25 l -0.599,0.049 c -0.401,0.034 -0.734,0.201 -1,0.5 M 148.7,64.25 l 6.2,0.35 0.85,-0.15 0.601,-0.551 3.799,-5.25 c 3.234,-4.366 4.833,-8.132 4.8,-11.299 0,-5.934 -1.583,-11.333 -4.75,-16.201 l -0.7,-0.549 -0.949,-0.05 c -0.334,0.099 -0.601,0.283 -0.801,0.55 -0.199,0.266 -0.3,0.566 -0.3,0.9 0,15.666 -1.416,23.583 -4.25,23.75 -1.2,-0.101 -2.266,-1.05 -3.2,-2.851 -1.533,-2.932 -2.916,-4.649 -4.149,-5.149 l -1.101,-0.101 c -0.399,0.134 -0.683,0.368 -0.85,0.701 l -0.25,0.4 -0.2,0.75 c 0,1.899 0.55,5.616 1.651,11.149 l 0.049,2 0.151,0.851 0.599,0.6 0.8,0.2 2,-0.05 m 3.3,78.3 c 6.7,-13.734 10.017,-22.333 9.95,-25.8 0.101,-0.533 -0.783,-2.533 -2.649,-6 -1.5,-2.733 -2.284,-4.617 -2.351,-5.65 0.067,-1.234 0.817,-2.9 2.25,-5 1.834,-2.666 2.75,-5.75 2.75,-9.25 0.033,-2.567 -1.233,-5.517 -3.8,-8.85 l -1,-1.351 c -0.2,-0.233 -0.433,-0.399 -0.7,-0.5 L 155.551,80.1 148.7,80.75 141.65,80.149 140.9,80.2 c -0.266,0.067 -0.483,0.199 -0.65,0.4 l -0.649,0.65 c -2.034,1.899 -3,3.517 -2.901,4.85 l 0.75,3.299 v 0.051 c -0.066,0.3 -0.05,0.567 0.05,0.8 l 0.5,0.7 5.551,4.5 c 6.432,6.199 9.682,11.933 9.75,17.199 l -1.2,3.901 -3.851,9.65 c -3.733,8.767 -5.699,13.767 -5.899,15 -0.3,1.6 -0.434,4.116 -0.401,7.55 0,0.366 0.117,0.7 0.351,1 0.233,0.267 0.55,0.416 0.949,0.45 l 1,-0.2 2.851,-1.95 4.5,-3.1 0.549,-0.75 -0.049,-1 L 152,142.55 M 87.15,241.1 c 12.067,-2.666 28.55,-3.284 49.451,-1.85 l 1.049,-0.351 c 0.3,-0.233 0.484,-0.533 0.55,-0.899 0.067,-0.367 0,-0.717 -0.2,-1.05 -1.767,-2.766 -5.6,-6.75 -11.5,-11.95 l -6.149,-4.95 c 2,-0.567 4.166,-1.384 6.5,-2.45 6.733,-3.133 11.7,-7.6 14.899,-13.4 4.967,-8.933 8.45,-14.9 10.45,-17.9 1.734,-2.567 4.351,-9.083 7.851,-19.55 3.3,-9.867 4.932,-15.367 4.899,-16.5 l -0.25,-4.55 -0.5,-0.85 -0.899,-0.35 c -0.334,-0.033 -0.634,0.05 -0.901,0.25 -7.933,5.3 -14.45,9.399 -19.549,12.3 -0.267,0.134 -0.451,0.316 -0.55,0.55 -0.167,0.266 -0.234,0.533 -0.2,0.799 v 1.051 c -0.034,1 -0.234,1.966 -0.601,2.9 l -1.449,2.5 c -1.967,0.1 -3.051,-0.15 -3.25,-0.75 v -1.35 L 136.5,161.8 c -0.233,-0.267 -0.517,-0.45 -0.85,-0.55 l -1,0.149 c -7.266,3.568 -15.667,7.035 -25.2,10.401 h 0.05 c -3.033,1.033 -11.683,3.217 -25.949,6.55 -11.367,2.667 -17.717,5 -19.051,7 l -8.1,9.299 c -4.266,4.568 -7,6.934 -8.2,7.101 -0.933,0 -1.633,-0.167 -2.099,-0.5 L 45.95,199 c 0,-0.4 -0.149,-0.75 -0.45,-1.05 -0.3,-0.301 -0.649,-0.45 -1.05,-0.45 H 42.2 l -0.75,0.2 -0.55,0.55 -0.2,0.75 c 0.067,3.733 -0.016,7.166 -0.25,10.3 -0.667,9.433 -2.417,14.25 -5.25,14.45 H 35 c -1.366,-0.134 -2.05,-1.101 -2.05,-2.9 l 3,-27.201 V 193.5 c 0,-11.601 -2.399,-22.95 -7.2,-34.05 -5.833,-13.4 -14.383,-24.233 -25.649,-32.5 l -0.05,-0.051 -0.2,-0.149 -1.05,-0.25 c -0.401,0.033 -0.717,0.2 -0.95,0.5 -0.267,0.3 -0.401,0.633 -0.401,1 v 0.5 l 0.05,0.3 c 1.301,5.9 1.95,10.667 1.95,14.3 0,6.633 -0.483,12.4 -1.45,17.299 -1.033,5.068 -1.55,13.551 -1.55,25.451 l -0.05,12.1 V 198 c 0.133,5.033 0.684,9.017 1.651,11.95 2.633,8.366 6.449,14.783 11.449,19.25 2.101,1.9 4.017,3.25 5.75,4.05 -0.399,1 -1.416,1.5 -3.05,1.5 -2.3,0 -4.399,-0.45 -6.3,-1.351 C 4.101,231.066 0.517,225.934 -1.85,218 l -1.45,-6.05 c -1,-5 -1.599,-10.617 -1.8,-16.85 v -0.05 L -5.05,186 c 0,-4.101 0.5,-11.434 1.5,-22 1,-10.7 1.5,-17.75 1.5,-21.15 0.033,-4.567 -1.333,-9.984 -4.099,-16.25 l -3.901,-9.25 -0.05,-0.451 -0.2,-1.399 c 0.234,-0.834 1.234,-1.25 3,-1.25 3.667,0.033 7.45,1.333 11.351,3.899 0.266,0.201 0.566,0.285 0.899,0.25 l 0.851,-0.299 0.55,-0.75 c 0.533,-1.8 1.599,-3.784 3.2,-5.951 2.899,-3.899 4.283,-6.283 4.149,-7.149 0.134,-0.934 -0.783,-2.334 -2.75,-4.2 L 10.9,100 5.9,95.55 2.9,92.5 C 2.667,92.267 2.417,92.116 2.15,92.05 l -0.9,0.05 -0.75,0.549 -2,2.951 -0.8,-0.451 h 0.05 c -0.533,-0.5 -0.8,-1.132 -0.8,-1.899 0,-1.967 0.317,-3.884 0.95,-5.75 0.1,-0.334 0.083,-0.684 -0.049,-1.05 -0.201,-0.6 -0.284,-1.584 -0.25,-2.95 L -1.6,82.75 -1.199,82.149 -0.3,81.399 0.25,81.1 c 6.2,-5.467 10.533,-9 13,-10.6 10.667,-6.834 21.934,-10.25 33.801,-10.25 l 5.699,0.149 c 9.634,0.467 19.834,2.118 30.601,4.951 12.166,3.2 23.682,7.533 34.549,13 4.401,2.2 8.434,4.466 12.1,6.799 l 0.9,0.201 0.901,-0.35 0.5,-0.8 c 0.233,-1.134 0.583,-2.233 1.05,-3.301 0.666,-1.599 1.516,-2.799 2.549,-3.599 l 0.451,-0.55 0.149,-0.65 0.051,-0.951 0.399,-2.899 -0.099,-0.55 c -0.534,-1.301 -0.534,-2.534 0,-3.7 0.433,-0.867 1.166,-1.566 2.2,-2.101 l 0.75,-0.849 c 0.099,-0.366 0.066,-0.734 -0.101,-1.1 -0.366,-0.801 -0.616,-1.834 -0.75,-3.1 v -4.1 c 0,-0.434 -0.149,-0.8 -0.45,-1.101 -0.3,-0.266 -0.649,-0.399 -1.05,-0.399 -0.433,0 -0.783,0.149 -1.05,0.45 -3.2,3.233 -5.599,4.916 -7.2,5.05 -2.366,-0.2 -4.2,-6.184 -5.5,-17.95 -0.033,-0.367 -0.183,-0.667 -0.45,-0.901 -0.3,-0.266 -0.633,-0.399 -1,-0.399 -0.366,0 -0.683,0.1 -0.949,0.3 -0.568,0.433 -2,2.233 -4.301,5.4 l 0.101,-0.1 c -2.068,2.367 -4.034,3.583 -5.901,3.65 -0.7,-0.134 -1.766,-0.95 -3.2,-2.45 l 0.051,0.05 -3.051,-3.4 c -0.233,-0.233 -0.5,-0.384 -0.8,-0.45 l -0.95,0.149 c -0.3,0.167 -0.517,0.401 -0.649,0.701 l -1.8,3.4 c -1.068,1.333 -2.434,2 -4.101,2 -0.766,-0.2 -2.167,-1.8 -4.2,-4.8 -2.3,-3.334 -3.483,-5.817 -3.55,-7.45 V 38.1 37.649 C 88.95,37.25 88.817,36.899 88.551,36.6 88.25,36.333 87.9,36.183 87.5,36.149 c -0.433,0 -0.8,0.151 -1.1,0.451 L 86,37 85.95,37.05 C 78.783,43.983 75.2,47.55 75.2,47.75 73.334,47.649 71.817,46.399 70.65,44 l -1.7,-4.05 c -0.766,-1.767 -1.533,-3.15 -2.3,-4.15 -0.266,-0.3 -0.599,-0.484 -1,-0.55 -0.433,-0.033 -0.799,0.066 -1.099,0.3 -0.667,0.467 -2.801,3.099 -6.401,7.9 -2.5,3.333 -4.15,5.1 -4.95,5.3 -1.467,-0.167 -3.5,-2.317 -6.099,-6.45 L 41,32.95 c -0.3,-0.301 -0.649,-0.45 -1.05,-0.45 -0.399,0 -0.75,0.149 -1.05,0.45 l -5.4,7.8 c -2.133,3.166 -3.733,4.833 -4.8,5 -0.599,-0.2 -4.383,-3.967 -11.349,-11.3 -0.3,-0.301 -0.651,-0.467 -1.05,-0.5 -0.434,0 -0.784,0.15 -1.051,0.449 l -3.05,2.851 -0.25,0.35 -0.599,0.95 c -0.201,0.3 -0.267,0.616 -0.201,0.95 l 0.401,0.899 0.899,0.951 c -0.099,1.6 -1.183,2.4 -3.25,2.4 C 6.4,43.717 3.9,42.55 1.7,40.25 -0.767,37.083 -2.616,35.1 -3.85,34.3 L -4,34.2 -4.6,34 h -0.2 l -0.75,0.2 -0.599,0.6 -0.25,0.5 -0.151,0.7 -0.099,10.7 c -0.5,4.533 -1.884,6.883 -4.151,7.05 -3.7,0 -7.417,-0.834 -11.149,-2.5 L -23,51.2 c -0.366,0.1 -0.649,0.317 -0.85,0.65 -0.2,0.333 -0.266,0.683 -0.2,1.049 1.101,5.868 1.984,14.667 2.651,26.401 0.599,11.599 0.932,23.599 1,36 v 1.05 c 0,14.033 -0.818,25.834 -2.451,35.4 -1.7,9.733 -2.549,17.434 -2.549,23.1 0,19.533 4.033,35.2 12.099,47 5.067,7.4 11.583,13.033 19.55,16.9 8.4,4.1 18.434,6.184 30.101,6.25 l 0.849,-0.3 0.55,-0.75 c 0.101,-0.301 0.101,-0.617 0,-0.95 -0.1,-0.3 -0.283,-0.55 -0.55,-0.75 l -4.149,-3.45 v 0.05 c -1.268,-1.267 -1.967,-2.133 -2.101,-2.6 0.101,-1.334 1.017,-2 2.75,-2 0.401,0.066 1.351,0.583 2.851,1.55 l 6.399,4 c 6.967,4 13.5,5.983 19.601,5.95 4.033,0 8.216,-0.533 12.55,-1.601 L 87.2,241.1 h -0.05"
             style="fill:#ffff6f;fill-opacity:1;fill-rule:nonzero;stroke:none"
             id="path54"
             inkscape:connector-curvature="0" /></g></g></g><g
       id="g56"><g
         id="g58"
         clip-path="url(#clipPath62)"><g
           id="g64"
           transform="translate(280.167,235.25)"><path
             d="m 0,0 c -1.1,-5.434 -1.65,-9.084 -1.65,-10.95 v -0.5 l 0.25,0.099 c 1,0.5 2.15,2 3.451,4.5 1.265,2.434 2.783,3.651 4.549,3.651 3.834,0 5.75,-8.417 5.75,-25.25 3,4.599 4.5,9.717 4.5,15.349 0,2.901 -1.5,6.368 -4.5,10.401 L 8.5,2.649 2.1,2.3 0.051,2.35 0,0 M 7.201,14.05 H -3.65 V 13.8 C -4.684,13.8 -5,13.267 -4.6,12.199 l 0.95,-2.149 5.75,0.2 c 3.834,0.233 5.75,0.5 5.75,0.8 v 1.5 l 0.25,0.349 c -0.399,0.3 -0.7,0.684 -0.899,1.151 m -10,67 C -2.566,79.816 -0.633,74.916 3,66.35 L 6.9,56.6 c 0.868,-2.333 1.301,-3.8 1.301,-4.401 0,-5.633 -3.418,-11.716 -10.25,-18.25 L -7.699,29.3 -7.65,28.85 -8.4,25.649 c 0,-1 0.8,-2.25 2.4,-3.75 l 0.75,-0.75 7.35,0.651 7.201,-0.7 1.049,1.4 c 2.334,2.966 3.5,5.6 3.5,7.899 0,3.167 -0.832,5.967 -2.5,8.401 -1.666,2.433 -2.5,4.383 -2.5,5.849 0,1.201 0.834,3.334 2.5,6.401 1.668,3.066 2.5,4.816 2.5,5.25 0,3.399 -3.332,11.899 -10,25.5 l 0.25,1.5 -4.45,3.099 -2.8,1.901 c -0.034,-3.3 0.084,-5.717 0.351,-7.25 m -81.25,102.75 c -5.868,0 -12.151,-1.917 -18.851,-5.75 l -6.35,-3.95 c -1.867,-1.201 -3.083,-1.8 -3.65,-1.8 -2.833,0 -4.25,1.166 -4.25,3.5 0,0.733 0.851,1.95 2.55,3.649 l 4.35,3.601 c -11.433,-0.067 -21.25,-2.101 -29.45,-6.101 -7.7,-3.733 -14.016,-9.199 -18.95,-16.399 -7.899,-11.601 -11.85,-26.984 -11.85,-46.151 0,-5.599 0.833,-13.216 2.5,-22.849 1.667,-9.634 2.5,-21.517 2.5,-35.651 V 54.85 c -0.067,-12.434 -0.4,-24.451 -1,-36.05 -0.667,-11.834 -1.549,-20.717 -2.65,-26.651 3.934,1.767 7.851,2.651 11.75,2.651 3.134,0 5.017,-2.783 5.65,-8.351 l 0.1,-10.899 0.25,-0.5 0.05,0.05 h 0.051 c 1.166,0.766 2.899,2.65 5.199,5.65 2.533,2.699 5.433,4.05 8.7,4.05 3.167,0 4.75,-1.3 4.75,-3.901 0,-0.399 -0.433,-1.066 -1.3,-2 l 0.6,-1 1.6,-3.25 0.35,-0.75 1.05,1.101 c 7.467,7.866 11.617,11.8 12.45,11.8 1.5,0 3.517,-1.884 6.05,-5.651 l 5.2,-7.599 5.851,9.099 c 3.033,4.767 5.5,7.151 7.399,7.151 1.167,0 3.217,-1.967 6.15,-5.901 3.467,-4.599 5.5,-7.132 6.1,-7.599 0.7,0.899 1.4,2.166 2.101,3.8 l 1.75,4.099 c 1.465,3.068 3.432,4.601 5.899,4.601 l 11.851,-11.151 0.399,-0.45 v 0.45 0.401 c 0,1.833 1.267,4.599 3.8,8.3 2.467,3.632 4.284,5.45 5.45,5.45 2.168,0 3.918,-0.851 5.25,-2.55 l 2,-3.7 2.951,3.349 c 1.865,1.934 3.299,2.901 4.299,2.901 2.267,0 4.601,-1.384 7,-4.151 2.168,-3 3.5,-4.7 4,-5.099 1.433,12.833 3.767,19.25 7,19.25 1.9,0 4.65,-1.834 8.25,-5.5 v 4.3 c 0.168,1.433 0.466,2.599 0.9,3.5 -1.334,0.733 -2.283,1.667 -2.85,2.799 -0.734,1.534 -0.75,3.167 -0.05,4.901 l -0.399,2.7 -0.051,1.149 c -1.199,0.934 -2.216,2.334 -3.05,4.201 -0.5,1.167 -0.883,2.349 -1.149,3.549 C -19.5,21.066 -23.584,18.783 -28.049,16.55 -38.982,11.05 -50.6,6.683 -62.9,3.449 c -10.866,-2.866 -21.167,-4.533 -30.899,-5 l -5.75,-0.149 c -12.134,0 -23.667,3.5 -34.601,10.5 -2.5,1.599 -6.899,5.183 -13.2,10.75 -0.933,0.3 -1.55,0.849 -1.85,1.649 l -1.3,1.151 c -0.067,2 0.05,3.4 0.35,4.2 -0.667,2.033 -1,4.116 -1,6.25 0,1.233 0.417,2.233 1.25,3 0.733,0.666 1.567,1 2.5,1 l 2.55,-3.75 3.1,3.149 5.05,4.5 c 1.533,1.434 2.3,2.467 2.3,3.101 0,0.7 -1.283,2.783 -3.85,6.25 -1.733,2.366 -2.883,4.5 -3.45,6.399 -4.2,-2.766 -8.266,-4.149 -12.2,-4.149 -2.8,0 -4.3,0.849 -4.5,2.55 l 0.25,2.049 c 0,0.534 1.333,3.817 4,9.851 2.667,6.033 4,11.25 4,15.649 0,3.368 -0.5,10.368 -1.5,21 -1,10.634 -1.5,18.017 -1.5,22.151 l -0.05,9.099 c 0.2,6.334 0.8,12.05 1.8,17.151 l 1.5,6.149 c 2.533,8.467 6.384,13.917 11.55,16.351 2.1,1 4.417,1.5 6.95,1.5 3.167,0 4.75,-1.3 4.75,-3.901 -1.899,-0.666 -4.05,-2.083 -6.45,-4.25 -4.8,-4.333 -8.483,-10.533 -11.05,-18.599 -0.899,-2.834 -1.417,-6.684 -1.55,-11.55 l 0.05,-12.101 c 0,-11.766 0.5,-20.149 1.5,-25.149 1,-5 1.5,-10.867 1.5,-17.601 0,-3.733 -0.667,-8.599 -2,-14.599 v -0.5 l 0.25,0.149 c 11.067,8.134 19.45,18.767 25.15,31.901 4.734,10.9 7.1,22.049 7.1,33.45 l -3,27.349 c 0,2.834 1.167,4.3 3.5,4.401 h 0.25 c 3.767,0 6.017,-5.283 6.75,-15.851 0.233,-3.166 0.317,-6.633 0.25,-10.399 l -0.05,-0.601 -0.2,-5.149 c 0,-7.101 -1.45,-15.317 -4.35,-24.651 -2.867,-9.2 -6.667,-17.983 -11.4,-26.349 -4.967,-8.7 -10.2,-15.634 -15.7,-20.8 l 13.45,-17.95 c 0,-1.267 -1.816,-2.95 -5.45,-5.05 -4.833,-2.767 -8.1,-5 -9.8,-6.7 l -2.25,-5 3.601,-4.901 C -127.917,11.166 -112,6.05 -88.799,6.05 c 7.166,0 15.932,1.516 26.299,4.55 10.033,2.933 19.834,6.733 29.4,11.4 9.967,4.866 17.95,9.85 23.95,14.949 6.566,5.601 9.851,10.634 9.851,15.101 0,0.8 -0.617,2.616 -1.851,5.45 L -5.299,67 c -3.734,9.433 -5.717,18.267 -5.951,26.5 -10.299,6.3 -18.016,9.733 -23.15,10.3 -14.366,1.533 -29.45,6.599 -45.25,15.2 -6.667,3.633 -12.066,7.233 -16.2,10.8 -4.199,3.599 -6.3,6.516 -6.3,8.75 l 0.25,3 c 0.667,0.833 1.833,1.25 3.5,1.25 1.467,0 4.567,-2.517 9.3,-7.55 3.367,-3.601 6.1,-6.75 8.2,-9.45 1.333,-1.767 7.4,-3.917 18.201,-6.45 14.332,-3.333 23.015,-5.517 26.049,-6.55 9.601,-3.401 18.05,-6.901 25.351,-10.5 v 1.5 c 0.133,1.599 1.965,2.3 5.5,2.099 0.899,-1.132 1.6,-2.266 2.1,-3.399 0.433,-1.134 0.666,-2.284 0.699,-3.45 V 97.899 C 2.133,94.966 8.666,90.85 16.6,85.55 l 0.25,4.25 c 0,1.099 -1.616,6.45 -4.85,16.05 -3.434,10.266 -5.982,16.667 -7.65,19.2 -2,3 -5.5,9 -10.5,18 -3.067,5.5 -7.817,9.75 -14.25,12.75 -3.233,1.467 -6.149,2.467 -8.75,3 l 8.05,6.899 c 5.766,5.034 9.5,8.901 11.2,11.601 -21.067,-1.434 -37.7,-0.8 -49.899,1.899 l -12.051,3.051 c -4.199,1.033 -8.267,1.55 -12.199,1.55 M -5,171.3 c -4.533,-5.767 -7.834,-9.351 -9.9,-10.75 13.5,-10.834 23.834,-24.434 31,-40.8 6.168,-14.101 9.25,-28.25 9.25,-42.45 L 25.1,72.8 c -0.467,-1.667 -1.633,-2.5 -3.5,-2.5 l -4.2,3.25 0.75,-2.3 c 0.934,-3.067 1.733,-6.434 2.401,-10.101 l 0.799,-4.75 c 0,-0.933 -0.616,-3.216 -1.85,-6.849 l -1.9,-5.151 c 0,-0.233 1.25,-4.983 3.75,-14.25 C 21.35,27.55 20.434,24.183 18.6,20.05 17.734,18.083 16.816,16.5 15.85,15.3 L 15.801,13.6 15.35,11.899 c 0.5,-1.933 0.683,-3.516 0.55,-4.75 3.834,-1.266 6.401,-4.466 7.7,-9.599 0.533,-2.134 0.816,-4.5 0.851,-7.101 L 24.35,-12.95 c 0,-4.8 -1.75,-11.283 -5.25,-19.45 -3.799,-8.868 -7.299,-13.3 -10.5,-13.3 -1,0 -1.684,0.116 -2.049,0.349 L 5.1,-44.45 c -0.332,8.432 -0.766,14.733 -1.299,18.899 L 3.35,-22.7 3.25,-25.5 v -0.051 l -0.049,-0.05 C 2.734,-27 1.533,-27.7 -0.4,-27.7 c -3.5,0 -6,3.432 -7.5,10.3 l -0.549,3 c -0.967,0.366 -1.918,1.066 -2.85,2.099 -1.5,1.667 -2.867,2.533 -4.101,2.601 -0.866,-14.667 -3.034,-22 -6.5,-22 -1.733,0 -4.149,2.05 -7.25,6.149 l -5.75,7.851 c -0.299,-0.3 -1,-2.434 -2.1,-6.401 -0.867,-3.066 -2.5,-4.599 -4.9,-4.599 -2.832,0 -4.7,1.316 -5.6,3.95 l -0.85,3.35 c -0.3,1.366 -0.65,2.349 -1.05,2.95 -0.467,-2.101 -0.983,-3.851 -1.549,-5.25 -0.801,-1.967 -1.817,-3.217 -3.051,-3.75 l -0.25,-0.101 0.6,-0.55 c 0,-2.399 -1.582,-3.599 -4.75,-3.599 -1.467,0 -3.799,1.316 -7,3.95 -1.633,1.3 -3.133,2.649 -4.5,4.05 -0.6,-0.601 -2.116,-3.283 -4.549,-8.05 -2.067,-3.967 -3.717,-5.95 -4.951,-5.95 -2.066,0 -4.566,2.116 -7.5,6.349 -1.6,2.267 -3.517,5.317 -5.75,9.151 l -5.399,-8.851 c -3.234,-5.099 -5.518,-7.649 -6.851,-7.649 -1.8,0 -4.383,2.033 -7.75,6.099 -2.667,3.234 -4.833,6.368 -6.5,9.401 -1.667,-2.334 -3.366,-4.517 -5.1,-6.55 -1.9,-2.2 -3.583,-3.784 -5.049,-4.75 -0.201,-0.434 -0.484,-0.817 -0.851,-1.15 -0.7,-0.634 -1.483,-0.951 -2.35,-0.951 -3.567,0 -6.083,3.434 -7.549,10.3 l -3.551,-2.649 -3.8,-2.75 v -0.05 c -4.6,-3.301 -7.1,-4.95 -7.5,-4.95 -2.8,0 -4.5,2.866 -5.1,8.599 l -0.15,13.651 -0.25,0.75 -0.05,-0.05 c -0.833,-0.5 -2.983,-1.134 -6.45,-1.9 l -5.35,-1.05 h -0.75 -0.25 c -1.299,0 -2.266,0.3 -2.9,0.899 l -0.649,0.7 -0.101,0.351 c -0.433,1 -0.467,2.383 -0.1,4.149 0,8.401 0.667,18.984 2,31.75 1.333,12.767 2,24.434 2,35 0,11.334 -0.833,22.384 -2.5,33.151 -1.667,10.766 -2.5,18.967 -2.5,24.599 0,3.401 0.467,8.034 1.4,13.901 1.5,9.599 3.867,18.349 7.1,26.25 10.034,24.5 26.4,36.75 49.1,36.75 8.8,0 14.55,-0.917 17.25,-2.75 l 0.601,-0.45 c 5.799,2.799 11.682,4.2 17.649,4.2 6.167,0 13.134,-1.134 20.9,-3.401 7.801,-2.233 12.916,-3.349 15.35,-3.349 27.634,0 42.5,0.616 44.601,1.849 0.365,0.234 0.166,0.667 -0.601,1.3 -0.467,0.401 0.451,0.601 2.75,0.601 3.334,0 4.75,-1.55 4.25,-4.651 C 2.35,181.883 -0.1,177.6 -5,171.3"
             style="fill:#000000;fill-opacity:1;fill-rule:nonzero;stroke:none"
             id="path66"
             inkscape:connector-curvature="0" /></g><g
           id="g68"
           transform="translate(284.2666,339.3496)"><path
             d="M 0,0 -0.398,0.2 Z"
             style="fill:#eb585a;fill-opacity:1;fill-rule:nonzero;stroke:none"
             id="path70"
             inkscape:connector-curvature="0" /></g><g
           id="g72"
           transform="translate(135.2671,200.5498)"><path
             d="M 0,0 -0.5,0.25 0.05,0.05 0,0 m -1.75,-27.25 0.05,-0.3 h -0.1 l 0.05,0.3 m 38.8,-0.601 v 0.451 l 0.6,-0.5 z"
             style="fill:#ff1111;fill-opacity:1;fill-rule:nonzero;stroke:none"
             id="path74"
             inkscape:connector-curvature="0" /></g><g
           id="g76"
           transform="translate(287.3682,249.2998)"><path
             d="M 0,0 C 0.199,-0.467 0.5,-0.851 0.898,-1.15 L 0.648,-1.5 V -3 c 0,-0.3 -1.916,-0.566 -5.75,-0.8 l -5.75,-0.2 -0.949,2.149 c -0.4,1.068 -0.084,1.601 0.949,1.601 V 0 H 0"
             style="fill:#dd0000;fill-opacity:1;fill-rule:nonzero;stroke:none"
             id="path78"
             inkscape:connector-curvature="0" /></g></g></g><g
       id="g80"><g
         id="g82"
         clip-path="url(#clipPath86)"><g
           id="g88"
           transform="translate(157.0054,219.1006)"><path
             d="m 0,0 0.15,-0.051 -4.1,-19.3 c -2.8,3.1 -4.199,5.701 -4.199,7.8 L 0,0 m 56.4,-21.15 -0.6,1.95 0.151,1.05 -0.651,0.7 -3.3,11.2 -3.6,12.149 5.201,-7 10.1,-12.95 c 0,-0.766 -1.534,-2.349 -4.6,-4.75 L 56.4,-21.15"
             style="fill:#ffffff;fill-opacity:1;fill-rule:nonzero;stroke:none"
             id="path90"
             inkscape:connector-curvature="0" /></g><g
           id="g92"
           transform="translate(144.106,152.75)"><path
             d="m 0,0 c 2,-0.267 3,-1.666 3,-4.2 0,-1.567 -0.317,-2.567 -0.95,-3 -1.2,-0.833 -3.967,-1.25 -8.3,-1.25 -5.634,0 -9.034,1.284 -10.2,3.85 -0.367,0.833 -0.484,1.75 -0.351,2.75 l 0.301,1.4 c 0,0.634 0.699,3.5 2.1,8.6 1.633,5.833 3.349,11.467 5.15,16.9 3.399,10.1 6.316,17.016 8.75,20.75 -0.867,1.9 -1.617,3.95 -2.25,6.15 L -3.5,55.2 c 0,1.167 6.916,11.449 20.75,30.85 2.5,0 3.75,-1.416 3.75,-4.25 0,-2.3 -2.684,-7.434 -8.051,-15.401 L 12.899,66.351 4.75,54.8 c 0,-2.1 1.399,-4.7 4.199,-7.8 l 0.95,-1 C 13.3,42.467 15,40.4 15,39.8 15,36.967 13.75,35.55 11.25,35.55 9.716,35.55 8.267,35.9 6.899,36.6 L 4.8,38.05 -0.15,25.45 C -5.217,12.85 -8.167,4.3 -9,-0.2 v -0.5 h 0.05 L -0.75,0.05 0,0 M 61.299,72.25 C 58,76.884 56.35,79.866 56.35,81.2 c 0,3.233 1.25,4.85 3.75,4.85 1.6,0 6.199,-5.467 13.799,-16.401 C 81.2,59.116 84.85,53.55 84.85,52.95 c 0,-1.567 -1.1,-4 -3.301,-7.3 2.6,-3.5 5.717,-9.716 9.35,-18.65 2.967,-7.367 5.617,-14.8 7.951,-22.3 L 99,1.2 C 98.965,-0.033 98.667,-1 98.1,-1.7 96.633,-3.533 92.465,-4.45 85.6,-4.45 c -2.834,0 -4.25,1.167 -4.25,3.5 0,1.733 1.217,3.083 3.65,4.05 1.567,0.633 3.682,1.117 6.35,1.45 C 90.616,7.95 87.366,15.434 81.6,27 l -6.051,12.45 c -1.132,-0.6 -2.283,-0.9 -3.449,-0.9 h -0.75 c -2.668,0.2 -4,1.366 -4,3.5 0,0.833 0.65,1.884 1.949,3.15 L 72,47.55 c 3.067,2.4 4.6,3.983 4.6,4.75 l -10.1,12.95 -5.201,7"
             style="fill:#000000;fill-opacity:1;fill-rule:nonzero;stroke:none"
             id="path94"
             inkscape:connector-curvature="0" /></g><g
           id="g96"
           transform="translate(151.0054,189.3496)"><path
             d="m 0,0 -3.399,-17.8 -3.5,-18.8 -0.75,0.05 -8.201,-0.75 -0.049,0.5 c 0.833,4.5 3.783,13.05 8.849,25.651 L -2.1,1.45 0,0 m 78.101,-33.5 -0.701,1.351 c -3.1,6.333 -5.584,12.033 -7.449,17.099 -1.301,3.568 -3.118,9.151 -5.451,16.75 l 0.701,0.25 c 1.166,0 2.316,0.3 3.449,0.901 L 74.701,-9.6 c 5.765,-11.566 9.015,-19.049 9.75,-22.45 -2.668,-0.333 -4.784,-0.816 -6.35,-1.45"
             style="fill:#fff1dd;fill-opacity:1;fill-rule:nonzero;stroke:none"
             id="path98"
             inkscape:connector-curvature="0" /></g></g></g><g
       id="g100"><g
         id="g102"
         clip-path="url(#clipPath106)"><g
           id="g108"
           transform="translate(157.8203,88.4502)"><path
             d="M 0,0 C -4.034,0 -6.3,2.083 -6.8,6.25 V 6.399 L 6.2,6.1 C 6.1,4.3 5.767,2.967 5.2,2.1 4.267,0.7 2.533,0 0,0 M 60.05,7.55 69.35,9 C 69.384,6.733 69.3,5.2 69.1,4.399 68.733,2.8 67.767,2 66.2,2 c -3.367,0 -5.367,1.583 -6,4.75 l -0.15,0.8"
             style="fill:#666766;fill-opacity:1;fill-rule:nonzero;stroke:none"
             id="path110"
             inkscape:connector-curvature="0" /></g><g
           id="g112"
           transform="translate(163.9697,95.25)"><path
             d="m 0,0 c 0.066,2.434 0.217,3.967 0.45,4.6 0.5,1.433 1.667,2.15 3.5,2.15 1.7,0 2.866,-0.65 3.5,-1.95 0.601,-1.267 0.7,-3.166 0.3,-5.7 0,-2.133 -1.083,-4.784 -3.25,-7.95 -2.766,-4 -6.116,-6 -10.05,-6 -7.099,0 -11.783,2.5 -14.05,7.5 -1.133,2.534 -1.549,5.05 -1.25,7.55 0,3.7 1.267,5.55 3.8,5.55 1.7,0 2.834,-0.667 3.401,-2 l 0.5,-2.25 0.5,-1.2 c 0.266,-0.267 0.783,-1.283 1.549,-3.05 0.734,-1.767 2.367,-2.883 4.901,-3.35 2.533,-0.433 4.265,0.034 5.199,1.4 0.301,0.5 0.551,1.117 0.75,1.85 L 0,-1.6 0.15,0.35 0,0 m 70.75,0.85 c 0,-3.933 -0.232,-6.583 -0.699,-7.95 -1.367,-3.834 -4.567,-5.75 -9.601,-5.75 -6,0 -10.333,2.284 -13,6.85 -0.866,1.5 -1.5,3.117 -1.899,4.85 L 45.15,1.2 c 0,0.833 0.35,1.583 1.05,2.25 0.8,0.866 1.884,1.3 3.25,1.3 1.734,0 2.95,-0.517 3.651,-1.55 l 0.7,-2.1 0.3,-1.1 0.049,-0.3 c 0.701,-2.967 2.666,-4.45 5.901,-4.45 1.533,0 2.482,0.783 2.849,2.35 0.201,0.8 0.284,2.334 0.25,4.6 v 0.05 l -0.049,0.7 c -0.068,2.533 0.049,4.317 0.349,5.35 0.534,1.634 1.7,2.45 3.5,2.45 1.7,0 2.866,-0.833 3.5,-2.5 0.601,-1.633 0.7,-4.1 0.3,-7.4"
             style="fill:#000000;fill-opacity:1;fill-rule:nonzero;stroke:none"
             id="path114"
             inkscape:connector-curvature="0" /></g></g></g><g
       id="g116"><g
         id="g118"
         clip-path="url(#clipPath122)"><g
           id="g124"
           transform="translate(179.7183,118.7002)"><path
             d="m 0,0 c 0.5,-1.5 1.066,-2.566 1.699,-3.2 h 6.5 c 0.268,0.767 0.434,2.117 0.5,4.051 C 5.366,1.05 2.233,1.567 -0.7,2.4 L 0,0 m -10.351,6.9 c -3,2 -5.733,4.484 -8.2,7.451 V 4.8 l 0.7,-0.65 c 0.234,-0.4 0.834,-0.6 1.8,-0.6 2.334,0 4.117,0.95 5.351,2.85 l 0.349,0.5 m -19.2,22.201 2.5,-0.351 -1.8,4.75 -0.7,-4.399 M -1.9,114.25 -2.551,104.801 h 10.5 L 8.05,114.6 -0.051,114.35 H -1.9 v -0.1 M 56.699,-4.55 56.8,-3.7 c 0,1.066 -0.533,3.267 -1.601,6.6 -0.533,-3.534 -1.699,-5.567 -3.5,-6.1 -9.166,-2.567 -14.533,-3.266 -16.1,-2.1 0.334,1.401 0.201,1.684 -0.4,0.85 l -0.25,-0.449 -2,-2.551 c -2.699,-2.5 -5.616,-3.75 -8.75,-3.75 -2.366,0 -4.1,0.45 -5.199,1.35 -1.133,0.933 -2.067,1.4 -2.801,1.4 -0.633,0 -1.016,-0.15 -1.149,-0.449 L 14.599,-9.85 c -0.832,-0.9 -3.799,-1.35 -8.9,-1.35 -5.732,0 -9.616,1.2 -11.649,3.6 -1,1.201 -1.533,2.5 -1.601,3.9 -13.566,0.734 -20.699,3.667 -21.399,8.801 -0.2,1.566 0.217,3.849 1.25,6.849 1.099,3.234 1.649,5.434 1.649,6.6 L -30.9,19.351 -30.95,19 -31,19.05 -31.65,14.351 -32.551,8.5 c -1.932,-11.167 -3.833,-18.7 -5.699,-22.6 h 0.05 l 2.75,-0.6 c 8.066,-1.166 30.883,-1.75 68.45,-1.75 6.966,1.234 12.066,2.734 15.3,4.5 5,2.7 7.799,5.15 8.399,7.35 v 0.05 M 18.199,1 h -0.1 l 0.1,-0.1 c 3.068,-2.9 4.984,-4.35 5.75,-4.35 1.168,0 2.334,0.816 3.5,2.45 l 2.4,3.75 C 26.382,1.884 22.5,1.3 18.199,1 M 47.15,13.3 46.9,13.75 46.449,13.05 C 44.517,10.116 41.767,7.7 38.199,5.8 l 1.25,-1 h 8.5 v 6.75 L 47.15,13.3 M 38.75,48 C 33.617,47.2 18.767,46.8 -5.801,46.8 L -18,47.15 l -6.25,0.3 0.35,-1.099 C -21.233,37.55 -19.601,32.45 -19,31.05 -13,16.217 -2.767,8.8 11.699,8.8 c 17.967,0 27.9,5.417 29.801,16.25 0.466,2.7 0.632,6.417 0.5,11.15 L 42.199,37.8 38.75,48 m -23.901,67.25 c 0.701,-3 1.234,-7.367 1.6,-13.1 l 0.201,-1.55 c 0.033,-0.733 -0.217,-1.333 -0.75,-1.799 -1.533,-1.334 -5.767,-2 -12.701,-2 -7.333,0 -11.732,1.932 -13.199,5.799 -0.767,1.933 -0.783,3.917 -0.051,5.951 -0.266,2.666 -0.3,4.866 -0.099,6.599 l -3.401,0.7 c -0.133,-3.4 -2.383,-16.217 -6.75,-38.45 l 0.2,0.1 L -25.2,55 c 5.3,0.2 15.433,0.3 30.399,0.3 15.168,0 25.617,-0.25 31.351,-0.75 -12.3,36.766 -18.533,57.134 -18.701,61.1 l -3,-0.4 m 21.75,4.25 c -4.433,-1.166 -8.783,-2.15 -13.049,-2.949 L 29.349,97.35 33.199,84.601 33.15,84.4 c 3.666,-12.233 6.383,-20.766 8.15,-25.6 1.866,-5.067 4.35,-10.766 7.45,-17.1 l 7.5,-15.099 C 61.617,15.233 64.3,5.101 64.3,-3.8 c 0,-3.867 -0.3,-6.599 -0.9,-8.2 -1,-2.7 -3.184,-4.85 -6.551,-6.45 -8,-3.833 -25.766,-5.75 -53.299,-5.75 -23.134,0 -36.967,0.4 -41.5,1.2 -1.467,0.233 -2.401,0.634 -2.8,1.2 -0.467,0.633 -1.067,1.084 -1.801,1.35 -3.666,1.334 -5.5,2.834 -5.5,4.5 0,2.4 1.018,3.783 3.051,4.15 0.433,5.033 4.416,27.651 11.949,67.85 6.401,34.1 10.967,55.233 13.7,63.4 v 6.7 c 8.101,-2.7 18.118,-4.05 30.05,-4.05 7.168,0 15.933,1.517 26.301,4.55 l 3.65,1.1 v -7.15 l -4.051,-1.1"
             style="fill:#000000;fill-opacity:1;fill-rule:nonzero;stroke:none"
             id="path126"
             inkscape:connector-curvature="0" /></g><g
           id="g128"
           transform="translate(169.3677,125.6006)"><path
             d="m 0,0 -0.35,-0.5 c -1.233,-1.9 -3.016,-2.851 -5.35,-2.851 -0.966,0 -1.567,0.201 -1.8,0.601 l -0.7,0.649 V 7.45 C -5.733,4.483 -3,2 0,0 M 10.351,-6.9 9.65,-4.5 c 2.934,-0.833 6.067,-1.351 9.4,-1.55 -0.067,-1.933 -0.233,-3.283 -0.5,-4.051 h -6.5 C 11.417,-9.467 10.851,-8.4 10.351,-6.9 m -30,15.75 0.399,2.25 -0.399,-2.25 m 0.449,13.35 0.7,4.4 1.8,-4.75 -2.5,0.35 m 27.65,85.15 v 0.099 h 1.85 l 8.1,0.25 L 18.3,97.9 H 7.8 l 0.65,9.45 M 67.049,-11.5 v 0.05 -0.05 m -38.5,5.5 v 0.1 c 4.301,0.299 8.184,0.883 11.651,1.75 L 37.799,-7.9 c -1.166,-1.634 -2.332,-2.451 -3.5,-2.451 -0.765,0 -2.681,1.451 -5.75,4.351 m 28.25,12.149 0.701,0.25 0.799,-1.75 v -6.75 h -8.5 l -1.25,1 c 3.569,1.901 6.319,4.317 8.25,7.25 M 49.1,41.1 52.549,30.899 52.35,29.3 C 52.483,24.566 52.317,20.85 51.85,18.149 49.95,7.316 40.016,1.899 22.049,1.899 c -14.465,0 -24.698,7.417 -30.698,22.25 -0.601,1.401 -2.234,6.5 -4.901,15.301 l -0.349,1.1 6.25,-0.3 12.199,-0.351 c 24.568,0 39.417,0.401 44.55,1.201"
             style="fill:#ffffff;fill-opacity:1;fill-rule:nonzero;stroke:none"
             id="path130"
             inkscape:connector-curvature="0" /></g><g
           id="g132"
           transform="translate(148.7681,137.7002)"><path
             d="M 0,0 -0.7,-4.649 -0.05,0.05 Z"
             style="fill:#90a446;fill-opacity:1;fill-rule:nonzero;stroke:none"
             id="path134"
             inkscape:connector-curvature="0" /></g><g
           id="g136"
           transform="translate(149.7183,134.4502)"><path
             d="M 0,0 0.399,2.25 0,0 M -0.95,3.25 -0.9,3.601 3.949,2.8 c 0,-1.166 -0.55,-3.366 -1.649,-6.6 -1.033,-3 -1.45,-5.283 -1.25,-6.849 0.7,-5.134 7.833,-8.067 21.399,-8.801 0.068,-1.4 0.601,-2.699 1.601,-3.9 2.033,-2.4 5.917,-3.6 11.649,-3.6 5.101,0 8.068,0.45 8.9,1.35 l 0.451,0.951 c 0.133,0.299 0.516,0.449 1.149,0.449 0.734,0 1.668,-0.467 2.801,-1.4 1.099,-0.9 2.833,-1.35 5.199,-1.35 3.134,0 6.051,1.25 8.75,3.75 l 2,2.551 0.25,0.449 c 0.601,0.834 0.734,0.551 0.4,-0.85 1.567,-1.166 6.934,-0.467 16.1,2.1 1.801,0.533 2.967,2.566 3.5,6.1 1.068,-3.333 1.601,-5.534 1.601,-6.6 l -0.101,-0.85 v -0.05 c -0.6,-2.2 -3.399,-4.65 -8.399,-7.35 -3.234,-1.766 -8.334,-3.266 -15.3,-4.5 -37.567,0 -60.384,0.584 -68.45,1.75 l -2.75,0.6 h -0.05 c 1.866,3.9 3.767,11.433 5.699,22.6 l 0.901,5.851 0.7,4.649 m 45.799,96.25 3,0.4 C 48.017,95.934 54.25,75.566 66.55,38.8 60.816,39.3 50.367,39.55 35.199,39.55 20.233,39.55 10.1,39.45 4.8,39.25 l 5.099,22.5 -0.2,-0.1 c 4.367,22.233 6.617,35.05 6.75,38.45 L 19.85,99.4 C 19.649,97.667 19.683,95.467 19.949,92.801 19.217,90.767 19.233,88.783 20,86.85 c 1.467,-3.867 5.866,-5.799 13.199,-5.799 6.934,0 11.168,0.666 12.701,2 0.533,0.466 0.783,1.066 0.75,1.799 l -0.201,1.55 c -0.366,5.733 -0.899,10.1 -1.6,13.1"
             style="fill:#222222;fill-opacity:1;fill-rule:nonzero;stroke:none"
             id="path138"
             inkscape:connector-curvature="0" /></g></g></g><g
       id="g140"><g
         id="g142"
         clip-path="url(#clipPath146)"><g
           id="g148"
           transform="translate(261.208,334.4492)"><path
             d="M 0,0 C 3.332,0 4.582,-9.417 3.75,-28.25 4.582,-47.083 3.332,-56.499 0,-56.499 c -1,0 -1.684,0.115 -2.051,0.35 l -1.449,0.9 c -0.168,5.999 -0.25,14.999 -0.25,26.999 -0.201,4.833 -0.201,9.583 0,14.25 0.398,9.333 1.648,14 3.75,14"
             style="fill:#000000;fill-opacity:1;fill-rule:nonzero;stroke:none"
             id="path150"
             inkscape:connector-curvature="0" /></g><g
           id="g152"
           transform="translate(166.3569,331.4492)"><path
             d="M 0,0 C 3.333,0 4.583,-9.417 3.75,-28.25 4.583,-47.083 3.333,-56.499 0,-56.499 c -1,0 -1.684,0.115 -2.05,0.35 l -1.45,0.9 -0.25,26.999 c -0.2,4.833 -0.2,9.583 0,14.25 0.4,9.333 1.65,14 3.75,14"
             style="fill:#000000;fill-opacity:1;fill-rule:nonzero;stroke:none"
             id="path154"
             inkscape:connector-curvature="0" /></g></g></g><g
       id="g156"><g
         id="g158"
         clip-path="url(#clipPath162)"><g
           id="g164"
           transform="translate(89.1675,363.5498)"><path
             d="m 0,0 c -3.133,0.767 -6.066,1.567 -8.8,2.4 l -0.7,-7.75 0.25,-0.25 c 1.5,1.3 4.583,3.167 9.25,5.6 m 94.1,37.15 -8.55,7.4 -11.95,11.1 c -1.5,-3.6 -2.25,-7.6 -2.25,-12 0,-3.9 0.834,-8.117 2.5,-12.65 l 2.05,-5.75 19.149,-1.1 c -0.666,2.534 -1.066,5.15 -1.199,7.85 0,1.667 0.334,3.283 1,4.85 L 95,37.2 94.1,37.15 m -68.8,4.8 0.85,-0.5 C 30.784,38.717 35.434,36.367 40.1,34.4 48.133,31 56.784,28.45 66.05,26.75 l -1.15,4.95 -0.5,3.55 -6.8,-0.1 c -10,0 -18.916,2.667 -26.75,8 L 26.6,46.4 25.3,41.95 m 92.55,-5.8 c -0.9,1.833 -2.066,2.75 -3.5,2.75 -5.334,0 -9.084,-1.067 -11.25,-3.2 -1.166,-1.167 -1.75,-2.433 -1.75,-3.8 0,-1.267 0.666,-3.15 2,-5.65 l 1.049,-2.1 11.301,0.2 c -0.166,0.667 -0.117,1.467 0.15,2.4 0,0.5 0.5,1.5 1.5,3 1,1.5 1.5,2.5 1.5,3 0,0.934 -0.334,2.067 -1,3.4 m -54,7.35 c 0,14.767 3.084,22.15 9.25,22.15 5.1,0 13.4,-8.017 24.9,-24.05 3.233,3.367 7.934,5.05 14.1,5.05 l 5.799,-0.75 c 1.701,2.233 4.518,5.567 8.451,10 6.867,7.833 10.449,11.75 10.75,11.75 8.266,0 14.617,-5 19.049,-15 1.135,-2.633 2.101,-5.466 2.9,-8.5 l 12.801,4 c 3.233,1.1 5.533,2.733 6.9,4.9 l 0.2,0.25 -2.25,5.5 c -2.7,6.467 -5.317,12 -7.85,16.6 -7.367,13.5 -16.517,23.867 -27.451,31.1 -14.266,9.434 -32.199,14.15 -53.799,14.15 -28.267,0 -49.8,-6.033 -64.6,-18.1 C 18.2,98.617 14.184,94.067 10.95,88.9 L 6.25,80.15 C 0.883,71.117 -3.233,61.35 -6.1,50.85 L -7.25,46.3 c 5.067,0.9 10.733,1.35 17,1.35 l 8.15,-0.6 c 2,6.333 4.2,12.283 6.6,17.85 7.633,17.833 14.833,26.75 21.6,26.75 3.5,0 5.25,-1.3 5.25,-3.9 L 43.7,77.95 C 37.9,70.35 33.45,63.5 30.35,57.4 L 28.9,53.7 c 6.567,-4.1 10.384,-6.367 11.45,-6.8 2.934,-1.267 4.517,-2.017 4.75,-2.25 0.467,-0.466 6.7,-1.083 18.7,-1.85 h 0.05 v 0.7 m 60.1,-1.65 1.4,-2.45 c 0.633,-1.5 0.983,-3.183 1.049,-5.05 L 126.35,31.9 c 0,-2.733 -0.25,-4.733 -0.75,-6 l -0.65,-1.3 c 12.199,0.467 22.017,1.267 29.449,2.4 l -0.75,2.6 -2.399,12.05 c -2.566,11.667 -6.451,17.5 -11.65,17.5 -0.666,0 -3.916,-3.5 -9.75,-10.5 l -5.9,-6.8 m 101.9,-1.2 -29.65,1.75 c 2.099,-4.3 3.15,-6.883 3.15,-7.75 0,-3 -1.25,-4.5 -3.75,-4.5 -2.4,0 -4.617,1.133 -6.65,3.4 -3.467,-2.5 -8.016,-4.817 -13.651,-6.95 -17.4,-6.533 -41.75,-10 -73.049,-10.4 L 101.6,16.15 H 101.049 96.1 c -4.433,0 -10.85,0.583 -19.25,1.75 -9.467,1.3 -18.4,2.95 -26.8,4.95 -12.766,3.067 -21.933,6.334 -27.5,9.8 -1.5,-4.333 -2.767,-6.5 -3.8,-6.5 L 16.7,26.5 15.25,27.4 15,36.75 c 0,0.5 0.333,1.883 1,4.15 v 0.25 l 0.05,0.4 L 13.55,41 -4,37.25 c -17,-4.1 -25.5,-9.05 -25.5,-14.85 0,-5.833 14.583,-11.333 43.75,-16.5 26.367,-4.667 50.45,-7 72.25,-7 14.467,0 25.583,1.333 33.35,4 52.067,0.9 79.15,1.567 81.25,2 l 11,2 c 9.299,1.433 17.199,3.583 23.699,6.45 7.368,3.233 11.051,6.667 11.051,10.3 0,0.433 -1.201,2.55 -3.6,6.35 -2.367,3.8 -3.833,5.934 -4.4,6.4 l -3.951,2.8 c -1.732,0.734 -4.75,1.217 -9.049,1.45 m -33.25,8.85 12,0.15 c 21.266,0 35.867,-4.067 43.799,-12.2 3.967,-4.067 5.951,-8.833 5.951,-14.3 0,-5.133 -2.767,-9.433 -8.301,-12.9 C 240.083,6.517 230.184,3.233 216.35,0.4 L 203.6,-2.1 C 197.034,-3.7 190.833,-4.517 185,-4.55 l -15.8,1.15 c -15.633,1.733 -31.666,1.417 -48.1,-0.95 -11.334,-3 -22.834,-4.5 -34.5,-4.5 -28.733,0 -53.967,2.15 -75.7,6.45 -2.167,-1.933 -5.633,-4.666 -10.4,-8.2 -8.367,-6.167 -12.783,-9.25 -13.25,-9.25 -2.4,0 -3.833,2.284 -4.3,6.85 -0.2,2.3 -0.183,4.684 0.05,7.15 L -17.05,2.35 -16.6,5 C -30.2,10.033 -37,15.867 -37,22.5 c 0,5.967 3.167,11.267 9.5,15.9 3.733,2.733 8.25,4.85 13.55,6.35 l -0.05,3.9 c 0,5.633 2,12.534 6,20.7 2.133,4.367 6.217,11.467 12.25,21.3 l 4.25,7 c 3.434,4.767 7.7,9.083 12.8,12.95 16,12.033 37.933,18.05 65.8,18.05 30.067,0 53.199,-7.317 69.4,-21.95 5.1,-4.633 9.284,-9.8 12.549,-15.5 l 3.801,-7.8 c 4.334,-5.966 9.9,-15.35 16.699,-28.15 L 192.6,49.5 m -9.701,-5.7 -0.75,0.4 c -0.133,0.1 -0.215,0.383 -0.25,0.85 -1.299,-0.866 -2.816,-1.75 -4.549,-2.65 -6.334,-3.333 -12,-5.083 -17,-5.25 V 36.9 c 0.367,-3.8 0.334,-6.75 -0.1,-8.85 l 1.75,0.4 c 3.7,0.933 6.583,2.083 8.649,3.45 l 3.701,2.5 c 1.367,0.5 4.684,2.667 9.949,6.5 l -1.4,2.9"
             style="fill:#000000;fill-opacity:1;fill-rule:nonzero;stroke:none"
             id="path166"
             inkscape:connector-curvature="0" /></g><g
           id="g168"
           transform="translate(207.0176,399.6997)"><path
             d="m 0,0 c 0.666,-1.333 1,-2.466 1,-3.4 0,-0.5 -0.5,-1.5 -1.5,-3 -1,-1.5 -1.5,-2.5 -1.5,-3 -0.268,-0.933 -0.316,-1.733 -0.15,-2.4 L -13.451,-12 -14.5,-9.9 c -1.334,2.5 -2,4.383 -2,5.65 0,1.367 0.584,2.633 1.75,3.8 2.166,2.134 5.916,3.2 11.25,3.2 1.434,0 2.6,-0.917 3.5,-2.75 m -92.55,5.8 1.3,4.45 L -87,7 c 7.834,-5.333 16.75,-8 26.75,-8 l 6.8,0.1 0.5,-3.55 1.15,-4.95 c -9.266,1.7 -17.917,4.25 -25.95,7.65 -4.666,1.967 -9.316,4.317 -13.95,7.05 l -0.85,0.5 M -23,0.7 c -0.666,-1.567 -1,-3.183 -1,-4.85 0.133,-2.7 0.533,-5.316 1.199,-7.85 l -19.149,1.1 -2.05,5.75 c -1.666,4.533 -2.5,8.75 -2.5,12.65 0,4.4 0.75,8.4 2.25,12 L -32.3,8.4 -23.75,1 -23,0.7 m 29.1,5 5.9,6.8 c 5.834,7 9.084,10.5 9.75,10.5 5.199,0 9.084,-5.833 11.65,-17.5 l 2.399,-12.05 0.75,-2.6 c -7.432,-1.133 -17.25,-1.933 -29.449,-2.4 l 0.65,1.3 c 0.5,1.267 0.75,3.267 0.75,6 L 8.549,-1.8 C 8.482,0.067 8.133,1.75 7.5,3.25 L 6.1,5.7 m 58.949,1.95 1.4,-2.9 c -5.265,-3.833 -8.582,-6 -9.949,-6.5 l -3.701,-2.5 C 50.732,-5.617 47.85,-6.767 44.15,-7.7 L 42.4,-8.1 c 0.434,2.1 0.467,5.05 0.1,8.85 V 1 c 5,0.167 10.666,1.917 17,5.25 1.732,0.9 3.25,1.784 4.549,2.65 0.035,-0.466 0.117,-0.75 0.25,-0.85 l 0.75,-0.4"
             style="fill:#ffffff;fill-opacity:1;fill-rule:nonzero;stroke:none"
             id="path170"
             inkscape:connector-curvature="0" /></g><g
           id="g172"
           transform="translate(89.1675,363.5498)"><path
             d="M 0,0 C -4.667,-2.433 -7.75,-4.3 -9.25,-5.6 L -9.5,-5.35 -8.8,2.4 C -6.066,1.567 -3.133,0.767 0,0 m 63.8,42.8 c -12,0.767 -18.233,1.384 -18.7,1.85 -0.233,0.233 -1.816,0.983 -4.75,2.25 -1.066,0.433 -4.883,2.7 -11.45,6.8 l 1.45,3.7 c 3.1,6.1 7.55,12.95 13.35,20.55 l 7.65,9.8 c 0,2.6 -1.75,3.9 -5.25,3.9 -6.767,0 -13.967,-8.917 -21.6,-26.75 -2.4,-5.567 -4.6,-11.517 -6.6,-17.85 l -8.15,0.6 c -6.267,0 -11.933,-0.45 -17,-1.35 l 1.15,4.55 c 2.867,10.5 6.983,20.267 12.35,29.3 l 4.7,8.75 c 3.234,5.167 7.25,9.717 12.05,13.65 14.8,12.067 36.333,18.1 64.6,18.1 21.6,0 39.533,-4.716 53.799,-14.15 10.934,-7.233 20.084,-17.6 27.451,-31.1 2.533,-4.6 5.15,-10.133 7.85,-16.6 l 2.25,-5.5 -0.2,-0.25 c -1.367,-2.167 -3.667,-3.8 -6.9,-4.9 l -12.801,-4 c -0.799,3.034 -1.765,5.867 -2.9,8.5 -4.432,10 -10.783,15 -19.049,15 -0.301,0 -3.883,-3.917 -10.75,-11.75 -3.933,-4.433 -6.75,-7.767 -8.451,-10 L 112.1,46.65 C 105.934,46.65 101.233,44.967 98,41.6 86.5,57.633 78.2,65.65 73.1,65.65 66.934,65.65 63.85,58.267 63.85,43.5 L 63.8,42.8 m 162.05,-2.15 c 4.299,-0.233 7.317,-0.716 9.049,-1.45 l 3.951,-2.8 c 0.567,-0.466 2.033,-2.6 4.4,-6.4 2.399,-3.8 3.6,-5.917 3.6,-6.35 0,-3.633 -3.683,-7.067 -11.051,-10.3 -6.5,-2.867 -14.4,-5.017 -23.699,-6.45 l -11,-2 c -2.1,-0.433 -29.183,-1.1 -81.25,-2 -7.767,-2.667 -18.883,-4 -33.35,-4 -21.8,0 -45.883,2.333 -72.25,7 -29.167,5.167 -43.75,10.667 -43.75,16.5 0,5.8 8.5,10.75 25.5,14.85 L 13.55,41 16.05,41.55 16,41.15 V 40.9 c -0.667,-2.267 -1,-3.65 -1,-4.15 l 0.25,-9.35 1.45,-0.9 2.05,-0.35 c 1.033,0 2.3,2.167 3.8,6.5 5.567,-3.466 14.734,-6.733 27.5,-9.8 8.4,-2 17.333,-3.65 26.8,-4.95 8.4,-1.167 14.817,-1.75 19.25,-1.75 h 4.949 0.551 l 0.65,0.05 c 31.299,0.4 55.649,3.867 73.049,10.4 5.635,2.133 10.184,4.45 13.651,6.95 2.033,-2.267 4.25,-3.4 6.65,-3.4 2.5,0 3.75,1.5 3.75,4.5 0,0.867 -1.051,3.45 -3.15,7.75 l 29.65,-1.75"
             style="fill:#222222;fill-opacity:1;fill-rule:nonzero;stroke:none"
             id="path174"
             inkscape:connector-curvature="0" /></g></g></g></g></svg>