<?xml version="1.0" encoding="UTF-8" standalone="no"?>
<!-- Created with Inkscape (http://www.inkscape.org/) -->

<svg
   xmlns:dc="http://purl.org/dc/elements/1.1/"
   xmlns:cc="http://creativecommons.org/ns#"
   xmlns:rdf="http://www.w3.org/1999/02/22-rdf-syntax-ns#"
   xmlns:svg="http://www.w3.org/2000/svg"
   xmlns="http://www.w3.org/2000/svg"
   xmlns:sodipodi="http://sodipodi.sourceforge.net/DTD/sodipodi-0.dtd"
   xmlns:inkscape="http://www.inkscape.org/namespaces/inkscape"
   version="1.1"
   id="svg3713"
   xml:space="preserve"
   width="816"
   height="1056"
   viewBox="0 0 816 1056"
   sodipodi:docname="Meiling.svg"
   inkscape:version="0.92.4 (5da689c313, 2019-01-14)"><metadata
     id="metadata3719"><rdf:RDF><cc:Work
         rdf:about=""><dc:format>image/svg+xml</dc:format><dc:type
           rdf:resource="http://purl.org/dc/dcmitype/StillImage" /><dc:title></dc:title></cc:Work></rdf:RDF></metadata><defs
     id="defs3717"><clipPath
       clipPathUnits="userSpaceOnUse"
       id="clipPath3729"><path
         d="M 0,792 H 612 V 0 H 0 Z"
         id="path3727"
         inkscape:connector-curvature="0" /></clipPath></defs><sodipodi:namedview
     pagecolor="#ffffff"
     bordercolor="#666666"
     borderopacity="1"
     objecttolerance="10"
     gridtolerance="10"
     guidetolerance="10"
     inkscape:pageopacity="0"
     inkscape:pageshadow="2"
     inkscape:window-width="1920"
     inkscape:window-height="1001"
     id="namedview3715"
     showgrid="false"
     inkscape:zoom="0.76515152"
     inkscape:cx="408"
     inkscape:cy="528"
     inkscape:window-x="-9"
     inkscape:window-y="-9"
     inkscape:window-maximized="1"
     inkscape:current-layer="g3721" /><g
     id="g3721"
     inkscape:groupmode="layer"
     inkscape:label="Meiling"
     transform="matrix(1.3333333,0,0,-1.3333333,0,1056)"><g
       id="g3723"><g
         id="g3725"
         clip-path="url(#clipPath3729)"><g
           id="g3731"
           transform="translate(375.5996,450.0498)"><path
             d="M 0,0 C 5,-17.4 7.385,-30.25 7.15,-38.55 6.885,-47.183 7.5,-55.017 9,-62.05 c 1.5,-7 3.484,-12.217 5.951,-15.65 2.467,-3.434 3.401,-7.299 2.799,-11.6 -0.633,-4.299 -3.648,-8.617 -9.049,-12.949 -5.4,-4.334 -15.15,-9.934 -29.25,-16.801 -9.533,-4.666 -19.334,-8.467 -29.4,-11.4 -10.301,-3.033 -19.067,-4.549 -26.301,-4.549 -24.899,0 -41.366,4.75 -49.399,14.25 l -3.25,2.699 -2.851,2.201 c -3.366,2.7 -7.083,6.899 -11.149,12.6 -4.167,5.865 -6.934,12.133 -8.301,18.799 -1.4,6.668 -2.333,11.5 -2.8,14.5 -0.399,2.433 -0.6,6.816 -0.6,13.15 0,15.133 1.467,27.883 4.4,38.25 0.567,2.033 1.367,6.633 2.4,13.8 1.034,7.167 16.45,14.5 46.25,22 29.767,7.534 53.818,5.967 72.152,-4.7 7.732,-1.9 14.25,-4.366 19.548,-7.4 C -4.949,2.35 -1.666,0.634 0,0"
             style="fill:#fff2de;fill-opacity:1;fill-rule:nonzero;stroke:none"
             id="path3733"
             inkscape:connector-curvature="0" /></g><g
           id="g3735"
           transform="translate(375.7607,416.2168)"><path
             d="M 0,0 C 0.134,1.601 1.967,2.3 5.5,2.101 7.333,-0.167 8.267,-2.45 8.3,-4.75 l -0.15,-9.8 c -0.067,-3.8 0.05,-6.533 0.35,-8.2 0.233,-1.233 2.167,-6.133 5.8,-14.7 l 3.9,-9.75 c 0.866,-2.333 1.3,-3.8 1.3,-4.4 0,-5.633 -3.417,-11.716 -10.25,-18.25 -2.233,-2.133 -6.684,-5.567 -13.35,-10.299 -3.834,-2.434 -8.049,-4.801 -12.65,-7.101 -10.934,-5.5 -22.55,-9.866 -34.85,-13.1 -13.033,-3.433 -25.25,-5.15 -36.65,-5.15 -12.133,0 -23.667,3.5 -34.6,10.5 -2.9,1.867 -8.35,6.384 -16.35,13.55 -0.067,2 0.051,3.4 0.35,4.2 -0.667,2.033 -1,4.117 -1,6.25 0,1.233 0.416,2.233 1.25,3 0.734,0.667 1.567,1 2.5,1 5.767,-8.5 9.383,-13.633 10.85,-15.399 8.634,-10.234 24.55,-15.351 47.75,-15.351 7.167,0 15.934,1.517 26.3,4.55 10.033,2.933 19.834,6.733 29.4,11.4 9.967,4.866 17.95,9.85 23.95,14.95 6.567,5.6 9.85,10.633 9.85,15.1 0,0.8 -0.616,2.617 -1.85,5.45 L 6,-36.8 C 2,-26.733 0,-17.333 0,-8.6 V 0"
             style="fill:#000000;fill-opacity:1;fill-rule:nonzero;stroke:none"
             id="path3737"
             inkscape:connector-curvature="0" /></g><g
           id="g3739"
           transform="translate(234.6504,307.9326)"><path
             d="M 0,0 0.45,-0.449 2.1,-4.051 2.55,-5 c 2.267,-5.033 3.4,-9.65 3.4,-13.85 0,-3.599 -0.1,-5.882 -0.3,-6.849 C 5.183,-27.9 3.85,-30.666 1.65,-34 1.483,-34.232 1.267,-34.383 1,-34.449 l -0.75,0.148 c -0.233,0.135 -0.367,0.334 -0.4,0.602 l -4.05,17.849 -5.4,-11.4 -0.4,-0.449 -0.6,-0.102 -0.55,0.201 -0.3,0.549 c -3.167,11.701 -2.133,20.418 3.1,26.151 l 0.3,0.201 0.4,0.099 7,0.7 L 0,0 m 1.95,92.5 c 2.667,-2.966 4.167,-6.183 4.5,-9.649 0.333,-3.567 -0.267,-6.334 -1.8,-8.3 L 0.2,68.5 3.15,63.551 c 2.7,-4.533 4.033,-7.701 4,-9.5 C 7.217,52.416 5.967,50.533 3.4,48.4 2.067,47.301 1.15,46.367 0.65,45.6 L 0.4,45.35 c -0.667,-0.5 -1,-1.35 -1,-2.549 0.1,-0.635 1.433,-2.268 4,-4.901 3,-3.166 4.483,-6.05 4.45,-8.65 C 7.883,26.551 6.35,24.066 3.25,21.801 1.617,20.666 0.483,19.65 -0.15,18.75 l -0.4,-0.4 -0.6,-0.049 -2.55,0.199 -2.9,-0.25 h -0.45 c -0.167,0.033 -0.3,0.1 -0.4,0.199 l -0.25,0.201 -0.05,0.049 c -0.367,0.268 -1.233,0.635 -2.6,1.102 -3.333,1.166 -4.983,3.332 -4.95,6.5 0,3.299 0.983,6.898 2.95,10.799 l 1.5,3 0.25,0.3 0.55,0.7 c 0.3,0.599 0.45,1.168 0.45,1.701 l -0.2,1.049 v 0.05 l -0.3,0.6 0.05,-0.051 c -0.5,0.901 -1.2,1.367 -2.1,1.401 h -0.25 l -0.5,0.15 -0.2,0.051 -0.05,0.049 h 0.05 c -3.433,1 -5.117,2.867 -5.05,5.599 -0.033,3.301 1.283,7.385 3.95,12.251 l 3.65,7.101 -0.05,0.699 0.05,0.301 V 72.5 c -0.067,0.734 -0.917,1.917 -2.55,3.55 v -0.049 c -2.133,2.066 -3.05,5.049 -2.75,8.949 0.233,3.901 3.033,7.017 8.4,9.35 l 0.4,0.15 6.2,0.6 0.4,-0.199 L 0,94.75 0.35,94.45 1.95,92.5 m 157.849,-93.85 0.601,-0.099 0.45,-0.5 c 0.599,-1.334 1.584,-3.168 2.949,-5.5 l 1.15,-2 -0.049,0.049 c 1.899,-3.567 2.85,-7.116 2.85,-10.651 0,-3.465 -0.316,-6.765 -0.951,-9.898 -0.633,-3.201 -1.983,-6.084 -4.049,-8.651 -0.166,-0.166 -0.35,-0.283 -0.551,-0.349 l -0.65,0.099 c -0.233,0.1 -0.383,0.25 -0.449,0.45 -0.133,0.201 -0.166,0.4 -0.1,0.599 0.633,3.801 -0.133,10.319 -2.301,19.551 l -6.349,-13.15 -0.401,-0.45 -0.549,-0.099 -0.55,0.199 c -0.166,0.133 -0.284,0.301 -0.35,0.5 -0.801,2.434 -1.533,6.467 -2.201,12.1 -0.699,5.834 0.734,11.216 4.301,16.15 l 0.599,0.4 6.6,1.25 m -1.1,101.701 1.85,-3.651 c 2.301,-4.5 3.433,-7.983 3.4,-10.449 0.033,-1.601 -0.982,-3.734 -3.049,-6.4 l -0.8,-1 -0.45,-0.35 c -0.834,-0.367 -1.283,-1.167 -1.351,-2.4 L 158.25,75.95 V 75.851 75.7 c 0.066,-0.733 0.35,-1.266 0.85,-1.599 l 0.3,-0.351 3.45,-5.949 c 3.3,-5.601 4.933,-9.352 4.9,-11.25 0.033,-2.268 -1.15,-4.635 -3.551,-7.102 L 164.15,49.4 c -1.966,-1.9 -2.984,-3.382 -3.05,-4.451 0,-0.365 0.05,-0.699 0.15,-1 4.299,-6.566 6.617,-11.965 6.949,-16.199 0.367,-4.533 -0.316,-7.482 -2.049,-8.85 l -2.851,-2.55 -0.449,-0.299 h -0.551 l -5.75,0.549 -4.6,-0.25 c -2.865,-0.934 -5.199,1.517 -7,7.349 -1.699,5.401 -0.416,10.418 3.85,15.051 l 0.051,0.051 0.699,0.648 C 156.117,45.75 159.434,51.6 159.5,57 l -1.25,4.051 -3.85,9.699 c -3.701,8.7 -5.65,13.667 -5.851,14.9 -0.332,1.734 -0.465,4.534 -0.399,8.4 l 0.149,9.15 0.201,0.55 0.449,0.351 0.551,0.049 c 2.199,-0.433 5.117,-1.533 8.75,-3.299 l 0.449,-0.5 m -20.75,77.549 c 4.401,-2.733 7.268,-4.883 8.6,-6.45 9.801,-11.599 18.051,-22.849 24.75,-33.75 l 0.15,-0.55 -0.199,-0.6 -0.5,-0.3 h -0.6 c -0.734,0.234 -2.8,1.467 -6.201,3.7 l -3.449,2.151 -0.35,0.299 c -2.367,3.3 -4.351,5 -5.951,5.1 -1.633,-0.066 -2.449,-1.133 -2.449,-3.2 l 6.5,-11.25 c 4.799,-8.466 7.967,-16.05 9.5,-22.75 v -0.199 -4.25 l -0.201,-0.651 c -0.166,-0.166 -0.365,-0.283 -0.6,-0.349 L 166.25,105 c -4.033,2.367 -9.033,3.95 -15,4.75 l -18.201,0.9 -8.199,0.1 c -0.266,0.034 -0.5,0.134 -0.7,0.3 -0.201,0.2 -0.3,0.434 -0.3,0.7 v 0.55 c -8.834,22.667 -14.401,34.084 -16.7,34.25 -2.367,-0.133 -3.851,-3.733 -4.451,-10.8 l -0.849,-9.55 v 0.05 c -0.5,-3.633 -1.35,-6.233 -2.551,-7.8 l -0.5,-0.349 h -0.6 l -0.5,0.349 -0.199,0.6 c 0,5.834 -0.834,12.334 -2.5,19.5 -1.234,5.234 -2.551,8.767 -3.951,10.6 l -0.199,0.55 c -0.067,1.667 -0.883,2.517 -2.45,2.55 -2.5,-0.133 -5.851,-11.666 -10.05,-34.6 L 78,117.05 77.35,116.851 C 59.517,117.317 46.433,116.45 38.1,114.25 l -2.9,-0.85 h -0.65 l -0.5,0.4 -0.15,0.6 2.6,34.65 -0.2,2.35 c -0.367,1.1 -1.15,1.65 -2.35,1.65 C 31.25,152.884 22.7,135.467 8.3,100.8 L 7.9,100.3 7.25,100.15 2.8,100.351 2.05,100.3 H 1.9 L 1.5,100.351 0.15,100.2 h -0.1 c -2.4,-0.233 -5.067,-0.766 -8,-1.599 V 98.55 c -1.3,-0.333 -4.2,-1.466 -8.7,-3.4 -0.933,-1.1 -1.817,-2.766 -2.65,-5 -1.267,-3.5 -1.917,-6.183 -1.95,-8.049 v -0.1 c -0.167,-2.201 0.067,-4.317 0.7,-6.351 v -0.049 c 0.467,-1.601 1.167,-2.867 2.1,-3.8 L -18.2,71.2 c 0.033,-0.233 -0.017,-0.45 -0.15,-0.649 -1.1,-1.667 -2.05,-3.901 -2.85,-6.7 -1.3,-4.535 -1.95,-8.617 -1.95,-12.251 v -0.049 c -0.033,-2 0.4,-4 1.3,-6 0.767,-1.602 1.783,-2.885 3.05,-3.852 l 0.35,-0.5 v -0.648 c -1.3,-3.334 -1.95,-8.135 -1.95,-14.401 0,-1.867 0.6,-4.117 1.8,-6.75 1.1,-2.533 2.533,-4.267 4.3,-5.201 l 0.4,-0.349 0.15,-0.549 v -1 c 0.167,-3.268 0.5,-5.934 1,-8 v -0.5 L -13,3.35 c -1.633,-1.666 -2.833,-4.967 -3.6,-9.901 V -6.6 c -0.633,-3.767 -0.95,-8.117 -0.95,-13.05 v -0.049 c -0.033,-3.602 0.783,-7.25 2.45,-10.951 1.5,-3.299 2.917,-4.983 4.25,-5.049 1.367,0.199 2.95,2.398 4.75,6.599 l 0.4,0.45 0.65,0.15 c 0.2,-0.033 0.383,-0.133 0.55,-0.301 l 0.3,-0.549 2.55,-16.349 c 1.933,0.765 4.133,3.482 6.6,8.148 3,5.701 4.783,10.285 5.35,13.75 0.5,3.5 -0.1,9.819 -1.8,18.951 V -4.9 C 6.967,1.066 5.267,5.033 3.4,7 L 3.1,7.551 2.5,11.65 2.55,11.551 1.9,14 v 0.6 l 0.35,0.5 0.55,0.201 c 3.533,0.166 6.15,1.482 7.85,3.949 l 0.4,0.35 0.55,0.099 0.5,-0.199 C 15,17.1 17.2,15.416 18.7,14.449 29.467,7.551 40.817,4.1 52.75,4.1 c 11.334,0 23.467,1.701 36.4,5.099 12.233,3.235 23.784,7.584 34.649,13.051 4.568,2.301 8.75,4.65 12.551,7.051 l 0.199,0.099 1.5,1.049 0.701,0.201 0.65,-0.4 0.2,-0.699 -0.1,-2.801 V 26.6 c -0.133,-1.133 0.266,-2.95 1.199,-5.45 0.934,-2.566 3.518,-5.166 7.75,-7.8 l 0.35,-0.401 0.101,-0.449 v -1.551 c 0.067,-2.265 0.383,-4.482 0.95,-6.648 l 0.3,-1.201 0.049,-0.549 -0.25,-0.451 c -1.599,-1.7 -2.816,-4.832 -3.65,-9.401 -0.799,-4.199 -1.199,-8.681 -1.199,-13.449 0.033,-3.6 0.349,-7.15 0.949,-10.65 1.101,-6.332 2.9,-9.567 5.4,-9.7 0.434,0.1 0.985,0.7 1.651,1.799 l 0.449,0.401 0.601,0.05 0.5,-0.3 0.299,-0.549 c 0.201,-1.801 1.934,-9.434 5.201,-22.901 l -0.05,-0.5 -0.301,-0.451 -0.449,-0.25 -17.301,-3 c -0.299,-0.066 -0.549,-0.015 -0.75,0.151 -0.233,0.168 -0.365,0.384 -0.399,0.65 -1.668,9.166 -4.367,19.617 -8.101,31.35 -0.533,0.599 -0.965,0.884 -1.299,0.849 -0.467,-0.265 -0.883,-1.015 -1.25,-2.25 -0.967,-3.299 -1.5,-9.349 -1.6,-18.148 l -0.25,-0.701 -0.601,-0.299 -0.699,0.148 c -0.233,0.168 -0.368,0.367 -0.401,0.602 -2.066,8.199 -4.283,14.066 -6.65,17.599 -1.899,2.834 -3.883,4.034 -5.949,3.6 v -3.051 c 0.066,-6.699 0.382,-13.332 0.949,-19.898 0.535,-6.334 1.234,-11.135 2.101,-14.401 l -0.101,-0.701 -0.549,-0.5 -5.551,-1.699 c -6.166,-1.766 -13.217,-2.65 -21.15,-2.65 l -3.25,0.3 -0.299,0.1 c -2.566,1.268 -4.084,5.316 -4.551,12.15 -0.365,5.467 -1.865,8.934 -4.5,10.401 C 76.6,-64.033 75.732,-71.051 74.6,-74.25 l -0.25,-0.4 c -0.1,-0.1 -0.233,-0.166 -0.401,-0.2 C 67.584,-76.883 62.4,-77.9 58.4,-77.9 c -3.9,0 -8.633,0.55 -14.2,1.65 l -9.3,1.65 -1.85,-0.099 -0.5,0.148 -0.45,0.352 -0.1,0.549 0.8,20.3 c -1.467,1 -2.65,1.567 -3.55,1.7 -0.6,0.099 -1,-0.133 -1.2,-0.7 l -7.2,-18.55 -0.5,-0.6 -0.75,-0.051 c -2.5,0.901 -5.483,1.418 -8.95,1.551 -0.267,0 -0.483,0.084 -0.65,0.25 l -0.3,0.6 -0.5,4.15 0.05,-0.051 c -0.9,4.768 -2.05,7.217 -3.45,7.352 -0.967,0 -1.65,-0.235 -2.05,-0.701 l -0.5,-0.35 c -1.267,-0.4 -2.45,-1.666 -3.55,-3.801 -1.933,-3.5 -3.083,-5.299 -3.45,-5.398 l -0.6,-0.102 c -0.2,0.035 -0.383,0.135 -0.55,0.301 -1.9,1.834 -3.467,5.867 -4.7,12.1 -0.867,4.201 -2.033,6.367 -3.5,6.5 -1.033,-0.166 -2.2,-2.633 -3.5,-7.401 l -1.55,-6.349 -0.2,-0.5 -0.45,-0.299 h -0.5 c -4.833,1.033 -9.383,2.75 -13.65,5.148 v 0.051 c -0.767,0.434 -2.75,2.4 -5.95,5.9 v 0.049 l -1.55,1.701 -0.3,0.549 0.15,0.602 c 1.7,3.232 3.3,9.816 4.8,19.75 1.133,7.467 2,15.066 2.6,22.799 -0.4,23.701 -0.983,41.099 -1.75,52.201 v 0.199 c 0.6,6.066 0.55,15.45 -0.15,28.15 v 0.05 c 0,13.834 0.65,24.45 1.95,31.85 1.167,7.067 3.85,17.7 8.05,31.9 3.567,14.3 8.767,25.017 15.6,32.151 6.133,6.466 13.767,11.566 22.9,15.299 h -0.05 c 10.433,4.4 20.617,7.817 30.55,10.25 h 0.05 l 19.15,2.4 c 2.933,0.734 5.699,1.1 8.3,1.1 15.766,0 32.266,-3.85 49.5,-11.549 6.2,-2.734 11.883,-5.717 17.049,-8.951"
             style="fill:#eb595b;fill-opacity:1;fill-rule:nonzero;stroke:none"
             id="path3741"
             inkscape:connector-curvature="0" /></g><g
           id="g3743"
           transform="translate(231.1504,321.1826)"><path
             d="M 0,0 0.3,-0.6 C 0.767,-3.232 1,-5.184 1,-6.449 1,-6.717 0.9,-6.949 0.7,-7.15 0.5,-7.35 0.267,-7.449 0,-7.449 h -3.3 c -0.267,0 -0.5,0.099 -0.7,0.299 L -4.3,-6.449 -4.4,-0.6 -4.25,-0.051 -3.8,0.35 -3.2,0.449 -0.65,0.25 0,0 m 158.35,-2.199 0.349,0.398 0.551,0.151 h 0.799 2.601 l 0.7,-0.25 0.3,-0.75 c 0.034,-1.733 0.317,-3.166 0.85,-4.299 l 0.1,-0.651 -0.35,-0.55 c -0.166,-0.166 -0.35,-0.25 -0.551,-0.25 l -3.799,-0.25 -0.5,0.05 -0.351,0.299 -0.199,0.25 -0.25,0.5 -0.35,4.801 0.1,0.551"
             style="fill:#676766;fill-opacity:1;fill-rule:nonzero;stroke:none"
             id="path3745"
             inkscape:connector-curvature="0" /></g><g
           id="g3747"
           transform="translate(236,302.6494)"><path
             d="M 0,0 -1.649,3.551 -8.8,2.851 c -4.967,-5.5 -5.933,-13.901 -2.9,-25.201 L -5.05,-8.399 -0.399,-29 c 2.132,3.2 3.416,5.851 3.849,7.95 0.2,0.934 0.3,3.151 0.3,6.651 0,4.066 -1.1,8.549 -3.3,13.45 L 0,0 m -8,11.25 h 3.3 c 0,1.233 -0.216,3.134 -0.65,5.7 l -2.75,0.2 0.1,-5.9 m 6.351,87.051 -0.75,0.25 L -8.1,97.9 c -5.033,-2.133 -7.683,-4.983 -7.95,-8.549 -0.266,-3.567 0.55,-6.284 2.45,-8.151 1.9,-1.899 2.85,-3.316 2.85,-4.25 l -0.05,-0.599 0.05,-0.851 c 0,-0.3 -1.267,-2.816 -3.8,-7.55 -2.533,-4.7 -3.8,-8.633 -3.8,-11.8 0,-2.266 1.434,-3.816 4.3,-4.65 l 0.151,-0.05 0.049,-0.05 h 0.1 l 0.351,-0.099 h 0.049 c 1.3,0 2.284,-0.634 2.951,-1.901 l 0.299,-0.7 c 0.201,-0.433 0.3,-0.916 0.3,-1.45 0,-0.699 -0.2,-1.416 -0.599,-2.149 l -0.75,-1 -1.5,-3 C -14.55,37.367 -15.5,33.917 -15.5,30.75 c 0,-2.699 1.417,-4.55 4.25,-5.55 1.533,-0.533 2.5,-0.95 2.9,-1.25 l 0.35,-0.3 3.101,0.3 2.75,-0.2 c 0.666,1 1.866,2.117 3.599,3.351 2.8,2 4.2,4.2 4.2,6.599 0,2.367 -1.4,5.017 -4.2,7.95 -2.833,2.934 -4.25,4.8 -4.25,5.6 0,1.601 0.467,2.717 1.401,3.351 0.533,0.833 1.516,1.849 2.949,3.049 2.267,1.867 3.4,3.484 3.4,4.85 0,1.7 -1.283,4.7 -3.849,9 L -2.2,73 2.65,79.601 C 4.05,81.4 4.584,83.934 4.25,87.2 3.917,90.467 2.5,93.5 0,96.301 l -1.649,2 M 158.7,2.101 152.2,0.9 c -3.4,-4.733 -4.766,-9.883 -4.099,-15.45 0.666,-5.566 1.382,-9.55 2.149,-11.95 l 7.101,14.65 0.699,0.05 c 2.534,-10.366 3.433,-17.599 2.7,-21.7 1.967,2.434 3.267,5.167 3.9,8.2 0.6,3.067 0.9,6.3 0.9,9.7 0,3.401 -0.9,6.784 -2.699,10.151 L 161.75,-3.5 c -1.399,2.367 -2.416,4.233 -3.05,5.601 m -3.599,7.95 3.799,0.25 c -0.6,1.266 -0.917,2.849 -0.95,4.75 h -2.599 -0.801 l 0.35,-4.75 0.201,-0.25 m -7,97.55 -0.151,-9.101 c -0.066,-3.8 0.05,-6.533 0.35,-8.199 0.233,-1.234 2.167,-6.134 5.801,-14.7 L 158,65.851 c 0.867,-2.334 1.3,-3.8 1.3,-4.401 0,-5.633 -3.416,-11.717 -10.25,-18.25 l -0.75,-0.7 c -3.966,-4.3 -5.166,-8.983 -3.6,-14.05 1.567,-5.066 3.5,-7.283 5.8,-6.649 l 4.851,0.25 6,-0.601 2.949,2.7 c 1.467,1.234 2.034,3.901 1.7,8 -0.333,4.1 -2.616,9.367 -6.85,15.8 -0.167,0.434 -0.25,0.917 -0.25,1.45 0,1.267 1.117,3 3.35,5.201 2.2,2.233 3.3,4.366 3.3,6.399 0,1.801 -1.583,5.384 -4.75,10.75 l -3.449,5.95 c -0.767,0.5 -1.201,1.3 -1.301,2.401 v 0.049 0.151 0.199 l 0.051,0.101 c 0.066,1.733 0.733,2.833 2,3.299 l 0.799,1.05 c 1.9,2.401 2.85,4.317 2.85,5.75 0,2.367 -1.1,5.7 -3.3,10 l -1.849,3.7 c -3.534,1.701 -6.368,2.767 -8.5,3.201 m -39.551,25.5 c -0.033,-5.834 -2.699,-12.217 -8,-19.151 -5.333,-6.933 -9.199,-9.366 -11.6,-7.3 0.901,5.734 1.35,10.467 1.35,14.201 0,4.433 -0.949,10.466 -2.85,18.099 l -0.05,0.2 -1.6,-6.049 C 83.2,123.434 81.101,117.233 79.5,114.5 l -17.2,0.801 c -7.3,0 -13.85,-0.884 -19.65,-2.651 -5.799,-1.733 -9.417,-2.599 -10.85,-2.599 l -1.35,0.05 -1.05,-0.05 c -2.966,0 -4.45,2.366 -4.45,7.099 -0.033,3.634 0.467,6.617 1.5,8.951 v 5 c -1.4,-1.901 -4.566,-8.184 -9.5,-18.851 -2.833,-6.133 -5,-10.166 -6.5,-12.1 L 9.851,99.4 C 9.417,99 9.05,98.801 8.75,98.801 H 8.5 L 9.2,96.9 c 0.6,-1.866 1.067,-3.933 1.401,-6.2 L 10.9,87.75 C 10.834,85.15 10.434,82.567 9.7,80 9.067,77.767 8.267,76.034 7.3,74.801 8.7,73.2 9.884,70.934 10.851,68 11.517,66 12.05,63.801 12.45,61.4 l 0.35,-3 C 12.8,56.601 11.684,54.15 9.45,51.051 8.717,50.051 8,49.2 7.3,48.5 c 1.267,-1.399 2.384,-3.316 3.35,-5.75 0.701,-1.8 1.267,-3.783 1.701,-5.949 L 12.8,33.95 v -1 l 1.75,-2.3 C 23.184,20.417 39.101,15.301 62.3,15.301 c 7.167,0 15.933,1.516 26.301,4.55 10.033,2.933 19.833,6.733 29.399,11.399 9.967,4.867 17.95,9.851 23.95,14.95 6.567,5.601 9.85,10.634 9.85,15.101 0,0.8 -0.616,2.616 -1.85,5.449 l -4.15,9.5 c -4,10.067 -6,19.467 -6,28.2 v 4.401 l -17.15,1.599 -2.75,0.2 c -2.733,4.667 -4.433,7.667 -5.1,9 -2.833,5.634 -4.75,9.951 -5.75,12.951 l -0.5,0.5 m 22,60.349 c 10.233,-5.766 18.266,-11.833 24.1,-18.2 18.833,-24.533 28.25,-38.183 28.25,-40.949 0,-2.401 -1.816,-3.601 -5.45,-3.601 -3.233,0 -6.45,0.734 -9.65,2.2 l 2.65,-5.849 c 0.934,-2.134 1.7,-6.301 2.3,-12.5 0.5,-5.034 0.75,-9.467 0.75,-13.301 0,-2.899 -1.183,-4.35 -3.55,-4.35 l -2.75,1.651 1.55,-7.95 c 0,-3.267 -0.233,-5.651 -0.7,-7.151 -0.5,-1.7 -1.25,-3.05 -2.25,-4.05 1.067,-1.7 2.134,-3.883 3.2,-6.549 l 3.55,-11.601 c 0,-2.5 -0.716,-5.35 -2.15,-8.55 -0.966,-2.2 -2.1,-3.866 -3.4,-5 6,-8 7.884,-15.283 5.65,-21.849 -2.233,-6.567 -4.733,-10.118 -7.5,-10.651 L 165.9,9.101 165.75,6.25 c 7.567,-16.166 8.033,-31.416 1.4,-45.75 -1.233,-2.699 -2.799,-5.017 -4.7,-6.949 L 165.9,-59.5 c 0,-2.933 -1.066,-5 -3.2,-6.199 -3.599,-2.068 -10.917,-3.101 -21.95,-3.101 -2.066,0 -3.616,0.2 -4.649,0.601 L 132.3,-47.75 h -0.199 L 131.15,-60.5 c -0.667,-6.8 -2.183,-10.199 -4.549,-10.199 -0.301,0 -2.167,5.666 -5.601,17 l 0.75,-10.101 c 0.2,-1.633 0.2,-3.05 0,-4.25 v -0.2 -0.75 c 0,-1.899 -3.116,-3.85 -9.35,-5.85 -7,-2.2 -14.966,-3.299 -23.9,-3.299 -4.899,0 -8.366,2.283 -10.399,6.849 -0.601,-3.467 -1.25,-5.349 -1.951,-5.649 -4.733,-2.068 -11.049,-3.101 -18.95,-3.101 -11.866,0 -21.083,1.901 -27.65,5.7 H 29.4 c -2.266,0 -2.633,3.534 -1.1,10.6 -2.333,-6.1 -3.75,-9.316 -4.25,-9.649 -0.267,-0.201 -0.583,-0.368 -0.949,-0.5 L 17.65,-74.35 c -4.033,0 -7.233,0.434 -9.6,1.3 -0.5,-0.233 -1.067,-0.349 -1.699,-0.349 -2.134,0 -3.634,2.5 -4.5,7.5 -2.534,-3.734 -4,-5.601 -4.401,-5.601 -2.766,0 -7.2,2.101 -13.3,6.301 l -0.6,-0.25 -6.4,-0.5 c -5.533,0 -11.383,3.199 -17.549,9.599 -3.101,3.234 -5.634,6.451 -7.601,9.651 l 0.2,1.649 -0.2,1.7 3.851,15.201 c 2.533,10.632 3.783,18.5 3.75,23.599 -0.101,8.467 -0.417,21.184 -0.951,38.151 -0.367,9.666 -0.299,17.066 0.201,22.2 L -42.3,77.75 c 0,8 0.333,15.534 1,22.601 1.5,15.899 4.45,30.349 8.85,43.349 13.7,40.667 39.034,61 76,61 2.367,0 7.483,0.834 15.35,2.5 -5.1,-0.866 -6.383,-0.866 -3.85,0 4.4,1.434 9.334,2.151 14.801,2.151 21.733,0 41.966,-5.3 60.699,-15.901 M 119.3,190.4 c -17.1,7.634 -33.466,11.451 -49.1,11.451 -2.533,0 -5.25,-0.368 -8.15,-1.101 L 42.95,198.4 C 33.05,195.967 22.917,192.567 12.55,188.2 3.584,184.5 -3.933,179.467 -10,173.101 -16.7,166.067 -21.816,155.5 -25.35,141.4 c -4.2,-14.167 -6.883,-24.766 -8.049,-31.799 -1.267,-7.368 -1.901,-17.934 -1.901,-31.701 0.7,-12.766 0.75,-22.2 0.151,-28.299 0.766,-11.167 1.349,-28.618 1.75,-52.351 -0.601,-7.767 -1.467,-15.399 -2.601,-22.899 -1.533,-10.101 -3.183,-16.784 -4.95,-20.05 l 1.6,-1.75 c 3.067,-3.401 4.967,-5.318 5.701,-5.75 4.166,-2.367 8.616,-4.068 13.349,-5.101 0.3,1.767 0.8,3.934 1.5,6.5 1.5,5.401 3,8.101 4.5,8.101 2,0 3.484,-2.434 4.45,-7.301 1.201,-5.966 2.684,-9.833 4.451,-11.6 0.266,0.134 1.266,1.8 3,5 1.266,2.434 2.649,3.85 4.149,4.25 0.567,0.734 1.517,1.1 2.851,1.1 1.932,0 3.399,-2.716 4.399,-8.149 l 0.5,-4.151 c 3.601,-0.133 6.667,-0.666 9.2,-1.599 l 7.2,18.649 c 0.8,2 3.034,1.717 6.701,-0.85 l -0.801,-20.9 1.9,0.101 9.5,-1.651 c 5.5,-1.099 10.167,-1.649 14,-1.649 3.934,0 9.017,1 15.25,3 1.167,3.3 2.033,10.699 2.6,22.199 3.834,-1.066 5.983,-5 6.45,-11.8 0.434,-6.366 1.767,-10.166 4,-11.399 l 3.101,-0.25 c 7.833,0 14.783,0.866 20.849,2.599 l 5.55,1.701 c -0.866,3.299 -1.583,8.166 -2.149,14.599 -0.568,6.567 -0.884,13.217 -0.951,19.95 v 3.8 c 5.534,2.234 10.383,-5 14.55,-21.7 0.167,17.9 2.184,24.584 6.05,20.051 3.767,-11.867 6.483,-22.434 8.15,-31.7 l 17.3,3.049 c -3.266,13.534 -5,21.201 -5.2,23 -0.933,-1.533 -1.767,-2.299 -2.5,-2.299 -3.033,0 -5.166,3.516 -6.399,10.549 -0.601,3.534 -0.917,7.134 -0.951,10.8 0,4.834 0.4,9.384 1.201,13.651 C 145,2.15 146.3,5.45 148,7.25 l -0.35,1.25 c -0.566,2.233 -0.883,4.534 -0.95,6.9 v 1.55 c -4.467,2.8 -7.183,5.567 -8.15,8.3 -1.033,2.733 -1.449,4.717 -1.25,5.95 l 0.1,2.901 -1.7,-1.201 C 131.867,30.467 127.65,28.101 123.05,25.801 112.117,20.301 100.5,15.934 88.2,12.7 75.167,9.267 62.95,7.551 51.55,7.551 c -12.133,0 -23.666,3.5 -34.6,10.5 l -6.7,5.099 c -1.866,-2.733 -4.733,-4.2 -8.6,-4.4 l 0.65,-2.5 0.6,-4.1 C 4.867,10.117 6.65,6 8.25,-0.199 10.017,-9.5 10.634,-15.933 10.101,-19.5 9.533,-23.066 7.717,-27.767 4.65,-33.6 c -3.1,-5.799 -5.883,-8.75 -8.35,-8.849 l -2.699,17.399 c -2,-4.7 -3.868,-7.099 -5.601,-7.2 -1.733,-0.1 -3.467,1.767 -5.2,5.601 -1.767,3.866 -2.616,7.683 -2.55,11.45 0,5 0.317,9.416 0.95,13.25 0.833,5.233 2.134,8.716 3.901,10.449 -0.534,2.134 -0.884,4.867 -1.051,8.2 v 1.05 c -1.966,1 -3.567,2.9 -4.8,5.7 -1.233,2.8 -1.85,5.184 -1.85,7.151 0,6.433 0.667,11.349 2,14.75 -1.4,1.033 -2.516,2.45 -3.35,4.25 -0.966,2.132 -1.433,4.283 -1.4,6.45 0,3.699 0.667,7.883 2,12.55 0.833,2.899 1.817,5.216 2.951,6.95 -1,1.033 -1.767,2.449 -2.301,4.25 -0.666,2.166 -0.916,4.416 -0.75,6.75 0,1.966 0.667,4.766 2,8.399 0.933,2.467 1.933,4.3 3,5.5 4.667,2 7.667,3.184 9,3.55 3,0.867 5.733,1.417 8.2,1.65 l 1.55,0.151 0.5,-0.051 0.801,0.051 4.549,-0.2 c 14.667,35.266 23.534,52.899 26.6,52.899 1.733,0 2.851,-0.833 3.351,-2.5 l 0.199,-2.5 -2.6,-34.699 2.95,0.899 c 8.4,2.2 21.567,3.067 39.5,2.601 4.333,23.599 8.017,35.399 11.05,35.399 2.2,0 3.35,-1.166 3.45,-3.5 1.467,-1.899 2.833,-5.55 4.1,-10.95 1.7,-7.267 2.55,-13.85 2.55,-19.75 1.1,1.467 1.884,3.917 2.35,7.351 l 0.85,9.45 c 0.667,7.8 2.483,11.699 5.45,11.699 2.7,0 8.6,-11.683 17.7,-35.05 v -0.75 l 8.201,-0.099 18.299,-0.901 c 6.133,-0.833 11.267,-2.467 15.4,-4.899 v 4.25 c -1.5,6.599 -4.633,14.083 -9.4,22.449 l -6.6,11.75 c 0,2.801 1.15,4.2 3.45,4.2 1.867,0 4.117,-1.849 6.75,-5.55 0.934,-0.466 2.117,-1.183 3.55,-2.15 3.267,-2.166 5.25,-3.366 5.95,-3.6 -6.666,10.833 -14.899,22.034 -24.7,33.6 -1.267,1.5 -4.05,3.584 -8.35,6.25 -5.099,3.2 -10.733,6.167 -16.9,8.9"
             style="fill:#000000;fill-opacity:1;fill-rule:nonzero;stroke:none"
             id="path3749"
             inkscape:connector-curvature="0" /></g><g
           id="g3751"
           transform="translate(228,313.8994)"><path
             d="M 0,0 -0.1,5.9 2.65,5.7 C 3.084,3.134 3.3,1.233 3.3,0 H 0 m 163.101,-1.199 -0.201,0.25 -0.35,4.75 h 0.801 2.599 c 0.033,-1.901 0.35,-3.484 0.95,-4.75 l -3.799,-0.25"
             style="fill:#676766;fill-opacity:1;fill-rule:nonzero;stroke:none"
             id="path3753"
             inkscape:connector-curvature="0" /></g><g
           id="g3755"
           transform="translate(303.1504,510.9004)"><path
             d="M 0,0 -3.301,5.3 -6.75,10.85 -9.551,-1.801 c -0.133,-0.5 -0.383,-0.933 -0.75,-1.3 -0.367,-0.333 -0.801,-0.549 -1.301,-0.649 l -13.648,-2.101 12,-5.649 c 0.467,-0.234 0.832,-0.601 1.1,-1.101 0.265,-0.465 0.367,-0.983 0.298,-1.549 l -1.949,-12.5 5.1,4.2 5.9,4.75 0.35,0.25 c 0.234,0.167 0.517,0.266 0.849,0.3 l 1.301,-0.151 1.051,-0.449 2.199,-0.95 10.051,-4.151 -6.051,11 c -0.265,0.5 -0.349,1.034 -0.25,1.601 0.1,0.566 0.367,1.05 0.801,1.449 L 17,-0.25 5.699,-1.5 2.898,-1.801 2.799,-1.851 1.398,-1.601 c -0.431,0.201 -0.765,0.5 -1,0.901 L 0,0 M 26.85,2.55 26.1,1.25 12.299,-11.2 l 8.5,-15.45 c 0.267,-0.467 0.367,-0.967 0.301,-1.5 -0.067,-0.5 -0.268,-0.967 -0.6,-1.401 -0.367,-0.366 -0.816,-0.616 -1.352,-0.75 l -1.5,0.151 -18.449,7.65 -14.899,-12.101 c -0.434,-0.333 -0.901,-0.516 -1.401,-0.549 l -1.45,0.299 c -0.433,0.267 -0.765,0.634 -1,1.101 -0.232,0.5 -0.3,1 -0.199,1.5 l 2.649,17.05 -17.649,8.3 c -0.5,0.233 -0.884,0.584 -1.15,1.049 -0.267,0.5 -0.35,1.017 -0.25,1.55 0.067,0.533 0.299,1 0.7,1.401 0.367,0.4 0.833,0.632 1.4,0.7 l 19.999,3.149 3.699,17.001 c 0.168,0.699 0.551,1.233 1.151,1.6 0.566,0.366 1.201,0.466 1.9,0.3 0.666,-0.134 1.184,-0.5 1.551,-1.1 L 3.799,3.3 l 20.349,2.25 1.5,-0.3 C 26.115,4.983 26.467,4.6 26.699,4.1 L 26.85,2.55"
             style="fill:#000000;fill-opacity:1;fill-rule:nonzero;stroke:none"
             id="path3757"
             inkscape:connector-curvature="0" /></g><g
           id="g3759"
           transform="translate(213.8999,454.7002)"><path
             d="M 0,0 C -15.633,28.933 -7.45,50.95 24.55,66.05 56.55,81.15 91.733,85.1 130.1,77.9 168.434,70.733 181.5,50.767 169.299,18 118.034,24.767 61.6,18.767 0,0 m 116.1,58.75 -0.15,1.55 c -0.233,0.5 -0.584,0.883 -1.051,1.15 l -1.5,0.3 L 93.049,59.5 83.5,74.95 c -0.367,0.6 -0.884,0.967 -1.55,1.1 -0.7,0.166 -1.334,0.066 -1.901,-0.3 -0.599,-0.367 -0.982,-0.9 -1.15,-1.6 L 75.2,57.149 55.2,54 C 54.633,53.933 54.167,53.7 53.8,53.3 53.4,52.899 53.167,52.433 53.1,51.899 53,51.366 53.083,50.85 53.35,50.35 53.617,49.884 54,49.533 54.5,49.3 L 72.15,41 69.5,23.95 c -0.1,-0.5 -0.033,-1 0.2,-1.5 0.234,-0.467 0.566,-0.834 1,-1.1 l 1.45,-0.3 c 0.5,0.033 0.967,0.217 1.4,0.55 l 14.9,12.1 18.449,-7.65 1.5,-0.151 c 0.535,0.134 0.984,0.384 1.351,0.75 0.333,0.434 0.534,0.901 0.6,1.401 0.067,0.533 -0.033,1.033 -0.301,1.5 l -8.5,15.45 13.801,12.45 0.75,1.3"
             style="fill:#90a345;fill-opacity:1;fill-rule:nonzero;stroke:none"
             id="path3761"
             inkscape:connector-curvature="0" /></g><g
           id="g3763"
           transform="translate(306.0488,509.0996)"><path
             d="m 0,0 2.801,0.301 -2.75,-17.2 -2.199,0.95 L 0,0 m -6.199,7.101 3.301,-5.3 -2.452,-17.45 -0.349,-0.25 -5.901,-4.75 z"
             style="fill:#fef3df;fill-opacity:1;fill-rule:nonzero;stroke:none"
             id="path3765"
             inkscape:connector-curvature="0" /></g><g
           id="g3767"
           transform="translate(294.4492,488.4502)"><path
             d="m 0,0 -5.1,-4.2 1.95,12.5 c 0.068,0.566 -0.034,1.084 -0.299,1.55 -0.268,0.5 -0.633,0.866 -1.1,1.1 l -12,5.65 13.649,2.1 c 0.5,0.1 0.933,0.317 1.3,0.65 0.368,0.366 0.618,0.799 0.75,1.299 L 1.951,33.3 5.4,27.75 0,0 m 14.4,20.95 11.301,1.25 -9.5,-8.551 C 15.768,13.25 15.5,12.767 15.4,12.2 15.301,11.633 15.385,11.1 15.65,10.6 l 6.051,-11 -10.051,4.15 2.75,17.2 m -5.699,1.5 0.399,-0.7 c 0.234,-0.4 0.568,-0.7 1,-0.9 L 11.5,20.6 11.6,20.649 9.451,4.7 8.4,5.149 7.1,5.3 C 6.768,5.267 6.484,5.167 6.25,5 l 2.451,17.45"
             style="fill:#fbde8b;fill-opacity:1;fill-rule:nonzero;stroke:none"
             id="path3769"
             inkscape:connector-curvature="0" /></g><g
           id="g3771"
           transform="translate(383.1992,472.7002)"><path
             d="M 0,0 C -50.4,-11.101 -106.833,-17.101 -169.299,-18 -107.699,0.767 -51.266,6.767 0,0"
             style="fill:#657432;fill-opacity:1;fill-rule:nonzero;stroke:none"
             id="path3773"
             inkscape:connector-curvature="0" /></g><g
           id="g3775"
           transform="translate(213.8999,454.7002)"><path
             d="M 0,0 C -15.633,28.933 -7.45,50.95 24.55,66.05 56.55,81.15 91.733,85.1 130.1,77.9 168.434,70.733 181.5,50.767 169.299,18 118.899,6.899 62.467,0.899 0,0 61.6,18.767 118.034,24.767 169.299,18"
             style="fill:none;stroke:#000000;stroke-width:6;stroke-linecap:round;stroke-linejoin:round;stroke-miterlimit:4;stroke-dasharray:none;stroke-opacity:1"
             id="path3777"
             inkscape:connector-curvature="0" /></g><g
           id="g3779"
           transform="translate(298.5996,499.25)"><path
             d="m 0,0 -3.051,-0.45 0.102,-1 L 0.199,-1 0,0 m -0.25,1.9 -3.15,-0.5 0.201,-1 3.049,0.5 -0.1,1 M -1.5,6.3 -3.449,6 -2.75,4.35 l 1.1,0.2 0.15,1.75 m 2.551,-10.9 -1.352,-0.15 -0.25,0.85 0.901,0.15 0.201,0.3 -0.25,1.55 -3.051,-0.5 0.449,-2.75 -1,-0.2 -1.199,7.6 5.051,0.75 1,-6.65 C 1.65,-4.184 1.484,-4.5 1.051,-4.6 M 1.5,4.1 -5.5,3 -5.65,3.9 -3.801,4.25 -4.551,5.8 -5.5,5.65 -5.65,6.6 -3.15,7 -3.4,8.35 l 1.15,0.2 c 0.301,0 0.334,-0.134 0.1,-0.4 L -2,7.15 0.5,7.55 0.6,6.6 -0.449,6.4 -0.65,4.65 1.301,5 1.5,4.1 M 2.199,8.8 2.301,7.85 6.9,8.6 7,7.65 2.5,7 2.65,6.05 6.65,6.65 7.051,3.8 3.051,3.15 3.199,2.3 6.9,2.9 7.051,2 3.4,1.4 3.449,0.75 7.15,1.3 7.301,0.35 3.551,-0.2 l 0.148,-0.7 4,0.65 L 7.9,-1.2 3.801,-1.85 3.949,-2.6 c 0.035,-0.234 0.201,-0.334 0.5,-0.3 l 3,0.45 C 7.617,-2.416 7.717,-2.267 7.75,-2 v 0.6 L 8.9,-1.45 8.801,-2.5 C 8.801,-2.967 8.533,-3.25 8,-3.35 L 4.15,-3.9 c -0.632,-0.067 -1,0.183 -1.099,0.75 L 1.949,4 l 4,0.6 -0.148,0.95 -4,-0.65 -0.651,4.15 0.901,0.1 c 0.332,0 0.383,-0.117 0.148,-0.35"
             style="fill:#d7a530;fill-opacity:1;fill-rule:nonzero;stroke:none"
             id="path3781"
             inkscape:connector-curvature="0" /></g><g
           id="g3783"
           transform="translate(263.0996,302.8496)"><path
             d="m 0,0 c -3.066,-5.833 -8.7,-19.783 -16.899,-41.85 -8.234,-22 -10.634,-33.283 -7.201,-33.849 0.666,-0.901 2.284,-1.117 4.85,-0.651 2.833,0.534 4.967,2.467 6.4,5.8 1.4,3.333 2.534,6.934 3.4,10.8 0.867,3.9 2.634,13.7 5.301,29.4 2.666,15.701 3.982,24.334 3.949,25.901 V -1.75 L 0,0 m -1.6,8.45 3.201,4.5 c 4.199,1.068 3.283,-16.833 -2.75,-53.7 -1.434,-7.967 -3.967,-18.333 -7.601,-31.1 -1.767,-6.099 -4.917,-9.283 -9.45,-9.549 -2.833,-0.134 -5.717,0.733 -8.65,2.599 -3.067,1.934 -4.1,6.684 -3.1,14.25 l 5.051,16.5 1.149,3.401 c 2.367,6.932 9.75,24.633 22.15,53.099 m 55.85,-25.8 c -3,4.934 -5.717,9.75 -8.149,14.451 1.366,-8.367 2.932,-16.568 4.699,-24.601 1.766,-8.033 4.533,-16.566 8.301,-25.6 1.533,-3.632 3.182,-6.95 4.949,-9.95 2.533,-4.366 5.317,-8 8.35,-10.899 1.833,-1.768 3.617,-1.301 5.35,1.399 0.967,1.5 0.533,4.667 -1.3,9.5 -0.9,2.333 -2.134,5.068 -3.7,8.2 -4.833,9.6 -8.366,17.017 -10.6,22.25 -2.266,5.234 -4.9,10.317 -7.9,15.25 m 6.55,-4 v -0.4 -0.35 l 0.15,0.55 -0.15,0.2 m -2.05,2.6 -0.149,0.2 0.099,-0.2 h 0.05 m -17.8,25.551 -0.099,0.25 c 1.632,3.666 3.266,3.666 4.899,0 C 62.017,-21.717 72.4,-41.666 76.9,-52.8 l 3.65,-10.25 c 0.634,-2.2 1.067,-4.099 1.301,-5.7 0.732,-5.166 -0.351,-8.366 -3.25,-9.6 -3.601,-1.533 -6.484,-1.516 -8.651,0.05 -4.333,3.234 -8.217,8.318 -11.65,15.25 -2.833,5.7 -5.35,12.667 -7.55,20.901 -4.899,18.233 -8.283,33.682 -10.149,46.349 0,1.366 0.099,2.234 0.299,2.601 h 0.05"
             style="fill:#000000;fill-opacity:1;fill-rule:nonzero;stroke:none"
             id="path3785"
             inkscape:connector-curvature="0" /></g><g
           id="g3787"
           transform="translate(263.0996,302.8496)"><path
             d="m 0,0 -0.2,-1.75 v -2.699 c 0.033,-1.567 -1.283,-10.2 -3.949,-25.901 -2.667,-15.7 -4.434,-25.5 -5.301,-29.4 -0.866,-3.866 -2,-7.467 -3.4,-10.8 -1.433,-3.333 -3.567,-5.266 -6.4,-5.8 -2.566,-0.466 -4.184,-0.25 -4.85,0.651 -3.433,0.566 -1.033,11.849 7.201,33.849 C -8.7,-19.783 -3.066,-5.833 0,0 m 54.25,-17.35 c 3,-4.933 5.634,-10.016 7.9,-15.25 2.234,-5.233 5.767,-12.65 10.6,-22.25 1.566,-3.132 2.8,-5.867 3.7,-8.2 1.833,-4.833 2.267,-8 1.3,-9.5 -1.733,-2.7 -3.517,-3.167 -5.35,-1.399 -3.033,2.899 -5.817,6.533 -8.35,10.899 -1.767,3 -3.416,6.318 -4.949,9.95 -3.768,9.034 -6.535,17.567 -8.301,25.6 -1.767,8.033 -3.333,16.234 -4.699,24.601 2.432,-4.701 5.149,-9.517 8.149,-14.451"
             style="fill:#fff2de;fill-opacity:1;fill-rule:nonzero;stroke:none"
             id="path3789"
             inkscape:connector-curvature="0" /></g><g
           id="g3791"
           transform="translate(244.1494,287.25)"><path
             d="m 0,0 0.801,1.35 c 3.699,6.367 10.283,15.433 19.75,27.2 4.866,-9.366 4.932,-22.8 0.199,-40.3 l -0.399,-1.5 -1.401,-4.55 c -10.733,0.067 -17.733,4.583 -21,13.55 L 0,0 m 82.15,-0.1 2.951,-5.45 c -3.267,-8.366 -10.267,-12.583 -21,-12.65 l -1.451,4.5 C 57.551,3.2 57.5,16.133 62.5,25.1 71.834,14.267 78.384,5.867 82.15,-0.1"
             style="fill:#ffffff;fill-opacity:1;fill-rule:nonzero;stroke:none"
             id="path3793"
             inkscape:connector-curvature="0" /></g><g
           id="g3795"
           transform="translate(244.1494,287.25)"><path
             d="m 0,0 -2.05,-4.25 c 3.267,-8.967 10.267,-13.483 21,-13.55 l 1.401,4.55 0.399,1.5 c 4.733,17.5 4.667,30.934 -0.199,40.3 C 11.084,16.783 4.5,7.717 0.801,1.35 L 0,0 m 82.15,-0.1 2.951,-5.45 c -3.267,-8.366 -10.267,-12.583 -21,-12.65 l -1.451,4.5 C 57.551,3.2 57.5,16.133 62.5,25.1 71.834,14.267 78.384,5.867 82.15,-0.1"
             style="fill:none;stroke:#000000;stroke-width:4;stroke-linecap:round;stroke-linejoin:round;stroke-miterlimit:4;stroke-dasharray:none;stroke-opacity:1"
             id="path3797"
             inkscape:connector-curvature="0" /></g><g
           id="g3799"
           transform="translate(269.9316,172.8994)"><path
             d="m 0,0 c 0.167,-0.133 0.25,-0.483 0.25,-1.05 0,-0.5 -0.101,-0.884 -0.3,-1.15 -0.1,-1.8 -0.433,-3.133 -1,-4 -0.933,-1.4 -2.667,-2.1 -5.2,-2.1 -4.034,0 -6.3,2.083 -6.8,6.25 v 0.15 h 0.1 L -13,-1.15 c 0,0.834 0.2,1.35 0.6,1.55 l 6,0.5 C -2.967,0.9 -0.833,0.6 0,0 m 63.1,-1.9 -0.25,-2 c -0.367,-1.6 -1.333,-2.4 -2.9,-2.4 -3.267,0 -5.25,1.484 -5.95,4.45 l -0.4,0.25 -0.201,0.95 c 0,0.334 0.051,0.617 0.151,0.85 0.099,0.333 0.283,0.567 0.55,0.7 l 4.5,0.5 c 2.067,0 3.5,-0.25 4.299,-0.75 L 63.1,0.7 V 0.55 c 0.366,-0.3 0.549,-0.666 0.549,-1.1 0,-0.634 -0.183,-1.083 -0.549,-1.35"
             style="fill:#213046;fill-opacity:1;fill-rule:nonzero;stroke:none"
             id="path3801"
             inkscape:connector-curvature="0" /></g><g
           id="g3803"
           transform="translate(269.8311,171.3994)"><path
             d="m 0,0 c 0.066,2.434 0.217,3.967 0.45,4.6 0.5,1.433 1.667,2.15 3.5,2.15 1.7,0 2.866,-0.65 3.5,-1.95 0.601,-1.267 0.7,-3.166 0.3,-5.7 0,-2.133 -1.083,-4.784 -3.25,-7.95 -2.766,-4 -6.116,-6 -10.05,-6 -7.099,0 -11.783,2.5 -14.05,7.5 -1.132,2.534 -1.549,5.05 -1.25,7.55 0,3.7 1.267,5.55 3.8,5.55 1.7,0 2.833,-0.667 3.401,-2 l 0.5,-2.25 0.5,-1.2 c 0.266,-0.267 0.783,-1.283 1.549,-3.05 0.734,-1.767 2.368,-2.883 4.901,-3.35 2.533,-0.433 4.265,0.034 5.199,1.4 0.301,0.5 0.551,1.117 0.75,1.85 L 0,-1.6 0.15,0.35 0,0 m 70.75,0.85 c 0,-3.933 -0.232,-6.583 -0.699,-7.95 -1.367,-3.834 -4.567,-5.75 -9.601,-5.75 -6,0 -10.333,2.284 -13,6.85 -0.866,1.5 -1.5,3.117 -1.899,4.85 L 45.15,1.2 c 0,0.833 0.35,1.583 1.05,2.25 0.8,0.866 1.884,1.3 3.25,1.3 1.734,0 2.95,-0.517 3.651,-1.55 l 0.7,-2.1 0.3,-1.1 0.049,-0.3 c 0.701,-2.967 2.666,-4.45 5.901,-4.45 1.533,0 2.482,0.783 2.849,2.35 0.201,0.8 0.284,2.334 0.25,4.6 v 0.05 l -0.049,0.7 c -0.068,2.533 0.049,4.317 0.349,5.35 0.534,1.634 1.7,2.45 3.5,2.45 1.7,0 2.866,-0.833 3.5,-2.5 0.601,-1.633 0.7,-4.1 0.3,-7.4"
             style="fill:#000000;fill-opacity:1;fill-rule:nonzero;stroke:none"
             id="path3805"
             inkscape:connector-curvature="0" /></g><g
           id="g3807"
           transform="translate(254.9966,230.2002)"><path
             d="M 0,0 1.2,-2 0,0 m 34.1,-3.9 c -1.333,0.433 -2.784,1.25 -4.35,2.45 l -1.25,-0.6 1.25,0.6 c 1.566,-1.2 3.017,-2.017 4.35,-2.45 M 0.45,7.8 C 0.35,5.7 0.9,4.366 2.1,3.8 0.9,4.366 0.35,5.7 0.45,7.8 M 7.1,4.399 7.15,4.45 V 4.399 4.45 L 7.1,4.399 M 37.75,31.95 c 0.467,-7.734 0.5,-13.6 0.1,-17.6 C 37.283,8.616 35.617,4.433 32.85,1.8 32.717,1.7 32.566,1.634 32.4,1.6 L 31.9,1.649 C 22.767,5.75 13.134,8.25 3,9.149 H 2.9 L 2.65,7.35 c 12.5,-0.767 22.5,-3.784 30,-9.05 4.433,5.3 6.683,10.084 6.75,14.349 V 12.7 c 0.034,10.766 -0.067,19 -0.3,24.699 l -0.45,-2.25 -0.85,-3.399 -0.05,0.2 M 27.6,40.2 c -0.433,-1.167 0.534,-2.4 2.9,-3.7 1.333,-0.733 3.1,-1.3 5.3,-1.7 l 0.7,2.4 c 0.934,3.733 1.35,6.866 1.25,9.4 l -0.25,5.799 -5.9,-6.5 C 29.333,43.3 28,41.399 27.6,40.2 m 9.25,8.449 C 36.816,45.616 36.233,41.8 35.1,37.2 35.033,37 34.917,36.85 34.75,36.75 L 34.2,36.649 c -1.9,0.434 -3.583,1.25 -5.05,2.451 l -0.3,0.5 0.15,0.549 c 4.833,6.634 7.35,9.667 7.55,9.101 l 0.15,-0.15 0.15,-0.451 m 4.95,1.25 h 0.25 0.05 -0.3 m -6.6,-3.75 -4.55,-6.299 c 0.967,-0.667 2.034,-1.167 3.2,-1.5 0.7,2.933 1.15,5.534 1.35,7.799 M 36.05,56.899 35.9,56.7 h 0.15 1.35 l 3,-0.1 -2,3.299 -2.35,-3 m -1.7,6.951 c -4.2,1.167 -8.933,3.817 -14.2,7.95 L 15.7,75.649 14.9,71.25 c 5,-9.534 9.25,-14.55 12.75,-15.05 2.034,1.166 3.933,3.233 5.7,6.199 l 1,1.451 M 13,60.75 c 2.733,-3.7 4.934,-6.5 6.6,-8.4 2.334,-2.6 5.567,-4.15 9.7,-4.65 l 5.2,5.15 -1.2,-0.15 h -1 c -1.767,-1.7 -3.15,-2.551 -4.15,-2.551 -5.067,0 -9.9,4.784 -14.5,14.351 L 13,60.75 M 12.15,56 10.75,47.899 9.4,39.899 9.05,37.5 7.3,29.85 6.95,28.399 3.6,13.399 3.2,10.899 C 13.3,9.966 22.917,7.5 32.05,3.5 c 2.2,2.399 3.55,6.066 4.05,11 v 0.05 c 0.367,3.9 0.334,9.65 -0.1,17.25 -5.233,0.933 -9.017,3.349 -11.35,7.25 -0.334,0.566 -0.1,1.566 0.7,3 l 1.65,2.8 c -4,1 -7.684,3.266 -11.05,6.799 L 12.15,56 M 74.599,-0.55 c -0.266,-0.533 -0.599,-0.967 -1,-1.301 0.401,0.334 0.734,0.768 1,1.301 M 43.3,32.75 41.7,35.25 C 41.867,29.716 41.934,22.267 41.9,12.899 44.233,6.533 46.583,2.017 48.95,-0.65 l 1.4,-1.35 0.35,0.45 c 2.534,3.166 5.483,5.616 8.85,7.35 3.067,1.599 6.5,2.599 10.299,3 L 69,11.2 H 68.9 C 62.566,9.933 56.634,6.899 51.1,2.1 l -0.6,-0.25 -0.55,0.2 c -3.367,2.8 -5.4,7.283 -6.1,13.45 -0.1,0.634 -0.284,6.384 -0.55,17.25 m 27.901,-27.9 -0.5,1.5 H 70.4 L 66.599,5.7 65.599,5.45 63.25,4.7 C 62.117,4.3 61.033,3.8 60,3.2 L 57.701,1.7 C 56.066,0.566 54.583,-0.8 53.25,-2.4 l -1.6,-2.05 -0.8,-0.5 L 50,-4.8 c -0.833,0.467 -1.65,1.116 -2.45,1.949 C 45.384,-0.616 43.267,2.983 41.2,7.95 40.066,4.283 37.7,0.333 34.1,-3.9 l -0.3,-0.35 c -0.234,-0.233 -0.5,-0.366 -0.8,-0.4 -0.333,-0.034 -0.633,0.049 -0.9,0.25 l -3.6,2.35 c -2.233,1.3 -4.667,2.416 -7.3,3.35 L 21.05,1.35 21.15,1.399 21.2,1.3 21.15,1.399 21.05,1.35 C 16.917,2.816 12.283,3.833 7.15,4.399 H 7.1 L 2.4,4.85 H 2.35 2.25 L 2.1,3.8 1.2,-2 -0.2,-11.3 v -0.051 l -0.85,-6.299 -0.05,0.049 v -0.049 l -0.65,-4.65 -0.9,-5.85 C -4.283,-40.616 -5.566,-48.366 -6.5,-51.4 l 0.95,0.049 c 8.067,-1.166 30.883,-1.75 68.45,-1.75 l 3.301,0.451 3.849,0.6 c 4.1,0.733 7.567,1.55 10.401,2.449 7.632,2.534 10.332,5.817 8.099,9.851 -1.967,3.5 -4.4,9.066 -7.3,16.7 L 80.849,-22 73.599,-1.851 71.201,4.85 C 72.066,5.216 72.867,5.8 73.599,6.6 72.867,5.8 72.066,5.216 71.201,4.85 M 46.25,38.1 c 0.867,0.333 1.583,0.9 2.15,1.7 l -4.5,5.65 2.35,-7.35 M 50,39.45 c -0.934,-1.667 -2.3,-2.667 -4.1,-3 l -0.5,0.1 c -0.167,0.099 -0.283,0.233 -0.35,0.4 L 41.2,48.899 v 0.5 l 0.1,0.151 c 1.3,-0.5 4.167,-3.584 8.6,-9.25 L 50.05,39.899 50,39.5 v -0.05 m -4.6,8.35 c -2.1,2.5 -4.084,4.166 -5.95,5 l 2.7,-10.901 c 0.6,-2.333 1.234,-4.066 1.9,-5.199 0.567,-1 1.167,-1.517 1.8,-1.551 1.334,-0.066 2.667,0.567 4,1.901 1.334,1.334 1.983,2.316 1.95,2.95 l -2.2,2.85 -4.2,4.95 M 45.05,32.35 45.6,15.7 C 46.167,10.399 47.816,6.466 50.55,3.899 56.117,8.6 62.066,11.583 68.4,12.85 l -5.85,17 -3.349,10.049 -2.602,8 -1,3.051 -2.549,-1.9 -3.75,-2.25 4.75,-6.151 C 54.451,40.017 54.466,39.233 54.099,38.3 53.701,37.399 52.716,36.183 51.15,34.649 49.55,33.116 47.767,32.35 45.8,32.35 h -0.05 l -0.7,0.1 v -0.1 m 1.55,46.5 -16.75,-1.15 -9.6,0.75 2.1,-1.75 c 6.667,-5.5 11.966,-8.25 15.9,-8.25 1.066,0 2.867,2 5.4,6 l 2.95,4.4 m 4.9,7.549 7.75,-25.699 4.4,-15 v 0.1 l 1.801,-5.901 3.148,-10.049 1.301,-4 1.301,-3.701 21.349,-58.349 1.651,-4.6 c 0,-3.667 -0.301,-6.283 -0.901,-7.85 -1,-2.701 -3.183,-4.85 -6.55,-6.451 -2.167,-1.033 -5.034,-1.933 -8.6,-2.699 -9.699,-2.033 -24.6,-3.051 -44.7,-3.051 -23.134,0 -36.967,0.401 -41.5,1.201 -1.367,0.2 -3.35,1.833 -5.95,4.9 -1.366,1.566 0.15,14.5 4.55,38.8 l 10.25,55.849 1.6,8 c 3.433,17.034 6.083,28.451 7.95,34.25 L 10.2,82.8 c 0,0.867 0.116,1.45 0.35,1.75 v 4.95 c 8.1,-2.7 18.117,-4.05 30.05,-4.05 l 10.9,0.949 M 43.95,52.85 47.9,48.6 c 3.166,1.733 5.416,3.5 6.75,5.299 L 53.849,56.55 53.15,55.5 c -1.966,-2.934 -3.317,-4.4 -4.05,-4.4 -1.8,0 -3.517,0.583 -5.15,1.75 M 47,70.6 c -2.267,-2.966 -4.133,-5.05 -5.6,-6.25 l 1.2,-1.55 c 1.733,-2.401 3.584,-4.2 5.55,-5.401 0.767,0.235 1.55,1.134 2.35,2.701 0.767,1.6 1.167,2.716 1.2,3.35 L 48.95,73.2 47,70.6"
             style="fill:#000000;fill-opacity:1;fill-rule:nonzero;stroke:none"
             id="path3809"
             inkscape:connector-curvature="0" /></g><g
           id="g3811"
           transform="translate(289.3462,294.0498)"><path
             d="m 0,0 -1,-1.45 c -1.767,-2.967 -3.666,-5.033 -5.699,-6.199 -3.5,0.5 -7.75,5.515 -12.75,15.049 l 0.8,4.4 4.45,-3.85 C -8.933,3.817 -4.199,1.167 0,0 m 18.9,-66.25 c 2.433,-0.399 3.918,0.967 4.451,4.101 3.365,-2.334 6,-1.084 7.899,3.75 l 1.15,-0.451 4.451,-0.15 2.399,-6.7 c -0.633,-0.533 -1.432,-0.866 -2.399,-1 l -3.351,0.25 -0.6,-1.05 c -1.199,-1.399 -3.266,-1.833 -6.199,-1.3 -0.534,-1.266 -1.301,-2.133 -2.301,-2.599 l -4.699,0.25 c -2,-2.735 -5.067,-2.985 -9.201,-0.75 -2.767,-3.101 -5.933,-3 -9.5,0.299 -2.333,-2.167 -5.166,-1.966 -8.5,0.6 -2.899,-1.399 -6,-0.716 -9.3,2.05 -3.432,-2.3 -6.349,-1.383 -8.75,2.75 -3.3,-1.9 -5.833,-1.783 -7.599,0.35 l 0.899,5.8 c 1.101,-0.5 2.768,-0.3 5,0.6 h 0.051 c 0.699,-2.467 3.133,-2.866 7.3,-1.199 0.599,-3.801 2.799,-4.417 6.599,-1.851 l 0.151,-0.05 c 1.433,-3.633 3.866,-4.75 7.299,-3.349 l 3.6,-2.351 c 0.268,-0.2 0.567,-0.283 0.9,-0.25 0.3,0.034 0.567,0.167 0.8,0.4 l 0.3,0.35 c 2.834,-0.866 5.167,0.101 7,2.9 2.733,-2.733 4.884,-3.35 6.45,-1.85 0.8,-0.833 1.617,-1.483 2.45,-1.949 l 0.85,-0.151 0.801,0.5 1.599,2.05 m -6.25,73 1.951,2.601 2.75,-9.75 c -0.034,-0.634 -0.434,-1.75 -1.201,-3.351 -0.799,-1.566 -1.583,-2.466 -2.349,-2.7 -1.967,1.2 -3.818,3 -5.551,5.4 L 7.051,0.5 c 1.467,1.2 3.333,3.284 5.599,6.25"
             style="fill:#ffffff;fill-opacity:1;fill-rule:nonzero;stroke:none"
             id="path3813"
             inkscape:connector-curvature="0" /></g><g
           id="g3815"
           transform="translate(296.7964,280.0996)"><path
             d="M 0,0 H 0.3 0.25 0 m -4.95,-1.25 -0.15,0.45 -0.15,0.151 c -0.2,0.566 -2.717,-2.467 -7.55,-9.101 l -0.15,-0.55 0.301,-0.5 c 1.466,-1.2 3.149,-2.016 5.049,-2.45 l 0.55,0.101 c 0.167,0.099 0.283,0.25 0.35,0.45 1.134,4.599 1.717,8.416 1.75,11.449 m -9.25,-8.449 c 0.4,1.199 1.733,3.099 4,5.699 l 5.9,6.5 0.25,-5.8 c 0.1,-2.533 -0.316,-5.667 -1.25,-9.399 L -6,-15.1 c -2.2,0.401 -3.967,0.967 -5.3,1.701 -2.366,1.299 -3.333,2.533 -2.9,3.7 m -14.6,20.55 0.651,3.75 c 4.599,-9.568 9.432,-14.351 14.5,-14.351 1,0 2.382,0.851 4.149,2.551 h 1 l 1.2,0.149 -5.2,-5.149 c -4.133,0.5 -7.366,2.05 -9.7,4.649 -1.666,1.901 -3.866,4.7 -6.6,8.401 M 3.601,-2.1 7.8,-7.05 10,-9.899 c 0.033,-0.634 -0.616,-1.617 -1.95,-2.951 -1.333,-1.334 -2.666,-1.966 -4,-1.9 -0.633,0.033 -1.233,0.551 -1.8,1.551 -0.666,1.133 -1.3,2.866 -1.899,5.199 L -2.35,2.9 C -0.483,2.066 1.5,0.4 3.601,-2.1 M 8.2,-10.449 v 0.05 L 8.25,-10 8.101,-9.6 C 3.667,-3.934 0.8,-0.85 -0.5,-0.35 L -0.6,-0.5 V -1 l 3.85,-11.949 c 0.067,-0.167 0.184,-0.301 0.351,-0.401 l 0.5,-0.099 c 1.799,0.333 3.166,1.333 4.099,3 M 2.15,2.95 C 3.783,1.783 5.5,1.2 7.3,1.2 c 0.733,0 2.084,1.467 4.05,4.401 L 12.049,6.65 12.85,4 C 11.516,2.2 9.267,0.434 6.101,-1.3 L 2.15,2.95"
             style="fill:#494949;fill-opacity:1;fill-rule:nonzero;stroke:none"
             id="path3817"
             inkscape:connector-curvature="0" /></g><g
           id="g3819"
           transform="translate(301.5962,309.0498)"><path
             d="m 0,0 -2.949,-4.399 c -2.533,-4 -4.334,-6 -5.401,-6 -3.933,0 -9.233,2.75 -15.9,8.25 l -2.1,1.75 9.6,-0.75 L 0,0"
             style="fill:#fff2de;fill-opacity:1;fill-rule:nonzero;stroke:none"
             id="path3821"
             inkscape:connector-curvature="0" /></g><g
           id="g3823"
           transform="translate(290.1968,276.3496)"><path
             d="m 0,0 c -0.2,-2.266 -0.65,-4.866 -1.351,-7.8 -1.166,0.333 -2.232,0.833 -3.199,1.5 L 0,0 m -23.05,9.851 3.8,-4.351 c 3.366,-3.533 7.05,-5.8 11.05,-6.8 l -1.651,-2.8 c -0.799,-1.433 -1.033,-2.433 -0.699,-3 2.333,-3.9 6.116,-6.316 11.35,-7.25 0.433,-7.599 0.467,-13.349 0.099,-17.25 v -0.049 c -0.5,-4.934 -1.849,-8.601 -4.049,-11 -9.133,4 -18.75,6.465 -28.85,7.399 l 0.399,2.5 3.351,15 0.35,1.45 1.75,7.651 0.35,2.399 1.35,8 1.4,8.101 M 11.05,-8.05 8.7,-0.699 13.2,-6.35 c -0.567,-0.799 -1.283,-1.367 -2.15,-1.7 m -0.5,-5.75 h 0.05 c 1.966,0 3.75,0.767 5.35,2.3 1.566,1.533 2.55,2.75 2.949,3.65 0.367,0.934 0.351,1.717 -0.049,2.35 l -4.75,6.15 3.75,2.25 2.549,1.901 1,-3.051 2.601,-8 3.35,-10.05 5.85,-17 c -6.334,-1.266 -12.283,-4.25 -17.85,-8.95 -2.734,2.566 -4.383,6.5 -4.951,11.801 L 9.85,-13.8 h 0.7"
             style="fill:#85953f;fill-opacity:1;fill-rule:nonzero;stroke:none"
             id="path3825"
             inkscape:connector-curvature="0" /></g><g
           id="g3827"
           transform="translate(292.7466,262.1504)"><path
             d="M 0,0 0.05,-0.2 0.9,3.199 1.35,5.449 C 1.583,-0.25 1.684,-8.484 1.65,-19.25 v -0.051 c -0.067,-4.265 -2.317,-9.05 -6.75,-14.349 -7.5,5.266 -17.5,8.283 -30,9.049 l 0.25,1.8 h 0.1 c 10.134,-0.899 19.767,-3.399 28.9,-7.5 l 0.5,-0.05 c 0.166,0.035 0.317,0.101 0.45,0.201 2.767,2.632 4.433,6.816 5,12.549 0.4,4 0.367,9.867 -0.1,17.601 m -1.7,24.75 v 0.199 l 2.35,3 2,-3.3 -3,0.101 H -1.7 m -28.95,-52.301 c -2.233,-0.899 -3.9,-1.099 -5,-0.599 l 0.15,1.049 h 0.1 0.05 l 4.7,-0.45 m 13.95,-3.05 c -3.8,-2.566 -6,-1.95 -6.6,1.851 -4.167,-1.667 -6.6,-1.268 -7.3,1.199 5.133,-0.566 9.767,-1.583 13.9,-3.05 M -9.25,-34 c -3.434,-1.4 -5.866,-0.283 -7.3,3.35 2.633,-0.934 5.067,-2.05 7.3,-3.35 M 9.8,-34.801 c -1.567,-1.5 -3.717,-0.883 -6.45,1.851 -1.833,-2.8 -4.166,-3.767 -7,-2.901 3.6,4.234 5.966,8.184 7.1,11.851 2.067,-4.967 4.184,-8.566 6.35,-10.801 m 5.7,0.45 c 1.333,1.601 2.816,2.967 4.451,4.101 l 2.299,1.5 c 1.033,0.6 2.117,1.1 3.25,1.5 l 2.349,0.75 1,0.25 3.801,0.649 h 0.301 l 0.5,-1.5 -4.451,0.151 -1.151,0.45 c -1.898,-4.834 -4.533,-6.084 -7.898,-3.75 -0.534,-3.134 -2.018,-4.5 -4.451,-4.101 M 5.55,0.8 C 5.816,-10.066 6,-15.816 6.1,-16.45 6.8,-22.617 8.833,-27.101 12.2,-29.9 l 0.55,-0.201 0.6,0.25 c 5.534,4.8 11.466,7.833 17.8,9.101 h 0.1 l 0.849,-2.4 c -3.799,-0.401 -7.232,-1.401 -10.299,-3 -3.367,-1.734 -6.316,-4.184 -8.85,-7.35 l -0.35,-0.45 -1.4,1.349 c -2.367,2.667 -4.717,7.184 -7.05,13.55 C 4.184,-9.684 4.117,-2.234 3.95,3.3 l 1.6,-2.5"
             style="fill:#eff2e1;fill-opacity:1;fill-rule:nonzero;stroke:none"
             id="path3829"
             inkscape:connector-curvature="0" /></g><g
           id="g3831"
           transform="translate(323.2969,226.75)"><path
             d="m 0,0 1.1,-6.25 -3.45,-0.65 -0.55,3.25 -3.45,-0.65 1.799,-9.7 3.401,0.6 -0.6,3.25 3.449,0.65 1.151,-6.35 -6.85,-1.25 0.75,-4.05 6.85,1.25 1.15,-6.3 -3.451,-0.65 -0.549,3.25 -3.4,-0.65 1.75,-9.85 3.4,0.6 -0.6,3.25 3.45,0.6 1.15,-6.25 -6.85,-1.25 0.75,-4.1 L 7.25,-40 8.4,-46.3 5,-46.95 4.4,-43.7 1,-44.35 1.75,-48.6 1,-44.35 4.4,-43.7 5,-46.95 8.4,-46.3 7.25,-40 0.4,-41.25 l -0.75,4.1 6.85,1.25 -1.15,6.25 -3.45,-0.6 0.6,-3.25 -3.4,-0.6 -1.75,9.85 3.4,0.65 0.549,-3.25 3.451,0.65 -1.15,6.3 -6.85,-1.25 -0.75,4.05 6.85,1.25 -1.151,6.35 -3.449,-0.65 0.6,-3.25 L -4.551,-14 -6.35,-4.3 -2.9,-3.65 -2.35,-6.9 1.1,-6.25 0,0 m -9.551,-4.1 c 1,0.467 1.768,1.333 2.301,2.6 2.934,-0.533 5,-0.1 6.199,1.3 l 0.6,1.05 L 2.9,0.6 12.15,-46.15 c -2.834,-0.9 -6.3,-1.717 -10.4,-2.45 l -3.85,-0.6 -7.451,45.1"
             style="fill:#f7f7ed;fill-opacity:1;fill-rule:nonzero;stroke:none"
             id="path3833"
             inkscape:connector-curvature="0" /></g><g
           id="g3835"
           transform="translate(326.1973,227.3496)"><path
             d="m 0,0 c 0.967,0.134 1.766,0.467 2.398,1 l 7.25,-20.149 0.401,-1.05 c 2.9,-7.634 5.334,-13.2 7.301,-16.7 2.232,-4.035 -0.467,-7.318 -8.1,-9.851 L 0,0 m -70,0.851 c 1.766,-2.134 4.299,-2.25 7.599,-0.351 2.401,-4.133 5.318,-5.05 8.75,-2.75 3.3,-2.766 6.401,-3.449 9.3,-2.05 3.334,-2.566 6.167,-2.766 8.5,-0.599 3.567,-3.3 6.733,-3.401 9.5,-0.3 4.134,-2.235 7.201,-1.985 9.201,0.75 l 4.699,-0.25 L -5,-49.8 -8.301,-50.25 c -37.567,0 -60.383,0.584 -68.449,1.75 l -0.951,-0.05 c 0.934,3.034 2.217,10.784 3.85,23.25 l 0.9,5.851 0.651,4.649 h 0.05 l 0.849,6.3 v 0.051 l 1.401,9.3"
             style="fill:#748337;fill-opacity:1;fill-rule:nonzero;stroke:none"
             id="path3837"
             inkscape:connector-curvature="0" /></g><g
           id="g3839"
           transform="translate(256.1968,228.2002)"><path
             d="m 0,0 -1.2,2 m 28.5,-2.05 1.25,0.6 c 1.566,-1.2 3.016,-2.017 4.349,-2.45 M 19.85,3.35 19.95,3.399 20,3.3 M 0,0 c 1.767,-2.134 4.3,-2.25 7.6,-0.351 2.4,-4.132 5.317,-5.049 8.75,-2.75 3.299,-2.765 6.4,-3.449 9.299,-2.049 3.334,-2.567 6.167,-2.767 8.5,-0.6 3.568,-3.3 6.734,-3.4 9.5,-0.3 4.134,-2.234 7.201,-1.984 9.201,0.75 l 4.699,-0.25 c 1,0.467 1.768,1.333 2.301,2.6 2.934,-0.533 5,-0.1 6.199,1.3 l 0.6,1.049 3.351,-0.25 c 0.967,0.134 1.766,0.467 2.399,1 0.4,0.334 0.734,0.768 1,1.301 M 19.85,3.35 C 16.05,0.783 13.85,1.399 13.25,5.2 9.083,3.533 6.649,3.933 5.95,6.399 V 6.45 L 5.899,6.399 C 3.667,5.5 2,5.3 0.899,5.8 -0.3,6.366 -0.851,7.7 -0.75,9.8 M 27.3,-0.05 C 23.866,-1.45 21.434,-0.333 20,3.3 m 26.35,-4.151 c -1.567,-1.5 -3.717,-0.882 -6.451,1.851 -1.833,-2.8 -4.166,-3.767 -7,-2.9 M 70,6.85 65.549,7 64.399,7.45 C 62.5,2.616 59.866,1.366 56.5,3.7 55.967,0.566 54.483,-0.8 52.049,-0.4 M 70,6.85 c 0.866,0.366 1.667,0.95 2.399,1.75"
             style="fill:none;stroke:#000000;stroke-width:1.75;stroke-linecap:round;stroke-linejoin:round;stroke-miterlimit:4;stroke-dasharray:none;stroke-opacity:1"
             id="path3841"
             inkscape:connector-curvature="0" /></g><g
           id="g3843"
           transform="translate(325.0469,178.1504)"><path
             d="M 0,0 -0.75,4.25 2.65,4.899 3.25,1.649 6.65,2.3 5.5,8.6 -1.35,7.35 -2.1,11.449 4.75,12.699 3.6,18.949 0.15,18.35 0.75,15.1 -2.65,14.5 -4.4,24.35 -1,25 -0.451,21.75 3,22.399 1.85,28.699 -5,27.449 -5.75,31.5 1.1,32.75 -0.051,39.1 -3.5,38.449 -2.9,35.199 -6.301,34.6 -8.1,44.3 l 3.45,0.649 0.55,-3.25 3.45,0.651 -1.1,6.25"
             style="fill:none;stroke:#353b1e;stroke-width:1.75;stroke-linecap:round;stroke-linejoin:round;stroke-miterlimit:4;stroke-dasharray:none;stroke-opacity:1"
             id="path3845"
             inkscape:connector-curvature="0" /></g><g
           id="g3847"
           transform="translate(335.4473,180.5996)"><path
             d="m 0,0 -9.25,46.75 m -5,-49.8 -7.451,45.101"
             style="fill:none;stroke:#000000;stroke-width:2;stroke-linecap:round;stroke-linejoin:round;stroke-miterlimit:4;stroke-dasharray:none;stroke-opacity:1"
             id="path3849"
             inkscape:connector-curvature="0" /></g><path
           d="m 300.596,242.75 h -10 v 2.5 h 10 z m 0.151,11.95 h -10.05 v 2.5 h 10.05 z"
           style="fill:#ffffff;fill-opacity:1;fill-rule:nonzero;stroke:none"
           id="path3851"
           inkscape:connector-curvature="0" /><path
           d="m 300.596,242.75 h -10 v 2.5 h 10 z m 0.151,14.45 h -10.05 v -2.5 h 10.05 z"
           style="fill:none;stroke:#000000;stroke-width:1.5;stroke-linecap:round;stroke-linejoin:round;stroke-miterlimit:4;stroke-dasharray:none;stroke-opacity:1"
           id="path3853"
           inkscape:connector-curvature="0" /><g
           id="g3855"
           transform="translate(366.3232,412.9004)"><path
             d="M 0,0 C 3.332,0 4.582,-9.417 3.75,-28.25 4.582,-47.084 3.332,-56.5 0,-56.5 c -1,0 -1.684,0.116 -2.051,0.35 l -1.449,0.9 c -0.168,6 -0.25,15 -0.25,27 -0.201,4.833 -0.201,9.583 0,14.25 0.398,9.333 1.648,14 3.75,14"
             style="fill:#000000;fill-opacity:1;fill-rule:nonzero;stroke:none"
             id="path3857"
             inkscape:connector-curvature="0" /></g><g
           id="g3859"
           transform="translate(271.4722,409.9004)"><path
             d="M 0,0 C 3.333,0 4.583,-9.417 3.75,-28.25 4.583,-47.084 3.333,-56.5 0,-56.5 c -1,0 -1.684,0.116 -2.05,0.35 l -1.45,0.9 -0.25,27 c -0.2,4.833 -0.2,9.583 0,14.25 0.4,9.333 1.65,14 3.75,14"
             style="fill:#000000;fill-opacity:1;fill-rule:nonzero;stroke:none"
             id="path3861"
             inkscape:connector-curvature="0" /></g><g
           id="g3863"
           transform="translate(278.125,320.2695)"><path
             d="m 0,0 0.35,-2.699 h -5.6 L -5.3,-2.35 C -6.9,4.15 -7.733,9.367 -7.8,13.301 L -7.65,19 c 0.167,1.5 0.483,2.7 0.95,3.601 l -0.05,0.149 0.2,0.101 0.15,0.25 c 7.833,2.132 18.716,2.95 32.65,2.45 L 45,25.601 c 11.767,0 18.816,-1.334 21.149,-4 L 66.55,21.301 64.399,11 C 63.466,6.7 62.5,4.917 61.5,5.65 l -3.3,0.6 -0.301,2.551 0.051,0.449 c 0.067,1.101 0.449,2.767 1.15,5 0.799,2.601 1.2,4.334 1.2,5.2 -28.133,1.434 -45.133,1.7 -51,0.8 L -2.45,19.15 0,0"
             style="fill:#000000;fill-opacity:1;fill-rule:nonzero;stroke:none"
             id="path3865"
             inkscape:connector-curvature="0" /></g><g
           id="g3867"
           transform="translate(278.125,320.2695)"><path
             d="m 0,0 -2.45,19.15 11.75,1.1 c 5.867,0.9 22.867,0.634 51,-0.8 0,-0.866 -0.401,-2.599 -1.2,-5.2 -0.701,-2.233 -1.083,-3.899 -1.15,-5 C 52.384,7.051 46.767,5.117 41.1,3.45 30.733,0.417 21.966,-1.1 14.8,-1.1 L 0.05,-0.3 0,0"
             style="fill:#fcdddd;fill-opacity:1;fill-rule:nonzero;stroke:none"
             id="path3869"
             inkscape:connector-curvature="0" /></g></g></g></g></svg>